<svg width="355" height="355" viewBox="0 0 355 355" fill="none" xmlns="http://www.w3.org/2000/svg">
<g filter="url(#filter0_d_409_6841)">
<rect x="20" y="20.9752" width="265.183" height="313.183" rx="11.1071" fill="white" shape-rendering="crispEdges"/>
<path d="M49.5732 40.1505C48.3236 40.6318 46.9676 40.9141 45.5052 40.9974V43.5243H50.0452V44.4823H48.5458V51.8963H47.56V44.4823H45.5052V46.1345C45.4311 48.5318 44.8989 50.4339 43.9085 51.8408L43.2005 51.091C44.0242 49.897 44.4685 48.2448 44.5333 46.1345V40.1922C46.1901 40.1644 47.7035 39.8543 49.0734 39.2619L49.5732 40.1505ZM37.5081 40.331H40.1877C39.9563 39.8682 39.7156 39.4656 39.4657 39.1231L40.4931 38.9565C40.7152 39.373 40.9374 39.8312 41.1595 40.331H43.7697V41.2473H37.5081V40.331ZM37.3692 43.4826H38.9659C38.7622 42.9365 38.517 42.4136 38.23 41.9138L39.1186 41.5944C39.3963 42.1313 39.6415 42.7607 39.8544 43.4826H41.3817C41.6408 42.9088 41.8815 42.2701 42.1036 41.5667L43.0061 41.8721C42.7654 42.5108 42.5248 43.0476 42.2841 43.4826H43.853V44.3851H41.1734V45.9401H43.617V46.8564H41.1734V50.7301C41.1734 51.5168 40.7708 51.9102 39.9655 51.9102H39.2158L39.0075 50.98C39.2574 51.0262 39.4657 51.0494 39.6323 51.0494C39.9933 51.0494 40.1738 50.8643 40.1738 50.494V46.8564H37.5914V45.9401H40.1738V44.3851H37.3692V43.4826ZM39.4796 47.8005C39.1278 49.1797 38.6234 50.4015 37.9662 51.4659L37.1332 50.9383C37.7811 49.9479 38.2578 48.8372 38.5632 47.6062L39.4796 47.8005ZM42.5479 47.509C42.9922 48.4716 43.3162 49.2954 43.5198 49.9803L42.6868 50.2997C42.4091 49.3833 42.0851 48.5271 41.7149 47.7311L42.5479 47.509ZM62.6796 44.8155H59.7085V45.9262H62.9573V46.7454H59.7085V47.8977H63.3599V48.7447H59.7085V50.1192H58.7366V48.7447H55.5849V47.8977H58.7366V46.7454H56.0153V45.9262H58.7366V44.8155H56.3069V43.9825H58.7366V42.8717H55.6266V42.0387H58.7366V40.9419H56.3069V40.1088H58.7366V39.0953H59.7085V40.1088H62.6796V42.0387H63.6098V42.8717H62.6796V44.8155ZM59.7085 40.9419V42.0387H61.7077V40.9419H59.7085ZM59.7085 42.8717V43.9825H61.7077V42.8717H59.7085ZM59.0559 50.619C60.4073 50.619 61.9762 50.5958 63.7626 50.5496L63.596 51.5076H59.4863C56.9872 51.5076 55.1962 51.1466 54.1132 50.4246C53.9096 50.2673 53.7522 50.133 53.6412 50.022C53.2061 50.6606 52.66 51.2299 52.0029 51.7297L51.3503 50.8828C51.989 50.42 52.5351 49.8646 52.9886 49.2167C52.4425 48.4299 52.0029 47.4442 51.6697 46.2594L52.5027 45.954C52.7711 46.9166 53.0951 47.7172 53.4746 48.3559C53.9466 47.3655 54.2243 46.2131 54.3076 44.8988H51.7391V44.1213C52.5721 43.0569 53.3126 41.9462 53.9605 40.7892H51.6835V39.8451H55.0851V40.6642C54.4464 41.8397 53.7615 42.9458 53.0303 43.9825H55.2101V44.5795C55.1545 46.3936 54.7889 47.9486 54.1132 49.2445C54.3354 49.4759 54.5621 49.661 54.7935 49.7998C55.7191 50.3182 57.1399 50.5912 59.0559 50.619ZM67.0114 47.8005C68.4276 46.9768 69.7974 45.9355 71.121 44.6767V42.3025C72.5002 41.6176 73.5461 41.0483 74.2588 40.5948H67.1641V39.6507H75.7583V40.5948C74.6846 41.3353 73.4489 42.0896 72.0513 42.8579V44.9821C73.2731 45.8337 74.4948 46.7824 75.7166 47.8283L75.1335 48.703C73.9487 47.5553 72.9213 46.6482 72.0513 45.9817V48.3143C72.0513 49.1288 71.6718 49.536 70.9128 49.536H69.6493L69.3994 48.6058C69.8622 48.6243 70.2464 48.6336 70.5518 48.6336C70.9313 48.6336 71.121 48.4114 71.121 47.9672V45.8151C69.927 46.9444 68.6728 47.9301 67.3585 48.7724L67.0114 47.8005ZM75.9943 42.1776H76.9523V51.8824H75.9943V51.1049H66.7476V51.8685H65.7896V42.1637H66.7476V50.1886H75.9943V42.1776ZM68.2471 42.608C69.1171 43.4132 69.7697 44.0889 70.2047 44.635L69.4411 45.1626C69.0061 44.5702 68.3628 43.8714 67.5112 43.0661L68.2471 42.608ZM75.3695 42.8995C74.8234 43.7788 74.1663 44.5517 73.398 45.2181L72.676 44.7044C73.4073 44.0843 74.0367 43.3531 74.5643 42.5108L75.3695 42.8995ZM87.4485 42.2053C87.356 42.5385 87.2912 42.7838 87.2542 42.9412C87.5966 44.5147 88.0502 45.8984 88.6148 47.0925C89.1516 45.6856 89.4478 44.0565 89.5034 42.2053H87.4485ZM88.1566 48.1199C87.6105 47.0277 87.1524 45.8013 86.7821 44.4406C86.5415 45.0515 86.2684 45.6208 85.963 46.1484L85.3382 45.3847C86.162 43.8205 86.7127 41.724 86.9904 39.0953L87.9623 39.2619C87.8975 39.8358 87.7956 40.4976 87.6568 41.2473H91.3222V42.2053H90.4197C90.3642 44.5193 89.9523 46.5001 89.184 48.1476C89.9153 49.3694 90.7714 50.3089 91.7526 50.9661L91.1833 51.813C90.23 51.1466 89.4016 50.2349 88.6981 49.0779C88.0224 50.1886 87.1616 51.1188 86.1157 51.8685L85.5881 51.0216C86.671 50.2719 87.5272 49.3046 88.1566 48.1199ZM82.5336 45.6763L82.256 46.4399H85.1438V47.2868C84.8384 48.1939 84.3339 48.9807 83.6305 49.6471C84.2876 49.9248 84.9124 50.2302 85.5048 50.5634L84.9633 51.3687C84.3247 50.9892 83.6212 50.6282 82.853 50.2858C81.9181 50.9244 80.7611 51.4381 79.382 51.8269L78.896 50.9661C80.053 50.6606 81.0249 50.2811 81.8117 49.8276L79.8818 49.0501C80.2706 48.4114 80.5853 47.8422 80.8259 47.3424H79.2015V46.4399H81.2424C81.4738 45.792 81.5803 45.5004 81.5618 45.5652L82.5336 45.6763ZM82.6725 49.2445C83.3667 48.6799 83.8757 48.0458 84.1997 47.3424H81.8533C81.6219 47.8144 81.372 48.2541 81.1036 48.6613C81.6589 48.8557 82.1819 49.0501 82.6725 49.2445ZM80.2983 39.4285C80.6593 39.9931 80.9555 40.5624 81.1869 41.1363L80.4094 41.4972C80.1225 40.8401 79.8078 40.2431 79.4653 39.7062L80.2983 39.4285ZM85.2827 39.7201C84.9957 40.3495 84.6394 40.9511 84.2136 41.525L83.4639 41.1224C83.9081 40.493 84.2506 39.896 84.4913 39.3313L85.2827 39.7201ZM79.2431 41.7888H81.9505V39.137H82.8807V41.7888H85.4076V42.6635H82.8807V42.8162C83.6397 43.1957 84.408 43.6215 85.1855 44.0935L84.6718 44.871C83.9776 44.3157 83.3806 43.8714 82.8807 43.5382V45.3431H81.9505V42.7051C81.497 43.7881 80.6686 44.7368 79.4653 45.5513L78.9793 44.7461C80.053 44.1167 80.7981 43.4225 81.2147 42.6635H79.2431V41.7888Z" fill="#24282C"/>
<path d="M257.657 47.0167L257.412 46.7713L257.167 47.0167L252.631 51.5521C252.533 51.6504 252.408 51.705 252.229 51.705C252.049 51.705 251.924 51.6504 251.826 51.5521C251.728 51.4539 251.673 51.3292 251.673 51.1496C251.673 50.97 251.728 50.8454 251.826 50.7471L256.362 46.2117L256.607 45.9663L256.362 45.7209L251.826 41.1854C251.728 41.0872 251.673 40.9626 251.673 40.783C251.673 40.6034 251.728 40.4787 251.826 40.3805C251.924 40.2822 252.049 40.2276 252.229 40.2276C252.408 40.2276 252.533 40.2822 252.631 40.3805L257.167 44.9159L257.412 45.1613L257.657 44.9159L262.193 40.3805C262.291 40.2822 262.416 40.2276 262.595 40.2276C262.775 40.2276 262.9 40.2822 262.998 40.3805C263.096 40.4787 263.151 40.6034 263.151 40.783C263.151 40.9626 263.096 41.0872 262.998 41.1854L258.462 45.7209L258.217 45.9663L258.462 46.2117L262.998 50.7471C263.096 50.8454 263.151 50.97 263.151 51.1496C263.151 51.3292 263.096 51.4539 262.998 51.5521C262.9 51.6504 262.775 51.705 262.595 51.705C262.416 51.705 262.291 51.6504 262.193 51.5521L257.657 47.0167Z" fill="#38AFD4" stroke="#38AFD4" stroke-width="0.694196"/>
<path d="M263.663 68.1805H36.6611" stroke="#E9F6F7" stroke-width="0.694196" stroke-linecap="round"/>
<path d="M38.7271 89.1551C39.86 88.4961 40.9559 87.6631 42.0148 86.656V84.7567C43.1181 84.2087 43.9548 83.7533 44.525 83.3905H38.8492V82.6352H45.7246V83.3905C44.8656 83.9829 43.8771 84.5864 42.759 85.201V86.9004C43.7364 87.5816 44.7138 88.3406 45.6912 89.1773L45.2247 89.8771C44.2769 88.9589 43.455 88.2332 42.759 87.7001V89.5661C42.759 90.2177 42.4554 90.5435 41.8482 90.5435H40.8374L40.6375 89.7993C41.0077 89.8141 41.315 89.8215 41.5594 89.8215C41.863 89.8215 42.0148 89.6438 42.0148 89.2884V87.5668C41.0596 88.4702 40.0562 89.2588 39.0047 89.9326L38.7271 89.1551ZM45.9134 84.6567H46.6798V92.4206H45.9134V91.7986H38.516V92.4095H37.7496V84.6456H38.516V91.0655H45.9134V84.6567ZM39.7156 85.001C40.4116 85.6453 40.9337 86.1858 41.2817 86.6227L40.6708 87.0448C40.3228 86.5709 39.8082 86.0118 39.1269 85.3676L39.7156 85.001ZM45.4136 85.2343C44.9767 85.9377 44.4509 86.556 43.8363 87.0892L43.2588 86.6782C43.8438 86.1821 44.3473 85.5971 44.7693 84.9233L45.4136 85.2343ZM55.0768 84.6789C55.0027 84.9455 54.9509 85.1417 54.9213 85.2676C55.1953 86.5264 55.5581 87.6334 56.0098 88.5887C56.4393 87.4631 56.6762 86.1599 56.7206 84.6789H55.0768ZM55.6432 89.4106C55.2064 88.5368 54.8398 87.5557 54.5436 86.4672C54.3511 86.9559 54.1327 87.4113 53.8883 87.8334L53.3885 87.2225C54.0475 85.9711 54.4881 84.2939 54.7102 82.1909L55.4877 82.3242C55.4359 82.7833 55.3545 83.3128 55.2434 83.9125H58.1757V84.6789H57.4537C57.4093 86.5301 57.0798 88.1147 56.4652 89.4328C57.0501 90.4102 57.7351 91.1618 58.52 91.6875L58.0646 92.3651C57.3019 91.8319 56.6392 91.1026 56.0764 90.177C55.5359 91.0655 54.8472 91.8097 54.0105 92.4095L53.5884 91.732C54.4548 91.1322 55.1397 90.3584 55.6432 89.4106ZM51.1448 87.4557L50.9227 88.0666H53.233V88.7442C52.9886 89.4698 52.5851 90.0992 52.0223 90.6324C52.548 90.8545 53.0479 91.0989 53.5218 91.3654L53.0886 92.0097C52.5777 91.7061 52.0149 91.4173 51.4003 91.1433C50.6524 91.6542 49.7268 92.0652 48.6235 92.3762L48.2348 91.6875C49.1604 91.4432 49.9379 91.1396 50.5673 90.7768L49.0234 90.1548C49.3344 89.6438 49.5861 89.1884 49.7787 88.7886H48.4791V88.0666H50.1119C50.297 87.5483 50.3822 87.315 50.3673 87.3669L51.1448 87.4557ZM51.2559 90.3103C51.8113 89.8586 52.2185 89.3513 52.4777 88.7886H50.6006C50.4155 89.1662 50.2155 89.518 50.0008 89.8438C50.4451 89.9993 50.8635 90.1548 51.2559 90.3103ZM49.3566 82.4575C49.6454 82.9092 49.8823 83.3646 50.0675 83.8237L49.4455 84.1125C49.2159 83.5867 48.9641 83.1091 48.6902 82.6797L49.3566 82.4575ZM53.3441 82.6908C53.1145 83.1943 52.8294 83.6756 52.4888 84.1347L51.889 83.8126C52.2445 83.3091 52.5184 82.8315 52.711 82.3798L53.3441 82.6908ZM48.5125 84.3457H50.6783V82.2243H51.4225V84.3457H53.444V85.0455H51.4225V85.1677C52.0297 85.4712 52.6443 85.8119 53.2663 86.1895L52.8553 86.8115C52.3 86.3672 51.8224 86.0118 51.4225 85.7452V87.1892H50.6783V85.0788C50.3155 85.9452 49.6528 86.7041 48.6902 87.3558L48.3014 86.7115C49.1604 86.208 49.7565 85.6527 50.0897 85.0455H48.5125V84.3457ZM62.8185 91.7098V92.3651H62.0187V88.4443C61.3523 88.659 60.6229 88.8626 59.8306 89.0552L59.4086 88.2888C61.356 87.8815 62.9554 87.3632 64.2068 86.7338C63.7181 86.3191 63.0517 85.8748 62.2076 85.4009L62.8962 84.9677C63.7552 85.5009 64.4179 85.9674 64.8844 86.3672C66.0173 85.6934 66.8429 84.9011 67.3613 83.9903H63.2516C62.4963 84.6863 61.5337 85.312 60.3638 85.8674L59.8306 85.1788C61.7188 84.3716 62.9999 83.3757 63.6737 82.1909L64.5512 82.2909C64.3809 82.6093 64.1809 82.924 63.9514 83.235H68.2832V83.9459C67.4835 85.4712 66.0432 86.7152 63.9625 87.6779H68.5942V92.3651H67.7833V91.7098H62.8185ZM67.7833 90.9323V88.422H62.8185V90.9323H67.7833Z" fill="#24282C"/>
<rect x="36.333" y="103.618" width="231.862" height="29.1562" rx="2.77679" fill="#F4F6F8"/>
<path d="M46.5332 119.534C47.5634 118.899 48.5417 118.128 49.4682 117.221V115.549C50.5243 115.012 51.2954 114.581 51.7813 114.257H46.6401V113.761H52.588V114.257C51.7716 114.827 50.8969 115.355 49.9639 115.841V117.435C50.7803 118.011 51.655 118.705 52.588 119.515L52.2867 119.971C51.399 119.129 50.6248 118.458 49.9639 117.96V119.787C49.9639 120.318 49.7209 120.584 49.235 120.584H48.3603L48.2242 120.078C48.5612 120.091 48.8365 120.098 49.0503 120.098C49.3289 120.098 49.4682 119.936 49.4682 119.612V117.824C48.626 118.659 47.7091 119.398 46.7178 120.039L46.5332 119.534ZM52.9087 115.481H53.4141V122.216H52.9087V121.633H46.2222V122.207H45.7168V115.472H46.2222V121.128H52.9087V115.481ZM47.3204 115.792C47.9424 116.356 48.4024 116.832 48.7005 117.221L48.3117 117.503C47.9878 117.075 47.5245 116.586 46.9219 116.035L47.3204 115.792ZM52.2964 115.919C51.9206 116.521 51.4606 117.059 50.9163 117.532L50.5276 117.26C51.0524 116.813 51.4962 116.294 51.8591 115.705L52.2964 115.919ZM60.7614 115.394C60.6966 115.653 60.6448 115.844 60.6059 115.967C60.8651 117.159 61.2117 118.199 61.6458 119.087C62.0799 118.018 62.3067 116.787 62.3261 115.394H60.7614ZM61.3931 119.621C60.9785 118.831 60.6318 117.888 60.3532 116.793C60.1653 117.299 59.9515 117.762 59.7118 118.183L59.3814 117.775C59.971 116.673 60.3727 115.183 60.5865 113.304L61.1113 113.401C61.0465 113.907 60.9688 114.399 60.8781 114.879H63.5216V115.394H62.8315C62.7926 117.072 62.4978 118.491 61.9471 119.651C62.4655 120.551 63.0842 121.245 63.8034 121.73L63.5021 122.178C62.7959 121.679 62.1901 120.998 61.6847 120.137C61.1923 120.979 60.5735 121.666 59.8284 122.197L59.5369 121.75C60.3208 121.193 60.9396 120.483 61.3931 119.621ZM56.7865 117.853L57.2918 117.911L57.0586 118.514H59.1384V118.961C58.9051 119.641 58.5164 120.224 57.9721 120.71C58.4516 120.911 58.9375 121.151 59.43 121.429L59.1384 121.847C58.6849 121.581 58.1568 121.316 57.5542 121.05C56.8998 121.523 56.0867 121.899 55.1148 122.178L54.8524 121.73C55.7077 121.497 56.4301 121.189 57.0197 120.807C56.605 120.626 56.1353 120.438 55.6105 120.243C55.8826 119.803 56.1159 119.385 56.3102 118.99H55.076V118.514H56.5338L56.7865 117.853ZM57.4571 120.496C57.9819 120.062 58.3739 119.56 58.633 118.99H56.8448C56.6828 119.333 56.4884 119.68 56.2616 120.03C56.6698 120.166 57.0683 120.321 57.4571 120.496ZM55.7466 113.576C55.9928 113.952 56.2033 114.357 56.3783 114.791L55.9604 114.976C55.766 114.529 55.5457 114.111 55.2995 113.722L55.7466 113.576ZM59.2356 113.693C59.0477 114.134 58.795 114.565 58.4775 114.986L58.0791 114.782C58.3901 114.328 58.6298 113.897 58.7982 113.489L59.2356 113.693ZM55.1051 115.248H57.0294V113.353H57.5251V115.248H59.3619V115.724H57.5251V115.841C58.1276 116.171 58.6849 116.515 59.1967 116.871L58.9149 117.289C58.3836 116.855 57.9203 116.505 57.5251 116.239V117.639H57.0294V115.724H57.0003C56.6893 116.508 56.09 117.189 55.2023 117.765L54.9302 117.328C55.753 116.861 56.3102 116.327 56.6018 115.724H55.1051V115.248ZM67.9922 115.073V121.604H67.4868V121.011H65.5236V121.876H65.0182V115.073H65.8929C66.0938 114.522 66.2396 113.943 66.3303 113.333L66.8648 113.401C66.7611 113.998 66.6056 114.555 66.3983 115.073H67.9922ZM65.5236 120.525H67.4868V118.222H65.5236V120.525ZM65.5236 117.746H67.4868V115.578H65.5236V117.746ZM69.6444 117.27C70.3895 118.092 70.9532 118.805 71.3354 119.408L70.9175 119.709C70.5288 119.08 69.9618 118.358 69.2167 117.542L69.6444 117.27ZM73.0265 115.083C73.0265 118.199 72.9811 120.14 72.8904 120.904C72.7932 121.682 72.3429 122.071 71.5395 122.071L70.5871 122.051L70.4607 121.565C70.8495 121.585 71.1896 121.594 71.4812 121.594C72.006 121.594 72.3073 121.306 72.3851 120.729C72.4563 120.198 72.5017 118.491 72.5211 115.608H69.6541C69.3755 116.249 69.0483 116.816 68.6725 117.308L68.3615 116.9C69.0612 115.928 69.5375 114.736 69.7901 113.324L70.3052 113.382C70.1821 114.017 70.0331 114.584 69.8582 115.083H73.0265ZM78.7703 117.561V119.058H80.6946V117.561H78.7703ZM78.7703 119.553V121.176H80.6946V119.553H78.7703ZM78.7703 121.682V122.148H78.2552V116.356C77.996 116.829 77.7045 117.286 77.3805 117.726L77.2056 117.172C78.009 115.98 78.5694 114.688 78.8869 113.295L79.402 113.392C79.253 113.981 79.0748 114.539 78.8675 115.063H82.9591V115.569H81.2097V117.065H82.7452V117.561H81.2097V119.058H82.7452V119.553H81.2097V121.176H83.134V121.682H78.7703ZM80.6946 115.569H78.7703V117.065H80.6946V115.569ZM75.2521 120.545V121.439H74.7467V114.189H77.0986V121.215H76.603V120.545H75.2521ZM76.603 120.039V114.694H75.2521V120.039H76.603ZM80.7723 113.314C80.9991 113.878 81.174 114.386 81.2971 114.84L80.8501 115.005C80.6687 114.435 80.4711 113.917 80.2572 113.45L80.7723 113.314ZM84.0864 117.425H92.7847V117.95H84.0864V117.425ZM95.2436 113.363H95.7586V115.258H96.9541V115.773H95.7586V116.589C96.2316 117.082 96.7176 117.652 97.2165 118.3L96.9152 118.747C96.5005 118.118 96.115 117.587 95.7586 117.153V122.197H95.2436V116.949C94.9196 118.005 94.479 118.948 93.9218 119.777L93.6886 119.223C94.4142 118.193 94.9261 117.043 95.2241 115.773H93.9898V115.258H95.2436V113.363ZM98.5965 117.853C98.2726 119.22 97.8125 120.396 97.2165 121.381L96.75 121.089C97.372 120.085 97.8255 118.974 98.1106 117.755L98.5965 117.853ZM101.444 117.707C101.872 118.821 102.241 120.001 102.552 121.245L102.066 121.468C101.749 120.166 101.386 118.967 100.978 117.872L101.444 117.707ZM98.373 122.1L98.2661 121.604C98.6937 121.63 99.0015 121.643 99.1894 121.643C99.468 121.643 99.6073 121.494 99.6073 121.196V116.861H97.1776V116.346H102.581V116.861H100.132V121.322C100.132 121.841 99.8762 122.1 99.3643 122.1H98.373ZM97.683 113.965H102.076V114.48H97.683V113.965ZM107.334 113.975H111.659V118.348H107.334V113.975ZM111.134 117.843V114.49H107.858V117.843H111.134ZM104.544 113.44C105.166 113.926 105.714 114.435 106.187 114.966L105.827 115.326C105.426 114.846 104.872 114.338 104.165 113.8L104.544 113.44ZM103.466 116.366H105.448V120.797C105.792 120.506 106.161 120.156 106.556 119.748L106.702 120.302C106.151 120.865 105.575 121.361 104.972 121.789L104.768 121.313C104.878 121.202 104.933 121.092 104.933 120.982V116.881H103.466V116.366ZM108.86 119.272C108.367 120.412 107.781 121.4 107.1 122.236L106.653 121.915C107.327 121.118 107.907 120.163 108.393 119.048L108.86 119.272ZM110.551 119.019C111.354 120.159 111.95 121.115 112.339 121.886L111.901 122.207C111.454 121.306 110.858 120.334 110.113 119.291L110.551 119.019ZM114.477 120.282C114.866 120.282 115.06 120.551 115.06 121.089C115.06 121.854 114.736 122.414 114.088 122.77L113.884 122.43C114.351 122.119 114.597 121.724 114.623 121.245L114.477 121.254C114.334 121.254 114.215 121.212 114.117 121.128C114.027 121.044 113.981 120.927 113.981 120.778C113.981 120.61 114.027 120.49 114.117 120.418C114.202 120.328 114.321 120.282 114.477 120.282ZM131.154 114.266V121.769H130.639V121.186H128.423V121.769H127.899V114.266H131.154ZM128.423 120.671H130.639V114.791H128.423V120.671ZM125.206 113.372C125.044 114.26 124.931 114.859 124.866 115.17H126.927V115.501C126.81 117.121 126.425 118.504 125.77 119.651C126.405 120.137 126.914 120.561 127.296 120.924L126.936 121.351C126.561 120.989 126.078 120.571 125.488 120.098C124.938 120.908 124.248 121.594 123.418 122.158L123.068 121.73C123.898 121.186 124.568 120.535 125.08 119.777C124.523 119.349 123.959 118.935 123.389 118.533C123.713 117.619 123.992 116.67 124.225 115.685H123V115.17H124.332C124.474 114.496 124.588 113.878 124.672 113.314L125.206 113.372ZM125.352 119.34C125.955 118.284 126.311 117.065 126.421 115.685H124.759C124.52 116.754 124.261 117.649 123.982 118.368C124.559 118.769 125.015 119.093 125.352 119.34ZM136.208 114.179H136.791V121.254H136.208V114.179ZM140.393 116.094C141.132 116.094 141.725 116.359 142.172 116.891C142.58 117.383 142.784 118.002 142.784 118.747C142.784 119.479 142.58 120.094 142.172 120.593C141.718 121.125 141.126 121.39 140.393 121.39C139.661 121.39 139.068 121.125 138.615 120.593C138.207 120.094 138.003 119.479 138.003 118.747C138.003 118.002 138.21 117.383 138.625 116.891C139.059 116.359 139.648 116.094 140.393 116.094ZM140.393 116.599C139.817 116.599 139.366 116.819 139.042 117.26C138.744 117.642 138.595 118.138 138.595 118.747C138.595 119.349 138.744 119.842 139.042 120.224C139.373 120.665 139.823 120.885 140.393 120.885C140.97 120.885 141.424 120.665 141.754 120.224C142.052 119.816 142.201 119.323 142.201 118.747C142.201 118.151 142.052 117.655 141.754 117.26C141.43 116.819 140.976 116.599 140.393 116.599ZM145.886 116.094C146.715 116.094 147.314 116.476 147.684 117.24V116.23H148.267V120.885C148.267 122.505 147.515 123.315 146.012 123.315C145.358 123.315 144.849 123.172 144.486 122.887C144.143 122.615 143.929 122.213 143.845 121.682H144.428C144.499 122.058 144.655 122.336 144.894 122.518C145.154 122.725 145.526 122.829 146.012 122.829C147.126 122.829 147.684 122.203 147.684 120.953V119.991C147.314 120.755 146.715 121.138 145.886 121.138C145.186 121.138 144.625 120.888 144.204 120.389C143.816 119.923 143.621 119.333 143.621 118.62C143.621 117.908 143.816 117.318 144.204 116.852C144.625 116.346 145.186 116.094 145.886 116.094ZM145.954 116.589C145.397 116.589 144.966 116.79 144.661 117.192C144.363 117.555 144.214 118.031 144.214 118.62C144.214 119.191 144.353 119.657 144.632 120.02C144.936 120.428 145.374 120.632 145.944 120.632C146.501 120.632 146.935 120.438 147.246 120.049C147.538 119.68 147.684 119.204 147.684 118.62C147.684 118.037 147.538 117.561 147.246 117.192C146.942 116.79 146.511 116.589 145.954 116.589ZM150.074 114.422C150.21 114.422 150.327 114.471 150.424 114.568C150.521 114.645 150.57 114.759 150.57 114.908C150.57 115.037 150.518 115.154 150.414 115.258C150.311 115.348 150.197 115.394 150.074 115.394C149.932 115.394 149.815 115.348 149.724 115.258C149.627 115.161 149.579 115.044 149.579 114.908C149.579 114.759 149.627 114.645 149.724 114.568C149.815 114.471 149.932 114.422 150.074 114.422ZM149.783 116.23H150.366V121.254H149.783V116.23ZM154.099 116.094C155.343 116.094 155.965 116.784 155.965 118.164V121.254H155.382V118.203C155.382 117.133 154.905 116.599 153.953 116.599C153.551 116.599 153.214 116.745 152.942 117.036C152.657 117.321 152.498 117.717 152.466 118.222V121.254H151.883V116.23H152.466V117.056C152.641 116.758 152.868 116.521 153.146 116.346C153.418 116.178 153.736 116.094 154.099 116.094Z" fill="#7B838B"/>
<path d="M38.7826 149.617H39.5712V151.716H40.8596V152.483H39.5712V153.338C40.0969 153.878 40.6412 154.497 41.204 155.193L40.7486 155.87C40.2895 155.167 39.897 154.608 39.5712 154.193V159.758H38.7826V154.193C38.4272 155.259 37.9718 156.226 37.4164 157.092L37.0721 156.226C37.857 155.152 38.4198 153.904 38.7604 152.483H37.4275V151.716H38.7826V149.617ZM42.7923 154.804C42.4443 156.329 41.9296 157.67 41.2484 158.825L40.5597 158.381C41.2484 157.255 41.7482 156.007 42.0592 154.637L42.7923 154.804ZM46.08 154.582C46.5465 155.833 46.9463 157.174 47.2796 158.603L46.5576 158.925C46.1948 157.392 45.7949 156.022 45.358 154.815L46.08 154.582ZM42.4591 159.647L42.3036 158.903C42.7775 158.932 43.1144 158.947 43.3143 158.947C43.6179 158.947 43.7697 158.784 43.7697 158.458V153.716H41.0596V152.949H47.2907V153.716H44.5694V158.658C44.5694 159.317 44.2436 159.647 43.592 159.647H42.4591ZM41.6482 150.25H46.7131V151.005H41.6482V150.25ZM56.6984 156.159C56.4096 157.092 56.0542 157.921 55.6321 158.647H58.0202V159.391H48.6457V158.647H54.7769C55.199 157.907 55.5803 157.007 55.9209 155.948L56.6984 156.159ZM50.6117 156.081C50.9301 156.666 51.2189 157.359 51.4781 158.158L50.7561 158.347C50.534 157.636 50.2452 156.959 49.8897 156.315L50.6117 156.081ZM53.1775 155.859C53.444 156.533 53.6736 157.27 53.8661 158.07L53.1552 158.258C52.9627 157.481 52.7258 156.759 52.4444 156.092L53.1775 155.859ZM50.4451 154.793H56.2097V155.504H50.4451V154.793ZM50.0008 151.25C49.7046 151.82 49.3788 152.331 49.0234 152.783L48.3347 152.349C49.0234 151.505 49.5232 150.572 49.8342 149.55L50.6117 149.717C50.5525 149.91 50.4562 150.183 50.3229 150.539H53.2441V151.25H51.6447C51.8446 151.687 51.9927 152.049 52.089 152.338L51.3559 152.605C51.2004 152.101 51.0301 151.65 50.845 151.25H50.0008ZM54.6769 151.25C54.4622 151.672 54.2474 152.035 54.0327 152.338L53.3552 151.905C53.8809 151.187 54.2585 150.402 54.4881 149.55L55.2545 149.717C55.1953 149.91 55.1064 150.183 54.9879 150.539H58.2312V151.25H56.4652C56.7095 151.664 56.902 152.061 57.0427 152.438L56.3097 152.705C56.1023 152.186 55.8802 151.701 55.6432 151.25H54.6769ZM53.5773 152.349C54.962 153.364 56.5577 154.16 58.3645 154.737L57.9757 155.426C56.1468 154.804 54.5955 153.997 53.3218 153.005C52.1519 153.93 50.5969 154.734 48.6568 155.415L48.2792 154.726C50.2044 154.075 51.8002 153.282 53.0664 152.349H53.5773Z" fill="#24282C"/>
<rect x="36.6611" y="168.212" width="231.862" height="29.1562" rx="2.77679" fill="#F4F6F8"/>
<path d="M57.2235 179.084V180.921H56.7181V179.579H52.5682V180.959H52.0629V179.084H54.3759C54.2334 178.637 54.0844 178.261 53.9289 177.956L54.4634 177.859C54.6189 178.216 54.7647 178.624 54.9007 179.084H57.2235ZM54.4537 180.318C54.2658 181.024 54.1135 181.556 53.9969 181.912H57.5637V182.408H56.3391C56.1836 183.444 55.824 184.293 55.2603 184.954C56.2128 185.485 56.9806 185.961 57.5637 186.383L57.2235 186.781C56.621 186.353 55.8532 185.867 54.9202 185.323C54.2463 185.952 53.1287 186.451 51.5672 186.82L51.3534 186.324C52.727 186.013 53.7507 185.586 54.4245 185.041C53.8803 184.724 53.2518 184.384 52.5391 184.021C52.8242 183.49 53.0704 182.952 53.2777 182.408H51.8102V181.912H53.4526C53.647 181.329 53.8058 180.778 53.9289 180.26L54.4537 180.318ZM53.822 182.408C53.6276 182.919 53.4105 183.399 53.1708 183.846C53.6567 184.092 54.1978 184.377 54.7938 184.701C55.3251 184.112 55.6718 183.347 55.8337 182.408H53.822ZM48.9917 186.703L48.8751 186.198C49.225 186.224 49.4777 186.237 49.6332 186.237C49.8988 186.237 50.0316 186.097 50.0316 185.819V183.273C49.6688 183.409 49.2444 183.548 48.7585 183.69L48.6224 183.166C49.1278 183.042 49.5975 182.903 50.0316 182.748V180.367H48.8168V179.852H50.0316V177.966H50.5565V179.852H51.5478V180.367H50.5565V182.544C50.9258 182.382 51.2562 182.223 51.5478 182.067V182.602C51.1979 182.783 50.8675 182.936 50.5565 183.059V185.955C50.5565 186.454 50.3103 186.703 49.8178 186.703H48.9917ZM64.3765 177.811H67.4185V178.316H64.9208V183.768H64.3765V177.811ZM70.8006 180.668H74.348V184.06H70.8006V180.668ZM73.8329 183.584V181.144H71.3157V183.584H73.8329ZM76.4181 178.539V186.606H75.8835V186.217H69.2553V186.606H68.7208V178.539H76.4181ZM69.2553 185.731H75.8835V179.025H69.2553V185.731ZM78.3132 179.239H80.636C80.8822 178.688 81.0701 178.238 81.1997 177.888L81.7245 178.005C81.5431 178.465 81.3681 178.876 81.1997 179.239H86.2534V179.764H80.9373C80.4773 180.645 79.9557 181.432 79.3726 182.126H82.1424V180.6H82.6769V182.126H85.7286V182.612H82.6769V184.186H86.4284V184.711H82.6769V186.859H82.1424V184.711H78.1577V184.186H82.1424V182.612H78.8186L78.702 182.126C79.3175 181.491 79.8747 180.704 80.3736 179.764H78.3132V179.239ZM88.1 181.125C88.0806 181.176 88.0514 181.241 88.0125 181.319L87.9153 181.513L87.5071 181.251C87.9866 180.24 88.3365 179.103 88.5568 177.84L89.0621 177.947C88.9974 178.277 88.9131 178.659 88.8095 179.093H90.3936V179.589H88.6637C88.5211 180.069 88.343 180.554 88.1291 181.047H90.3353V181.523H89.4412V182.874H90.4811V183.36H89.4412V185.799C89.8299 185.605 90.1928 185.375 90.5297 185.109L90.6074 185.566C90.128 185.929 89.5708 186.233 88.9358 186.48L88.7317 186.033C88.8743 185.974 88.9455 185.893 88.9455 185.79V183.36H87.8084V182.874H88.9455V181.523H88.1V181.125ZM95.8361 181.922H94.4658V182.787H95.9722V183.214H94.4658V184.108H96.2054V184.555H94.4658V185.634H93.9896V184.555H92.5998V184.108H93.9896V183.214H92.8427V182.787H93.9896V181.922H92.9496V181.484H93.9896V180.58H92.6386V180.133H93.9896V179.191H92.9594V178.753H93.9896V177.986H94.4658V178.753H95.8361V180.133H96.3415V180.58H95.8361V181.922ZM94.4658 179.191V180.133H95.3793V179.191H94.4658ZM94.4658 180.58V181.484H95.3793V180.58H94.4658ZM94.9809 186.14C95.6029 186.14 96.1018 186.133 96.4776 186.12L96.3706 186.616H95.253C93.8535 186.616 92.9108 186.441 92.4248 186.091C92.1657 185.922 91.9389 185.722 91.7445 185.488C91.5178 185.981 91.2424 186.395 90.9184 186.732L90.5588 186.383C90.9217 186 91.21 185.556 91.4238 185.051C91.0674 184.487 90.7888 183.788 90.588 182.952L90.9962 182.806C91.1387 183.467 91.3461 184.037 91.6182 184.517C91.8449 183.784 91.9778 182.945 92.0166 181.999H90.831V181.611C91.2586 180.885 91.6344 180.133 91.9583 179.356H90.7241V178.889H92.4443V179.336C92.0944 180.198 91.7445 180.937 91.3946 181.552H92.4637V181.844C92.4378 183.062 92.2661 184.115 91.9486 185.002C92.2207 185.352 92.5285 185.611 92.8719 185.78C93.3319 186 94.0349 186.12 94.9809 186.14ZM99.6556 180.93H100.2V186.888H97.1579V186.383H99.6556V180.93ZM107.654 180.911H111.114V183.797H107.654V180.911ZM110.599 183.311V181.407H108.189V183.311H110.599ZM111.464 185.012C110.155 185.381 108.765 185.68 107.295 185.906L107.168 185.372C108.645 185.184 110.077 184.896 111.464 184.507V185.012ZM114.759 186.771C114.286 186.752 113.835 186.438 113.408 185.829C113.252 185.615 113.123 185.385 113.019 185.139C112.449 185.845 111.83 186.399 111.163 186.8L110.861 186.353C111.574 185.926 112.215 185.336 112.786 184.585C112.65 184.222 112.53 183.804 112.426 183.331C112.219 182.327 112.112 181.138 112.105 179.764H107.149V179.239H112.105V177.937H112.63V179.239H114.253C114.072 178.831 113.877 178.478 113.67 178.18L114.195 178.092C114.389 178.423 114.58 178.805 114.768 179.239H115.73V179.764H112.63C112.65 181.06 112.744 182.161 112.912 183.068C112.983 183.431 113.064 183.758 113.155 184.05C113.732 183.136 114.221 182.019 114.622 180.697L115.089 180.95C114.622 182.433 114.049 183.671 113.369 184.662C113.466 184.921 113.589 185.177 113.738 185.43C114.088 185.948 114.409 186.208 114.7 186.208C114.972 186.208 115.206 185.624 115.4 184.458L115.837 184.75C115.591 186.097 115.232 186.771 114.759 186.771ZM122.689 177.811H125.731V178.316H123.233V183.768H122.689V177.811ZM127.578 182.942H134.196V183.447H131.144V185.955H135.003V186.47H126.771V185.955H130.61V183.447H127.578V182.942ZM131.747 180.172C132.771 180.645 133.704 181.228 134.546 181.922L134.254 182.369C133.341 181.598 132.411 181.002 131.465 180.58L131.747 180.172ZM130.124 180.619C129.385 181.319 128.446 181.896 127.305 182.349L127.062 181.873C128.151 181.458 129.061 180.917 129.793 180.25L130.124 180.619ZM130.833 177.879C130.989 178.228 131.118 178.585 131.222 178.948H134.964V180.823H134.439V179.443H127.335V180.814H126.81V178.948H130.697C130.548 178.559 130.406 178.235 130.27 177.976L130.833 177.879ZM138.181 186.762H137.666V181.552C137.348 182.576 136.911 183.503 136.354 184.332L136.13 183.778C136.849 182.787 137.355 181.662 137.646 180.405H136.315V179.89H137.666V177.937H138.181V179.89H139.308V180.405H138.181V180.989C138.621 181.494 139.042 182.029 139.444 182.592L139.337 182.748C140.296 182.372 141.138 181.912 141.864 181.368C141.398 180.927 141.009 180.461 140.698 179.968C140.406 180.37 140.105 180.726 139.794 181.037L139.464 180.639C140.202 179.92 140.785 179.009 141.213 177.908L141.728 178.034C141.657 178.209 141.537 178.478 141.368 178.841H144.187V179.249C143.811 180.052 143.286 180.762 142.612 181.377C143.306 181.915 144.119 182.359 145.052 182.709L144.819 183.195C143.795 182.754 142.936 182.255 142.243 181.698C141.485 182.301 140.565 182.816 139.483 183.243L139.23 182.903L139.143 183.03C138.748 182.388 138.427 181.899 138.181 181.562V186.762ZM144.206 183.224V186.771H143.691V186.314H140.688V186.771H140.173V183.224H144.206ZM140.688 185.809H143.691V183.72H140.688V185.809ZM142.224 181.066C142.813 180.548 143.28 179.971 143.623 179.336H141.106L140.97 179.56C141.294 180.124 141.712 180.626 142.224 181.066ZM146.412 181.125C146.393 181.176 146.364 181.241 146.325 181.319L146.228 181.513L145.82 181.251C146.299 180.24 146.649 179.103 146.869 177.84L147.375 177.947C147.31 178.277 147.226 178.659 147.122 179.093H148.706V179.589H146.976C146.834 180.069 146.655 180.554 146.442 181.047H148.648V181.523H147.754V182.874H148.794V183.36H147.754V185.799C148.142 185.605 148.505 185.375 148.842 185.109L148.92 185.566C148.44 185.929 147.883 186.233 147.248 186.48L147.044 186.033C147.187 185.974 147.258 185.893 147.258 185.79V183.36H146.121V182.874H147.258V181.523H146.412V181.125ZM154.149 181.922H152.778V182.787H154.285V183.214H152.778V184.108H154.518V184.555H152.778V185.634H152.302V184.555H150.912V184.108H152.302V183.214H151.155V182.787H152.302V181.922H151.262V181.484H152.302V180.58H150.951V180.133H152.302V179.191H151.272V178.753H152.302V177.986H152.778V178.753H154.149V180.133H154.654V180.58H154.149V181.922ZM152.778 179.191V180.133H153.692V179.191H152.778ZM152.778 180.58V181.484H153.692V180.58H152.778ZM153.293 186.14C153.915 186.14 154.414 186.133 154.79 186.12L154.683 186.616H153.565C152.166 186.616 151.223 186.441 150.737 186.091C150.478 185.922 150.251 185.722 150.057 185.488C149.83 185.981 149.555 186.395 149.231 186.732L148.871 186.383C149.234 186 149.522 185.556 149.736 185.051C149.38 184.487 149.101 183.788 148.9 182.952L149.309 182.806C149.451 183.467 149.659 184.037 149.931 184.517C150.157 183.784 150.29 182.945 150.329 181.999H149.143V181.611C149.571 180.885 149.947 180.133 150.271 179.356H149.037V178.889H150.757V179.336C150.407 180.198 150.057 180.937 149.707 181.552H150.776V181.844C150.75 183.062 150.579 184.115 150.261 185.002C150.533 185.352 150.841 185.611 151.184 185.78C151.644 186 152.347 186.12 153.293 186.14ZM157.968 180.93H158.512V186.888H155.47V186.383H157.968V180.93ZM168.989 178.394C168.529 179.236 168.069 179.916 167.609 180.435C167.071 181.031 166.417 181.591 165.646 182.116L165.345 181.649C166.044 181.248 166.666 180.729 167.211 180.094C167.722 179.511 168.166 178.854 168.542 178.122L168.989 178.394ZM166.734 182.349V181.854H172.536C172.511 183.039 172.452 184.001 172.362 184.74C172.264 185.466 172.109 185.974 171.895 186.266C171.681 186.551 171.335 186.703 170.855 186.723H169.038L168.902 186.217C169.705 186.23 170.272 186.237 170.602 186.237C171.14 186.237 171.497 186 171.672 185.527C171.84 185.041 171.953 183.982 172.012 182.349H169.242C169.009 183.464 168.685 184.338 168.27 184.973C167.797 185.641 167.084 186.246 166.132 186.791L165.801 186.373C166.67 185.893 167.33 185.356 167.784 184.759C168.212 184.157 168.523 183.353 168.717 182.349H166.734ZM171.118 178.015C171.688 179.518 172.702 180.707 174.16 181.581L173.8 181.99C172.303 181.037 171.26 179.796 170.67 178.267L171.118 178.015ZM178.426 178.384H183.781V178.87H178.426V178.384ZM178.97 179.609H183.159V181.562H178.97V179.609ZM182.663 181.134V180.046H179.466V181.134H182.663ZM179.447 184.487H181.206C181.419 184.027 181.604 183.538 181.76 183.02L182.216 183.185C182.067 183.632 181.886 184.066 181.672 184.487H182.566V184.934H181.254V186.742H180.768V184.934H179.447V184.487ZM180.137 183.088C180.344 183.431 180.522 183.797 180.671 184.186L180.263 184.293C180.107 183.891 179.929 183.538 179.728 183.234L180.137 183.088ZM182.071 186.742L181.935 186.266L182.722 186.285C182.949 186.285 183.062 186.169 183.062 185.935V182.738H178.961V186.791H178.475V182.281H183.548V186.033C183.548 186.506 183.328 186.742 182.887 186.742H182.071ZM175.51 178.384H178.057V178.792C177.843 179.673 177.574 180.623 177.25 181.64C177.678 182.476 177.911 183.26 177.95 183.992C177.943 184.355 177.859 184.627 177.697 184.808C177.47 185.009 177.075 185.113 176.511 185.119L176.346 184.594C176.463 184.614 176.557 184.623 176.628 184.623C176.952 184.604 177.166 184.546 177.27 184.448C177.38 184.358 177.435 184.206 177.435 183.992C177.435 183.318 177.195 182.56 176.716 181.718C177.065 180.674 177.338 179.725 177.532 178.87H176.016V186.8H175.51V178.384Z" fill="#7B838B"/>
<line x1="44.6449" y1="176.195" x2="44.645" y2="189.385" stroke="#7B838B" stroke-width="0.694196" stroke-linecap="round"/>
<path d="M38.7271 221.119C39.86 220.46 40.9559 219.627 42.0148 218.62V216.721C43.1181 216.173 43.9548 215.718 44.525 215.355H38.8492V214.6H45.7246V215.355C44.8656 215.947 43.8771 216.551 42.759 217.165V218.865C43.7364 219.546 44.7138 220.305 45.6912 221.142L45.2247 221.841C44.2769 220.923 43.455 220.198 42.759 219.664V221.53C42.759 222.182 42.4554 222.508 41.8482 222.508H40.8374L40.6375 221.764C41.0077 221.778 41.315 221.786 41.5594 221.786C41.863 221.786 42.0148 221.608 42.0148 221.253V219.531C41.0596 220.434 40.0562 221.223 39.0047 221.897L38.7271 221.119ZM45.9134 216.621H46.6798V224.385H45.9134V223.763H38.516V224.374H37.7496V216.61H38.516V223.03H45.9134V216.621ZM39.7156 216.965C40.4116 217.61 40.9337 218.15 41.2817 218.587L40.6708 219.009C40.3228 218.535 39.8082 217.976 39.1269 217.332L39.7156 216.965ZM45.4136 217.199C44.9767 217.902 44.4509 218.52 43.8363 219.053L43.2588 218.643C43.8438 218.146 44.3473 217.561 44.7693 216.888L45.4136 217.199ZM55.0768 216.643C55.0027 216.91 54.9509 217.106 54.9213 217.232C55.1953 218.491 55.5581 219.598 56.0098 220.553C56.4393 219.427 56.6762 218.124 56.7206 216.643H55.0768ZM55.6432 221.375C55.2064 220.501 54.8398 219.52 54.5436 218.431C54.3511 218.92 54.1327 219.376 53.8883 219.798L53.3885 219.187C54.0475 217.935 54.4881 216.258 54.7102 214.155L55.4877 214.289C55.4359 214.748 55.3545 215.277 55.2434 215.877H58.1757V216.643H57.4537C57.4093 218.494 57.0798 220.079 56.4652 221.397C57.0501 222.375 57.7351 223.126 58.52 223.652L58.0646 224.329C57.3019 223.796 56.6392 223.067 56.0764 222.141C55.5359 223.03 54.8472 223.774 54.0105 224.374L53.5884 223.696C54.4548 223.096 55.1397 222.323 55.6432 221.375ZM51.1448 219.42L50.9227 220.031H53.233V220.708C52.9886 221.434 52.5851 222.064 52.0223 222.597C52.548 222.819 53.0479 223.063 53.5218 223.33L53.0886 223.974C52.5777 223.67 52.0149 223.382 51.4003 223.108C50.6524 223.619 49.7268 224.029 48.6235 224.34L48.2348 223.652C49.1604 223.407 49.9379 223.104 50.5673 222.741L49.0234 222.119C49.3344 221.608 49.5861 221.153 49.7787 220.753H48.4791V220.031H50.1119C50.297 219.513 50.3822 219.279 50.3673 219.331L51.1448 219.42ZM51.2559 222.275C51.8113 221.823 52.2185 221.316 52.4777 220.753H50.6006C50.4155 221.131 50.2155 221.482 50.0008 221.808C50.4451 221.964 50.8635 222.119 51.2559 222.275ZM49.3566 214.422C49.6454 214.873 49.8823 215.329 50.0675 215.788L49.4455 216.077C49.2159 215.551 48.9641 215.073 48.6902 214.644L49.3566 214.422ZM53.3441 214.655C53.1145 215.159 52.8294 215.64 52.4888 216.099L51.889 215.777C52.2445 215.273 52.5184 214.796 52.711 214.344L53.3441 214.655ZM48.5125 216.31H50.6783V214.189H51.4225V216.31H53.444V217.01H51.4225V217.132C52.0297 217.436 52.6443 217.776 53.2663 218.154L52.8553 218.776C52.3 218.332 51.8224 217.976 51.4225 217.71V219.153H50.6783V217.043C50.3155 217.909 49.6528 218.668 48.6902 219.32L48.3014 218.676C49.1604 218.172 49.7565 217.617 50.0897 217.01H48.5125V216.31ZM69.0496 217.954V224.34H68.2721V223.874H64.2846V224.34H63.5071V217.954H69.0496ZM64.2846 223.13H65.9173V221.297H64.2846V223.13ZM66.6504 223.13H68.2721V221.297H66.6504V223.13ZM64.2846 220.575H65.9173V218.698H64.2846V220.575ZM66.6504 218.698V220.575H68.2721V218.698H66.6504ZM59.6973 224.218L59.5307 223.452C59.8862 223.489 60.1935 223.507 60.4526 223.507C60.7266 223.507 60.8636 223.359 60.8636 223.063V220.331C60.4489 220.486 59.9787 220.653 59.453 220.831L59.2531 220.031C59.8158 219.883 60.3527 219.712 60.8636 219.52V216.976H59.4641V216.199H60.8636V214.166H61.6633V216.199H62.7407V216.976H61.6633V219.198C62.0484 219.028 62.4593 218.82 62.8962 218.576V219.376C62.5334 219.576 62.1224 219.779 61.6633 219.986V223.263C61.6633 223.9 61.3523 224.218 60.7303 224.218H59.6973ZM64.5401 214.2H65.2953V215.466H67.228V214.2H67.9833V215.466H69.4494V216.21H67.9833V217.454H67.228V216.21H65.2953V217.443H64.5401V216.21H63.0739V215.466H64.5401V214.2ZM78.1019 217.71C79.146 219.102 79.9346 220.297 80.4677 221.297L79.8124 221.764C79.2496 220.668 78.4832 219.442 77.5132 218.087L78.1019 217.71ZM71.3376 214.355C72.1299 214.955 72.7705 215.529 73.2592 216.077L72.6927 216.643C72.2188 216.088 71.582 215.499 70.7823 214.877L71.3376 214.355ZM77.8797 224.163C77.5095 224.163 76.8579 224.155 75.9249 224.141C75.214 224.126 74.6365 224.059 74.1922 223.941C73.7553 223.807 73.3665 223.537 73.0259 223.13C72.8704 222.945 72.726 222.852 72.5927 222.852C72.3336 222.852 71.8967 223.363 71.2821 224.385L70.6823 223.841C71.2747 222.908 71.7967 222.341 72.2484 222.141V218.765H70.6601V218.032H72.9926V222.186C73.074 222.245 73.1629 222.33 73.2592 222.441C73.5331 222.767 73.8182 223 74.1144 223.141C74.455 223.296 74.9512 223.385 75.6028 223.407C76.3729 223.422 77.0948 223.43 77.7687 223.43C78.1019 223.43 78.6313 223.422 79.357 223.407C79.9568 223.393 80.3677 223.378 80.5899 223.363L80.4011 224.163H77.8797ZM73.6368 217.032V216.288H76.6357V214.244H77.4132V216.288H80.4011V217.032H77.4132V222.874H76.6357V217.654C75.9249 219.32 75.0511 220.712 74.0145 221.83L73.4813 221.208C74.5624 220.12 75.451 218.728 76.147 217.032H73.6368ZM78.9793 214.189C79.3348 214.662 79.6458 215.173 79.9123 215.721L79.2792 216.01C79.0053 215.425 78.6869 214.888 78.324 214.4L78.9793 214.189Z" fill="#24282C"/>
<rect x="36.8389" y="235.582" width="231.862" height="29.1562" rx="2.77679" fill="#F4F6F8"/>
<path d="M47.039 251.498C48.0692 250.863 49.0476 250.092 49.9741 249.185V247.514C51.0302 246.976 51.8012 246.545 52.2872 246.221H47.1459V245.725H53.0938V246.221C52.2774 246.791 51.4028 247.319 50.4698 247.805V249.399C51.2861 249.976 52.1608 250.669 53.0938 251.479L52.7925 251.936C51.9049 251.093 51.1306 250.423 50.4698 249.924V251.751C50.4698 252.282 50.2268 252.548 49.7409 252.548H48.8662L48.7301 252.042C49.067 252.055 49.3424 252.062 49.5562 252.062C49.8348 252.062 49.9741 251.9 49.9741 251.576V249.788C49.1318 250.624 48.215 251.362 47.2237 252.004L47.039 251.498ZM53.4145 247.446H53.9199V254.181H53.4145V253.597H46.728V254.171H46.2227V247.436H46.728V253.092H53.4145V247.446ZM47.8263 247.757C48.4483 248.32 48.9083 248.796 49.2063 249.185L48.8176 249.467C48.4936 249.039 48.0304 248.55 47.4278 247.999L47.8263 247.757ZM52.8023 247.883C52.4265 248.485 51.9664 249.023 51.4222 249.496L51.0334 249.224C51.5583 248.777 52.0021 248.259 52.3649 247.669L52.8023 247.883ZM61.2673 247.358C61.2025 247.617 61.1507 247.808 61.1118 247.931C61.371 249.124 61.7176 250.164 62.1517 251.051C62.5858 249.982 62.8126 248.751 62.832 247.358H61.2673ZM61.899 251.586C61.4843 250.795 61.1377 249.853 60.8591 248.758C60.6712 249.263 60.4574 249.726 60.2177 250.147L59.8872 249.739C60.4768 248.638 60.8785 247.147 61.0924 245.269L61.6172 245.366C61.5524 245.871 61.4746 246.363 61.3839 246.843H64.0274V247.358H63.3374C63.2985 249.036 63.0037 250.455 62.453 251.615C62.9713 252.515 63.5901 253.209 64.3093 253.695L64.008 254.142C63.3017 253.643 62.6959 252.963 62.1906 252.101C61.6982 252.943 61.0794 253.63 60.3343 254.161L60.0427 253.714C60.8267 253.157 61.4455 252.447 61.899 251.586ZM57.2923 249.817L57.7977 249.875L57.5644 250.478H59.6443V250.925C59.411 251.605 59.0223 252.188 58.478 252.674C58.9575 252.875 59.4434 253.115 59.9358 253.393L59.6443 253.811C59.1907 253.546 58.6627 253.28 58.0601 253.014C57.4057 253.487 56.5926 253.863 55.6207 254.142L55.3583 253.695C56.2135 253.461 56.936 253.154 57.5256 252.771C57.1109 252.59 56.6412 252.402 56.1164 252.208C56.3885 251.767 56.6217 251.349 56.8161 250.954H55.5818V250.478H57.0396L57.2923 249.817ZM57.9629 252.46C58.4877 252.026 58.8797 251.524 59.1389 250.954H57.3506C57.1887 251.297 56.9943 251.644 56.7675 251.994C57.1757 252.13 57.5742 252.285 57.9629 252.46ZM56.2524 245.541C56.4986 245.916 56.7092 246.321 56.8841 246.755L56.4662 246.94C56.2719 246.493 56.0516 246.075 55.8054 245.686L56.2524 245.541ZM59.7414 245.657C59.5535 246.098 59.3009 246.529 58.9834 246.95L58.5849 246.746C58.8959 246.292 59.1356 245.861 59.3041 245.453L59.7414 245.657ZM55.611 247.212H57.5353V245.317H58.0309V247.212H59.8678V247.688H58.0309V247.805C58.6335 248.136 59.1907 248.479 59.7026 248.835L59.4207 249.253C58.8894 248.819 58.4262 248.469 58.0309 248.204V249.603H57.5353V247.688H57.5061C57.1951 248.472 56.5958 249.153 55.7082 249.729L55.436 249.292C56.2589 248.826 56.8161 248.291 57.1077 247.688H55.611V247.212ZM73.474 248.641V254.142H72.9687V253.714H69.2853V254.142H68.7799V248.641H73.474ZM69.2853 253.228H70.8791V251.44H69.2853V253.228ZM71.3845 253.228H72.9687V251.44H71.3845V253.228ZM69.2853 250.964H70.8791V249.137H69.2853V250.964ZM71.3845 249.137V250.964H72.9687V249.137H71.3845ZM65.3686 254.035L65.252 253.529C65.5565 253.549 65.8416 253.559 66.1072 253.559C66.3534 253.559 66.4765 253.426 66.4765 253.16V250.526C65.9582 250.727 65.5111 250.886 65.1354 251.003L64.9993 250.478C65.5176 250.335 66.01 250.18 66.4765 250.011V247.63H65.1839V247.115H66.4765V245.288H67.0014V247.115H68.0121V247.63H67.0014V249.788C67.429 249.587 67.8177 249.389 68.1676 249.195V249.729C67.8372 249.911 67.4484 250.102 67.0014 250.303V253.296C67.0014 253.789 66.7649 254.035 66.2919 254.035H65.3686ZM69.6837 245.327H70.1891V246.483H72.0357V245.327H72.541V246.483H73.8725V246.979H72.541V248.136H72.0357V246.979H70.1891V248.126H69.6837V246.979H68.3523V246.483H69.6837V245.327ZM81.3754 248.369C82.2825 249.561 82.9952 250.633 83.5135 251.586L83.0762 251.897C82.5902 250.944 81.8937 249.849 80.9866 248.612L81.3754 248.369ZM75.4761 245.502C76.1435 246.001 76.7136 246.5 77.1866 246.998L76.8173 247.377C76.3832 246.885 75.813 246.376 75.1068 245.852L75.4761 245.502ZM81.2976 253.986C80.9737 253.986 80.397 253.98 79.5677 253.967C78.9263 253.947 78.4241 253.886 78.0613 253.782C77.6725 253.659 77.3291 253.419 77.0311 253.063C76.908 252.894 76.7849 252.81 76.6618 252.81C76.3961 252.81 75.9815 253.261 75.4178 254.161L75.0193 253.811C75.57 252.963 76.0398 252.47 76.4285 252.334V249.224H74.9902V248.719H76.9242V252.353C77.0408 252.425 77.1412 252.515 77.2255 252.626C77.4717 252.917 77.7373 253.131 78.0224 253.267C78.3334 253.384 78.774 253.452 79.3442 253.471C79.9921 253.484 80.6173 253.491 81.2199 253.491H82.5611L83.601 253.452L83.4746 253.986H81.2976ZM77.5948 247.698V247.203H80.2674V245.366H80.7923V247.203H83.4649V247.698H80.7923V252.898H80.2674V247.99C79.639 249.558 78.8129 250.883 77.7892 251.965L77.449 251.557C78.4662 250.533 79.2826 249.247 79.8981 247.698H77.5948ZM82.1432 245.317C82.4801 245.758 82.7684 246.214 83.0081 246.687L82.5902 246.872C82.3181 246.334 82.0233 245.865 81.7058 245.463L82.1432 245.317Z" fill="#7B838B"/>
<rect x="189.385" y="292.506" width="79.1384" height="24.9911" rx="12.4955" fill="#38AFD4"/>
<g clip-path="url(#clip0_409_6841)">
<path d="M211.174 305.531H207.207V309.498H205.885V305.531H201.918V304.208H205.885V300.242H207.207V304.208H211.174V305.531Z" fill="#FEFEFE"/>
</g>
<path d="M226.823 300.781C225.948 301.118 224.999 301.315 223.975 301.374V303.143H227.153V303.813H226.103V309.003H225.413V303.813H223.975V304.97C223.923 306.648 223.551 307.979 222.857 308.964L222.362 308.439C222.938 307.604 223.249 306.447 223.295 304.97V300.81C224.454 300.791 225.514 300.574 226.473 300.159L226.823 300.781ZM218.377 300.907H220.253C220.091 300.583 219.922 300.301 219.747 300.062L220.467 299.945C220.622 300.237 220.778 300.557 220.933 300.907H222.76V301.549H218.377V300.907ZM218.28 303.113H219.397C219.255 302.731 219.083 302.365 218.882 302.015L219.504 301.792C219.699 302.167 219.87 302.608 220.019 303.113H221.089C221.27 302.712 221.438 302.265 221.594 301.772L222.226 301.986C222.057 302.433 221.889 302.809 221.72 303.113H222.818V303.745H220.943V304.834H222.653V305.475H220.943V308.187C220.943 308.737 220.661 309.013 220.097 309.013H219.572L219.427 308.362C219.602 308.394 219.747 308.41 219.864 308.41C220.117 308.41 220.243 308.281 220.243 308.021V305.475H218.435V304.834H220.243V303.745H218.28V303.113ZM219.757 306.136C219.511 307.101 219.158 307.957 218.698 308.702L218.115 308.332C218.568 307.639 218.902 306.862 219.116 306L219.757 306.136ZM221.905 305.932C222.216 306.606 222.443 307.182 222.585 307.662L222.002 307.885C221.808 307.244 221.581 306.645 221.322 306.087L221.905 305.932ZM235.997 304.046H233.917V304.824H236.191V305.397H233.917V306.204H236.473V306.797H233.917V307.759H233.237V306.797H231.031V306.204H233.237V305.397H231.332V304.824H233.237V304.046H231.536V303.463H233.237V302.686H231.06V302.103H233.237V301.335H231.536V300.752H233.237V300.042H233.917V300.752H235.997V302.103H236.648V302.686H235.997V304.046ZM233.917 301.335V302.103H235.317V301.335H233.917ZM233.917 302.686V303.463H235.317V302.686H233.917ZM233.461 308.109C234.406 308.109 235.505 308.093 236.755 308.06L236.639 308.731H233.762C232.012 308.731 230.759 308.478 230.001 307.973C229.858 307.863 229.748 307.769 229.67 307.691C229.366 308.138 228.983 308.537 228.523 308.886L228.067 308.294C228.514 307.97 228.896 307.581 229.213 307.127C228.831 306.577 228.523 305.887 228.29 305.057L228.873 304.843C229.061 305.517 229.288 306.078 229.554 306.525C229.884 305.831 230.078 305.025 230.137 304.105H228.339V303.561C228.922 302.815 229.44 302.038 229.894 301.228H228.3V300.567H230.681V301.141C230.234 301.963 229.754 302.738 229.243 303.463H230.768V303.881C230.73 305.151 230.474 306.24 230.001 307.147C230.156 307.309 230.315 307.438 230.477 307.535C231.125 307.898 232.119 308.089 233.461 308.109ZM239.389 307.876H243.442C244.044 306.489 244.569 304.782 245.016 302.754L245.706 302.939C245.285 304.83 244.783 306.476 244.2 307.876H246.25V308.556H239.389V307.876ZM240.448 303.23C240.831 304.247 241.18 305.436 241.498 306.797L240.837 306.962C240.565 305.699 240.231 304.519 239.836 303.424L240.448 303.23ZM242.324 302.54C242.648 303.596 242.949 304.824 243.228 306.223L242.557 306.379C242.343 305.116 242.062 303.901 241.712 302.734L242.324 302.54ZM242.334 299.984C242.522 300.295 242.693 300.632 242.849 300.995H246.406V301.675H239.204V303.842C239.165 305.987 238.832 307.697 238.203 308.974L237.63 308.459C238.181 307.338 238.466 305.799 238.485 303.842V300.995H242.091C241.935 300.684 241.76 300.392 241.566 300.12L242.334 299.984ZM249.011 303.454V305.154H251.479V303.454H249.011ZM248.972 305.796C248.862 307.046 248.499 308.076 247.883 308.886L247.349 308.41C247.971 307.542 248.291 306.444 248.311 305.116V300.451H255.551V307.73C255.551 308.41 255.211 308.75 254.531 308.75H253.413L253.228 308.06C253.747 308.086 254.106 308.099 254.307 308.099C254.664 308.099 254.842 307.895 254.842 307.487V305.796H252.198V308.643H251.479V305.796H248.972ZM254.842 305.154V303.454H252.198V305.154H254.842ZM254.842 302.802V301.131H252.198V302.802H254.842ZM251.479 301.131H249.011V302.802H251.479V301.131Z" fill="#FEFEFE"/>
</g>
<defs>
<filter id="filter0_d_409_6841" x="0" y="0.975189" width="410.701" height="353.183" filterUnits="userSpaceOnUse" color-interpolation-filters="sRGB">
<feFlood flood-opacity="0" result="BackgroundImageFix"/>
<feColorMatrix in="SourceAlpha" type="matrix" values="0 0 0 0 0 0 0 0 0 0 0 0 0 0 0 0 0 0 127 0" result="hardAlpha"/>
<feOffset/>
<feGaussianBlur stdDeviation="10"/>
<feComposite in2="hardAlpha" operator="out"/>
<feColorMatrix type="matrix" values="0 0 0 0 0.631373 0 0 0 0 0.811765 0 0 0 0 0.941176 0 0 0 0.21 0"/>
<feBlend mode="normal" in2="BackgroundImageFix" result="effect1_dropShadow_409_6841"/>
<feBlend mode="normal" in="SourceGraphic" in2="effect1_dropShadow_409_6841" result="shape"/>
</filter>
<clipPath id="clip0_409_6841">
<rect width="11.1071" height="11.1071" fill="white" transform="translate(201.124 299.448)"/>
</clipPath>
</defs>
</svg>
