<svg width="21" height="22" viewBox="0 0 21 22" fill="none" xmlns="http://www.w3.org/2000/svg">
<path fill-rule="evenodd" clip-rule="evenodd" d="M15.4406 5.79061C15.6502 6.00019 15.6502 6.33999 15.4406 6.54957L6.04896 15.9412C5.83938 16.1508 5.49958 16.1508 5.29 15.9412C5.08042 15.7317 5.08042 15.3919 5.29 15.1823L14.6817 5.79061C14.8912 5.58103 15.231 5.58103 15.4406 5.79061Z" fill="#377ADF"/>
<path fill-rule="evenodd" clip-rule="evenodd" d="M5.29 5.79061C5.49958 5.58103 5.83938 5.58103 6.04896 5.79061L15.4406 15.1823C15.6502 15.3919 15.6502 15.7317 15.4406 15.9412C15.231 16.1508 14.8912 16.1508 14.6817 15.9412L5.29 6.54957C5.08042 6.33999 5.08042 6.00019 5.29 5.79061Z" fill="#377ADF"/>
</svg>
