<svg width="88" height="88" viewBox="0 0 88 88" fill="none" xmlns="http://www.w3.org/2000/svg">
<g opacity="0.64">
<path d="M81.8478 35.2457L59.7268 13.1248C58.003 11.4009 55.208 11.4009 53.4841 13.1248L18.344 48.2649C16.6201 49.9888 16.6201 52.7837 18.344 54.5076L40.4649 76.6285C42.1888 78.3524 44.9837 78.3524 46.7076 76.6285L81.8477 41.4884C83.5716 39.7645 83.5716 36.9696 81.8478 35.2457Z" fill="#C3D7FE"/>
<path d="M70.294 31.8528L67.0569 28.6157C62.7322 30.8932 57.627 30.5093 54.3899 27.3362C51.1528 24.163 50.7817 18.9939 53.1104 14.6692L49.8733 11.4449C47.0456 8.60437 42.1195 8.88586 38.8696 12.187L5.71787 45.2364C2.48074 48.4735 2.14809 53.4123 4.97578 56.24L8.2129 59.4772C12.5376 57.1997 17.6428 57.5835 20.8671 60.7567C24.0914 63.9298 24.4753 69.099 22.2106 73.4237L25.4349 76.648C28.2754 79.4885 33.2015 79.207 36.4386 75.9059L69.5392 42.8053C72.7891 39.6194 73.1217 34.6805 70.294 31.8528Z" stroke="#61BEDC" stroke-width="2.8" stroke-linecap="round" stroke-linejoin="round"/>
<path d="M51.6401 38.7366L39.8304 42.396L39.293 41.8714L42.9523 30.0488" stroke="#61BEDC" stroke-width="2.8" stroke-linecap="round" stroke-linejoin="round"/>
<path d="M33.7266 36.3054L45.3828 47.9488" stroke="#61BEDC" stroke-width="2.8" stroke-linecap="round" stroke-linejoin="round"/>
<path d="M30.6582 42.9329L38.7574 51.0321" stroke="#61BEDC" stroke-width="2.8" stroke-linecap="round" stroke-linejoin="round"/>
<path d="M27.9805 53.7066L39.5599 42.1272" stroke="#61BEDC" stroke-width="2.8" stroke-linecap="round" stroke-linejoin="round"/>
</g>
</svg>
