<svg width="271" height="254" viewBox="0 0 271 254" fill="none" xmlns="http://www.w3.org/2000/svg">
<g clip-path="url(#clip0_409_7066)">
<path d="M208.052 34.6854C204.598 39.1273 200.597 53.2632 209.981 55.9095C216.186 57.6574 221.106 54.2419 224.303 46.375C227.624 38.226 224.709 32.209 219.503 31.1053C214.297 30.0016 211.109 30.7292 208.052 34.6854Z" stroke="#E1F3F8" stroke-opacity="0.2" stroke-width="0.4" stroke-miterlimit="10"/>
<path d="M204.866 56.8778C207.774 58.9056 209.421 61.4713 213.403 61.1767C219.479 60.7237 223.913 56.1495 227.757 47.6505C232.922 36.3258 227.534 27.0399 219.901 24.9339C212.268 22.8279 207.636 23.7742 203.117 29.6753C198.767 35.3232 196.211 50.8173 204.866 56.8778Z" stroke="#E1F3F8" stroke-opacity="0.2" stroke-width="0.4" stroke-miterlimit="10"/>
<path d="M199.744 57.8343C203.142 61.4287 204.092 66.4787 210.005 66.7887C219.073 67.2601 225.402 61.1983 231.222 48.9276C238.106 34.3838 230.308 21.881 220.302 18.7524C210.493 15.7115 204.161 16.8288 198.193 24.657C192.947 31.5109 191.684 49.2909 199.744 57.8343Z" stroke="#E1F3F8" stroke-opacity="0.2" stroke-width="0.4" stroke-miterlimit="10"/>
<path d="M194.63 58.8025C198.391 64.0515 198.753 71.4842 206.609 72.4007C218.734 73.8191 226.882 66.2452 234.682 50.1735C243.309 32.4553 233.113 16.7178 220.705 12.5611C208.599 8.53192 200.694 9.8441 193.259 19.6467C187.118 27.6968 186.917 48.0756 194.63 58.8025Z" stroke="#E1F3F8" stroke-opacity="0.2" stroke-width="0.4" stroke-miterlimit="10"/>
<path d="M189.535 59.7744C193.608 66.7296 193.454 76.4971 203.239 78.0281C218.385 80.3764 228.381 71.2959 238.173 51.4758C248.526 30.4992 235.942 11.5897 221.151 6.40859C206.757 1.39296 197.267 2.96879 188.393 14.6493C181.301 23.8747 181.987 46.9624 189.535 59.7744Z" stroke="#E1F3F8" stroke-opacity="0.2" stroke-width="0.4" stroke-miterlimit="10"/>
<path d="M184.391 60.7372C188.692 69.4135 188.09 81.5285 199.812 83.6347C217.97 86.962 229.822 76.3258 241.592 52.7752C253.676 28.5813 238.709 6.46045 221.485 0.255519C204.813 -5.74471 193.74 -4.02683 183.407 9.5887C175.471 20.0607 176.984 45.8051 184.391 60.7372Z" stroke="#E1F3F8" stroke-opacity="0.2" stroke-width="0.4" stroke-miterlimit="10"/>
<path d="M179.265 61.7134C183.759 72.1348 182.767 86.5574 196.411 89.2664C217.588 93.5335 231.28 81.379 245.048 54.0408C258.817 26.7027 241.51 1.31704 221.888 -5.93566C202.847 -12.9272 190.271 -10.9506 178.471 4.63932C169.652 16.2485 171.907 44.6645 179.265 61.7134Z" stroke="#E1F3F8" stroke-opacity="0.2" stroke-width="0.4" stroke-miterlimit="10"/>
<path d="M174.154 62.6619C178.804 74.8111 177.42 91.5513 193.018 94.8587C217.213 100.066 232.743 86.4026 248.519 55.2885C264.059 24.6187 244.297 -3.85964 222.291 -12.1269C200.993 -20.1092 186.8 -17.9156 173.54 -0.390663C163.784 12.427 166.805 43.4985 174.154 62.6619Z" stroke="#E1F3F8" stroke-opacity="0.2" stroke-width="0.4" stroke-miterlimit="10"/>
<path d="M169.03 63.6284C173.816 77.5018 172.042 96.5496 189.621 100.471C216.835 106.617 234.205 91.4361 251.973 56.5639C269.241 22.6866 247.135 -9.03686 222.681 -18.3101C199.094 -27.269 183.327 -24.8707 168.615 -5.39903C157.995 8.61051 161.682 42.3291 169.03 63.6284Z" stroke="#E1F3F8" stroke-opacity="0.2" stroke-width="0.4" stroke-miterlimit="10"/>
<path d="M163.916 64.5965C168.818 80.1905 166.753 101.564 186.222 106.093C216.436 113.175 235.667 96.4695 255.438 57.841C274.435 20.6954 249.912 -14.1546 223.083 -24.4916C197.183 -34.4111 179.854 -31.8259 163.695 -10.4272C152.18 4.77853 156.535 41.1343 163.916 64.5965Z" stroke="#E1F3F8" stroke-opacity="0.2" stroke-width="0.4" stroke-miterlimit="10"/>
<path d="M158.792 65.5631C163.811 82.8776 161.412 106.58 182.825 111.705C216.087 119.733 237.12 101.492 258.893 59.1166C279.643 18.7887 252.713 -19.2978 223.481 -30.663C195.289 -41.6002 176.379 -38.7711 158.758 -15.4274C146.347 0.984298 151.378 39.9282 158.792 65.5631Z" stroke="#E1F3F8" stroke-opacity="0.2" stroke-width="0.4" stroke-miterlimit="10"/>
<path d="M153.688 66.5231C158.79 85.5723 156.092 111.589 179.427 117.317C215.718 126.286 238.589 106.537 262.359 60.3838C284.799 16.8312 255.525 -24.4495 223.891 -36.8427C193.4 -48.7584 172.914 -45.7147 153.839 -20.4146C140.527 -2.82812 146.212 38.7198 153.688 66.5231Z" stroke="#E1F3F8" stroke-opacity="0.2" stroke-width="0.4" stroke-miterlimit="10"/>
<path d="M148.555 67.4876C153.754 88.2537 150.744 116.593 176.021 122.927C215.33 132.836 240.041 111.568 265.784 61.6536C289.946 14.872 258.287 -29.6003 224.281 -43.0161C191.492 -55.9201 169.431 -52.6717 148.899 -25.4463C134.695 -6.62254 141.048 37.5017 148.555 67.4876Z" stroke="#E1F3F8" stroke-opacity="0.2" stroke-width="0.4" stroke-miterlimit="10"/>
<path d="M143.44 68.456C148.718 90.9254 145.442 121.615 172.633 128.541C214.961 139.39 241.4 116.552 269.308 62.9419C295.098 12.8835 261.147 -34.7326 224.711 -49.1919C189.663 -63.0768 165.996 -59.6096 144.013 -30.4473C128.88 -10.4642 135.876 36.2722 143.44 68.456Z" stroke="#E1F3F8" stroke-opacity="0.2" stroke-width="0.4" stroke-miterlimit="10"/>
<path d="M138.316 69.4224C143.68 93.6069 140.074 126.616 169.219 134.191C214.568 145.969 242.845 121.613 272.727 64.2414C300.239 10.954 263.905 -39.8637 225.065 -55.3412C187.68 -70.2217 162.477 -66.5425 139.033 -35.4353C123.051 -14.2781 130.693 35.0407 138.316 69.4224Z" stroke="#E1F3F8" stroke-opacity="0.2" stroke-width="0.4" stroke-miterlimit="10"/>
<path d="M133.198 70.4101C138.638 96.3177 134.739 131.652 165.822 139.802C214.189 152.521 244.307 126.647 276.182 65.5165C305.433 8.9627 266.715 -45.0565 225.471 -61.5523C185.787 -77.4112 159.008 -73.5175 134.114 -40.4734C117.232 -18.0906 125.521 33.8109 133.198 70.4101Z" stroke="#E1F3F8" stroke-opacity="0.2" stroke-width="0.4" stroke-miterlimit="10"/>
<path d="M128.079 71.3473C133.596 98.968 129.414 136.64 162.43 145.385C213.797 159.04 245.772 131.661 279.644 66.7529C310.627 7.02285 269.514 -50.1898 225.87 -67.7236C183.89 -84.5806 155.533 -80.4626 129.15 -45.4889C111.404 -21.9142 120.351 32.5716 128.079 71.3473Z" stroke="#E1F3F8" stroke-opacity="0.2" stroke-width="0.4" stroke-miterlimit="10"/>
<path d="M122.965 72.3155C128.551 101.638 124.076 141.646 159.033 150.997C213.448 165.597 247.234 136.694 283.109 68.03C315.813 5.07102 272.316 -55.3333 226.261 -73.9069C181.982 -91.7423 152.061 -87.4178 124.237 -50.5054C105.585 -25.7265 115.151 31.3266 122.965 72.3155Z" stroke="#E1F3F8" stroke-opacity="0.2" stroke-width="0.4" stroke-miterlimit="10"/>
<path d="M117.84 73.2817C123.495 104.305 118.739 146.692 155.632 156.629C213.066 172.168 248.693 141.737 286.561 69.315C320.997 3.12889 275.116 -60.477 226.658 -80.0688C180.088 -98.9318 148.584 -94.3534 119.33 -55.5005C99.7555 -29.5407 109.963 30.0734 117.84 73.2817Z" stroke="#E1F3F8" stroke-opacity="0.2" stroke-width="0.4" stroke-miterlimit="10"/>
<path d="M112.728 74.2403C118.448 106.985 113.404 151.678 152.256 162.235C212.709 178.714 250.176 146.765 290.047 70.5863C326.202 1.18099 277.929 -65.6282 227.08 -86.2561C178.205 -106.068 145.132 -101.315 114.44 -60.4817C93.9377 -33.3626 104.775 28.8206 112.728 74.2403Z" stroke="#E1F3F8" stroke-opacity="0.2" stroke-width="0.4" stroke-miterlimit="10"/>
<path d="M107.603 75.2067C113.383 109.651 108.076 156.676 148.839 167.843C212.311 185.262 251.618 151.795 293.484 71.8482C331.369 -0.774439 280.712 -70.7851 227.498 -92.424C176.316 -113.226 141.676 -108.256 109.56 -65.5123C88.1083 -37.1766 99.6052 27.5203 107.603 75.2067Z" stroke="#E1F3F8" stroke-opacity="0.2" stroke-width="0.4" stroke-miterlimit="10"/>
<path d="M102.489 76.1749C108.348 112.323 102.74 161.672 145.443 173.455C211.933 191.814 253.072 156.868 296.909 73.118C336.496 -2.73725 283.484 -75.9341 227.831 -98.6182C174.349 -120.399 138.135 -115.224 104.508 -70.5445C82.2895 -40.9889 94.4085 26.3164 102.489 76.1749Z" stroke="#E1F3F8" stroke-opacity="0.2" stroke-width="0.4" stroke-miterlimit="10"/>
<path d="M97.3645 77.1412C103.292 114.991 97.412 166.669 142.045 179.067C211.554 198.366 254.539 161.872 300.403 74.4007C341.751 -4.67625 286.314 -81.0721 228.251 -104.796C172.481 -127.563 134.689 -122.164 99.6124 -75.5475C76.4596 -44.803 89.2 25.0597 97.3645 77.1412Z" stroke="#E1F3F8" stroke-opacity="0.2" stroke-width="0.4" stroke-miterlimit="10"/>
<path d="M92.2501 78.1095C98.2367 117.659 92.0849 171.667 138.646 184.689C211.166 204.916 255.998 166.915 303.857 75.6761C346.937 -6.62794 289.117 -86.2253 228.65 -110.967C170.582 -134.723 131.222 -129.149 94.6778 -80.5577C70.642 -48.625 84.0216 23.8086 92.2501 78.1095Z" stroke="#E1F3F8" stroke-opacity="0.2" stroke-width="0.4" stroke-miterlimit="10"/>
<path d="M87.1205 79.1053C93.1816 120.327 86.7425 176.692 135.249 190.301C210.799 211.52 257.462 171.939 307.324 76.9434C352.123 -8.57985 291.938 -91.3652 229.051 -117.149C168.675 -141.894 127.739 -136.055 89.753 -85.5662C64.8129 -52.4391 78.8354 22.5456 87.1205 79.1053Z" stroke="#E1F3F8" stroke-opacity="0.2" stroke-width="0.4" stroke-miterlimit="10"/>
<path d="M81.9939 80.0304C88.1192 123.034 81.4081 181.729 131.842 195.911C210.43 218.023 258.921 176.982 310.779 78.2187C357.279 -10.5372 294.711 -96.5241 229.45 -123.321C166.777 -149.054 124.276 -143.008 84.8204 -90.5864C58.9936 -56.2515 73.6277 21.2889 81.9939 80.0304Z" stroke="#E1F3F8" stroke-opacity="0.2" stroke-width="0.4" stroke-miterlimit="10"/>
<path d="M76.8895 81.0006C83.0715 125.662 76.0695 186.734 128.449 201.504C210.053 224.565 260.396 181.998 314.23 79.5138C362.492 -12.4638 297.505 -101.628 229.842 -129.514C164.88 -156.224 120.795 -149.975 79.8976 -95.6046C53.2038 -60.0581 68.4514 20.0279 76.8895 81.0006Z" stroke="#E1F3F8" stroke-opacity="0.2" stroke-width="0.4" stroke-miterlimit="10"/>
<path d="M71.7755 81.9689C78.0658 128.34 70.7408 191.742 125.049 207.136C209.672 231.136 261.854 187.051 317.698 80.7715C367.69 -14.4234 300.316 -106.821 230.24 -135.675C162.972 -163.385 117.319 -156.91 74.9541 -100.566C47.3473 -63.8874 63.2653 18.7653 71.7755 81.9689Z" stroke="#E1F3F8" stroke-opacity="0.2" stroke-width="0.4" stroke-miterlimit="10"/>
<path d="M66.6528 82.9254C72.9361 131.024 65.3999 196.757 121.649 212.757C209.293 237.688 263.316 192.084 321.155 82.0369C372.875 -16.3753 303.117 -111.964 230.64 -141.857C161.073 -170.545 113.846 -163.865 70.0364 -105.613C41.527 -67.7507 57.975 17.5134 66.6528 82.9254Z" stroke="#E1F3F8" stroke-opacity="0.2" stroke-width="0.4" stroke-miterlimit="10"/>
<path d="M65.111 -110.622C35.6978 -71.5138 52.8728 16.2867 61.5378 83.8935C67.9153 133.668 60.0703 201.765 118.232 218.366C208.895 244.236 264.757 197.114 324.599 83.3104C378.061 -18.3271 305.953 -117.081 231.039 -148.028C159.173 -177.705 110.37 -170.811 65.111 -110.622Z" stroke="#E1F3F8" stroke-opacity="0.2" stroke-width="0.4" stroke-miterlimit="10"/>
</g>
<path fill-rule="evenodd" clip-rule="evenodd" d="M67.4611 55.1499C68.7229 56.4137 69.4423 58.1214 69.466 59.9091C69.4713 59.9417 69.4747 59.9746 69.4762 60.0077V89.0981C69.4762 92.9435 66.762 95.8675 62.6905 95.8675H49.7739C48.2863 95.8699 46.8136 95.5703 45.4446 94.9869C42.7988 93.8604 40.6923 91.7494 39.5682 89.0981C39.0016 87.7653 38.6895 84.4639 38.6895 82.9237V82.7639C38.6895 81.2237 39.0016 77.9257 39.5682 76.5929C40.6914 73.9409 42.7982 71.8296 45.4446 70.7041C46.8136 70.1206 48.2863 69.8211 49.7739 69.8235H62.7109V63.4519C62.7109 61.1093 61.9509 59.9125 59.6132 59.9125H46.4014C43.9009 59.9125 42.883 57.7569 42.883 56.3731C42.883 54.9893 43.9043 53.1431 46.4048 53.1431H62.7109C64.4948 53.166 66.1992 53.886 67.4611 55.1499ZM50.6969 89.0809H58.8635C59.8839 89.0809 60.8625 88.6747 61.584 87.9516C62.3056 87.2286 62.711 86.2479 62.711 85.2253V76.5757H50.707C49.6796 76.5659 48.6816 76.9185 47.8876 77.5719C47.1213 78.2155 46.5053 79.0198 46.0832 79.9281C45.6611 80.8363 45.4431 81.8264 45.4447 82.8283C45.4432 83.8314 45.6619 84.8225 46.0852 85.7315C46.5086 86.6404 47.1262 87.445 47.8944 88.0881C48.6834 88.7383 49.6754 89.0897 50.6969 89.0809Z" fill="url(#paint0_linear_409_7066)"/>
<path d="M32.6131 90.2437C32.2968 89.9097 31.9173 89.6421 31.4967 89.4564C31.0762 89.2708 30.623 89.1709 30.1635 89.1625C29.2915 89.1421 29.1456 89.1387 28.9149 89.1217C28.3668 89.1099 27.8289 88.9702 27.344 88.7137C26.6349 88.2989 26.2549 87.5577 26.1701 84.7561V37.6899C26.1701 36.9759 25.9936 35.8301 25.2574 35.1977C24.5537 34.6513 23.6804 34.3708 22.7908 34.4055C21.8993 34.3557 21.0208 34.6379 20.3242 35.1977C19.4115 36.0375 19.4115 36.9759 19.4115 37.6899V90.4171C19.3742 93.4295 22.0851 95.9251 25.0335 95.8571H30.1499C31.3544 95.8571 32.0228 95.5647 32.6165 94.9391C32.9262 94.6311 33.1718 94.2645 33.339 93.8606C33.5061 93.4567 33.5915 93.0236 33.5903 92.5863C33.5997 92.1491 33.5176 91.7148 33.3493 91.3113C33.181 90.9079 32.9302 90.5442 32.6131 90.2437Z" fill="url(#paint1_linear_409_7066)"/>
<path d="M104.573 57.4814C104.601 57.9869 104.525 58.4929 104.35 58.9678C104.175 59.4428 103.904 59.8765 103.555 60.2422C102.768 60.9868 102.052 60.9392 101.377 60.9392H88.0121V92.5592C88.0121 93.705 87.7475 94.385 87.2318 94.878C86.5196 95.5199 85.5905 95.8663 84.6328 95.847C83.6699 95.8331 82.7468 95.4597 82.0441 94.7998C81.5453 94.2898 81.2535 93.8036 81.2535 92.5592V40.9914C81.2378 39.8422 81.5282 38.7096 82.095 37.7104C82.755 36.5811 83.7224 35.6635 84.8839 35.0652C85.7705 34.6215 86.7497 34.3954 87.7407 34.4056H101.991C103.26 34.4056 104.861 35.0278 105.333 36.6122C105.445 36.9941 105.501 37.3904 105.499 37.7886C105.496 38.1875 105.44 38.5842 105.333 38.9684C104.861 40.6922 103.26 41.175 101.991 41.175H92.243C89.8985 41.175 88.0019 42.535 88.0019 45.425V54.1664H101.366C102.408 54.1664 103.032 54.3636 103.762 55.1558C104.396 55.829 104.566 56.5464 104.573 57.4814Z" fill="url(#paint2_linear_409_7066)"/>
<path d="M231 107H15" stroke="white" stroke-opacity="0.6" stroke-linecap="round"/>
<path d="M17.944 129.328C18.872 130.288 19.592 131.136 20.104 131.872L19.208 132.496C18.664 131.717 17.9493 130.869 17.064 129.952L17.944 129.328ZM23.576 136.08C24.696 137.307 25.5813 138.405 26.232 139.376L25.224 140.08C24.5307 138.971 23.672 137.829 22.648 136.656L23.576 136.08ZM21.576 128.928H22.712V130.832C22.6907 131.547 22.6587 132.229 22.616 132.88H29.208C29.208 137.435 29.0053 140.347 28.6 141.616C28.184 142.864 27.4373 143.488 26.36 143.488C25.7627 143.488 25.1013 143.467 24.376 143.424L24.072 142.304C24.8933 142.368 25.6347 142.4 26.296 142.4C27.2027 142.336 27.72 141.435 27.848 139.696C27.976 137.947 28.04 136.048 28.04 134H22.504C22.248 136.016 21.7947 137.707 21.144 139.072C20.1947 140.981 18.6373 142.469 16.472 143.536L15.816 142.512C17.9813 141.413 19.4747 139.968 20.296 138.176C20.7973 136.992 21.1493 135.6 21.352 134H16.376V132.88H21.48C21.5333 132.208 21.5653 131.525 21.576 130.832V128.928ZM38.024 138.352H33.848C33.656 140.347 33.16 142.085 32.36 143.568L31.56 142.736C32.424 141.104 32.872 139.173 32.904 136.944V130.304C34.8453 130.059 36.36 129.605 37.448 128.944L38.216 129.808C37.064 130.459 35.6347 130.907 33.928 131.152V133.008H38.024V138.352ZM33.928 134.128V137.12L33.912 137.296H36.968V134.128H33.928ZM40.44 134.976V137.36C40.408 140.155 40.0453 142.235 39.352 143.6L38.312 143.088C39.0053 141.712 39.368 139.803 39.4 137.36V130.128C41.672 130.032 43.5867 129.659 45.144 129.008L45.72 130.016C44.1307 130.624 42.3653 130.976 40.424 131.072L40.44 133.872H46.28V134.976H44.472V143.6H43.336V134.976H40.44ZM52.6 134.688V136.432H58.952V134.688H52.6ZM58.952 137.44H52.6V139.136H58.952V137.44ZM58.952 140.144H52.6V143.568H51.512V135.2C50.616 136.331 49.5867 137.36 48.424 138.288L47.672 137.312C49.688 135.712 51.2453 133.883 52.344 131.824H48.104V130.704H52.872C53.16 130.043 53.3947 129.419 53.576 128.832L54.744 128.976C54.5093 129.712 54.3067 130.288 54.136 130.704H62.088V131.824H53.656C53.2933 132.56 52.9467 133.179 52.616 133.68H60.04V142.32C60.04 143.099 59.592 143.504 58.696 143.536H56.904L56.616 142.48C57.4267 142.523 57.9973 142.544 58.328 142.544C58.744 142.544 58.952 142.352 58.952 141.968V140.144ZM64.792 129.888H77.256V131.008H74.584V135.248H78.088V136.352H74.584V143.44H73.416V136.352H68.792C68.6427 138.005 68.3333 139.371 67.864 140.448C67.256 141.792 66.248 142.832 64.84 143.568L64.216 142.576C65.5173 141.84 66.424 140.864 66.936 139.648C67.2667 138.741 67.496 137.643 67.624 136.352H63.928V135.248H67.688L67.704 134.688V131.008H64.792V129.888ZM68.888 131.008V134.976L68.872 135.248H73.416V131.008H68.888ZM80.856 133.84L82.12 129.392L83.256 129.584L82.344 132.736H85.144C85.464 131.477 85.72 130.171 85.912 128.816L87.08 128.96C86.888 130.219 86.6373 131.477 86.328 132.736H93.816V133.84H86.024C85.8 134.597 85.5973 135.205 85.416 135.664H91.96V136.656C91.5227 138.043 90.6533 139.291 89.352 140.4C90.6427 141.168 92.2213 141.872 94.088 142.512L93.496 143.584C91.448 142.827 89.752 142.011 88.408 141.136C87.1173 142.043 85.4907 142.88 83.528 143.648L82.92 142.576C84.7013 141.925 86.1947 141.205 87.4 140.416C86.1627 139.467 85.2773 138.427 84.744 137.296C83.5813 139.813 82.0827 141.819 80.248 143.312L79.656 142.256C81.9813 140.219 83.704 137.413 84.824 133.84H80.856ZM85.608 136.72C86.152 137.808 87.064 138.816 88.344 139.744C89.528 138.816 90.344 137.808 90.792 136.72H85.608ZM89.768 128.944C90.888 129.797 91.8427 130.677 92.632 131.584L91.816 132.4C91.1653 131.579 90.2267 130.677 89 129.696L89.768 128.944ZM97.336 130.592H101.72V128.896H102.904V130.592H106.68V131.664H102.904V133.568H104.92C106.424 132.491 107.747 131.28 108.888 129.936L109.768 130.576C108.797 131.728 107.789 132.725 106.744 133.568H110.168V134.656H105.288L104.568 135.12C103.907 135.525 103.069 135.963 102.056 136.432H108.104V143.632H106.952V142.912H100.024V143.632H98.856V137.744C98.12 138.021 97.224 138.331 96.168 138.672L95.688 137.6C98.3867 136.971 100.888 135.989 103.192 134.656H95.912V133.568H101.72V131.664H97.336V130.592ZM100.024 140.144V141.888H106.952V140.144H100.024ZM106.952 139.12V137.44H100.024V139.12H106.952ZM116.488 129.616H126.088V130.672H121.56V132.096H125.336V138.24H121.528C121.421 139.371 121.101 140.32 120.568 141.088C122.243 141.973 124.184 142.464 126.392 142.56L126.104 143.616C123.715 143.488 121.629 142.912 119.848 141.888C118.984 142.613 117.741 143.189 116.12 143.616L115.528 142.688C117 142.304 118.109 141.829 118.856 141.264C118.056 140.709 117.341 140.069 116.712 139.344L117.576 138.736C118.184 139.408 118.856 140 119.592 140.512C120.029 139.861 120.296 139.104 120.392 138.24H116.664V132.096H120.44V130.672H116.488V129.616ZM124.248 137.296V135.616H121.56V137.296H124.248ZM120.44 137.296V135.616H117.752V137.296H120.44ZM117.752 134.672H120.44V133.04H117.752V134.672ZM121.56 133.04V134.672H124.248V133.04H121.56ZM113.496 134.72C113.016 135.445 112.509 136.123 111.976 136.752L111.592 135.536C113.107 133.595 114.2 131.392 114.872 128.928L115.912 129.408C115.549 130.624 115.123 131.733 114.632 132.736V143.584H113.496V134.72ZM139.208 133.264V142.112H142.152V143.184H128.04V142.112H130.936V133.264H139.208ZM132.104 142.112H138.04V140.208H132.104V142.112ZM132.104 139.184H138.04V137.296H132.104V139.184ZM132.104 136.272H138.04V134.352H132.104V136.272ZM141.384 130.512V133.76H140.264V131.568H129.736V133.76H128.616V130.512H134.456C134.264 129.979 134.04 129.499 133.784 129.072L134.984 128.88C135.187 129.317 135.4 129.861 135.624 130.512H141.384ZM151.208 128.832C151.4 129.312 151.571 129.792 151.72 130.272H158.056V131.328H143.928V130.272H150.488C150.36 129.909 150.179 129.504 149.944 129.056L151.208 128.832ZM154.152 143.552L153.88 142.512L155.16 142.56C155.821 142.56 156.152 142.304 156.152 141.792V137.44H145.848V143.6H144.744V136.432H157.256V142.032C157.256 143.045 156.669 143.552 155.496 143.552H154.152ZM146.536 132.368H155.48V135.472H146.536V132.368ZM154.36 134.576V133.264H147.656V134.576H154.36ZM147.864 138.464H154.152V141.664H147.864V138.464ZM153.128 140.8V139.328H148.904V140.8H153.128ZM162.952 132.96C162.28 134.411 161.48 135.685 160.552 136.784L159.624 136.112C160.531 135.088 161.309 133.872 161.96 132.464L162.952 132.96ZM166.168 135.44C165.453 134.533 164.728 133.739 163.992 133.056L164.696 132.368C165.325 132.869 166.067 133.637 166.92 134.672L166.168 135.44ZM161.896 136.4C162.483 136.859 163.112 137.397 163.784 138.016C164.168 137.248 164.483 136.464 164.728 135.664L165.72 136.08C165.432 137.072 165.069 137.989 164.632 138.832C165.336 139.515 165.976 140.192 166.552 140.864L165.736 141.776C165.277 141.232 164.712 140.603 164.04 139.888C163.037 141.413 161.779 142.608 160.264 143.472L159.56 142.448C161.053 141.627 162.269 140.491 163.208 139.04C162.579 138.411 161.901 137.803 161.176 137.216L161.896 136.4ZM163.544 128.816C163.8 129.403 164.04 130.005 164.264 130.624H167.272V131.728H159.864V130.624H163.144C162.909 130.059 162.643 129.52 162.344 129.008L163.544 128.816ZM169.384 132.64L169.016 133.76C169.4 135.392 169.896 136.816 170.504 138.032C171.283 136.443 171.704 134.645 171.768 132.64H169.384ZM169.88 139.12C169.293 137.968 168.797 136.688 168.392 135.28C168.157 135.749 167.848 136.272 167.464 136.848L166.728 135.968C167.859 134.187 168.616 131.813 169 128.848L170.152 129.04C170.035 129.851 169.88 130.677 169.688 131.52H174.184V132.64H172.824C172.728 135.189 172.163 137.371 171.128 139.184C172.045 140.656 173.144 141.787 174.424 142.576L173.752 143.584C172.483 142.773 171.395 141.643 170.488 140.192C169.475 141.568 168.168 142.715 166.568 143.632L165.912 142.592C167.619 141.685 168.941 140.528 169.88 139.12ZM181.464 131.696V142.608H180.344V141.696H177.432V143.072H176.312V131.696H177.8C178.109 130.821 178.339 129.893 178.488 128.912L179.64 129.072C179.437 130.085 179.187 130.96 178.888 131.696H181.464ZM177.432 140.624H180.344V137.12H177.432V140.624ZM177.432 136.08H180.344V132.784H177.432V136.08ZM184.248 135.408C185.357 136.677 186.232 137.84 186.872 138.896L185.96 139.536C185.309 138.48 184.429 137.296 183.32 135.984L184.248 135.408ZM189.736 131.712C189.736 137.035 189.656 140.32 189.496 141.568C189.336 142.795 188.589 143.408 187.256 143.408L185.624 143.344L185.352 142.288C186.024 142.32 186.605 142.336 187.096 142.336C187.843 142.336 188.28 141.925 188.408 141.104C188.504 140.208 188.568 137.451 188.6 132.832H184.2C183.741 133.856 183.208 134.768 182.6 135.568L181.912 134.656C183.021 133.109 183.784 131.189 184.2 128.896L185.336 129.04C185.123 130.075 184.888 130.965 184.632 131.712H189.736ZM193.912 134.4V137.072H196.488V134.4H193.912ZM196.488 133.36V130.656H193.912V133.36H196.488ZM193.896 138.112C193.8 140.341 193.421 142.181 192.76 143.632L191.896 142.832C192.525 141.403 192.851 139.557 192.872 137.296V129.616H197.544V142.08C197.544 143.061 197.096 143.552 196.2 143.552H194.92L194.648 142.528C195.245 142.571 195.656 142.592 195.88 142.592C196.285 142.592 196.488 142.299 196.488 141.712V138.112H193.896ZM199.976 136.528V143.616H198.888V129.6H205.368C205.368 131.584 205.272 132.896 205.08 133.536C204.888 134.197 204.291 134.528 203.288 134.528H201.992L201.688 133.536L202.76 133.552C203.112 133.552 203.395 133.525 203.608 133.472C203.8 133.408 203.944 133.253 204.04 133.008C204.147 132.677 204.216 131.893 204.248 130.656H199.976V135.504H205.416V136.48C205.117 138.123 204.595 139.525 203.848 140.688C204.552 141.381 205.4 142.011 206.392 142.576L205.816 143.552C204.813 142.976 203.939 142.32 203.192 141.584C202.488 142.405 201.661 143.067 200.712 143.568L200.104 142.64C201.011 142.149 201.784 141.52 202.424 140.752C201.4 139.504 200.712 138.096 200.36 136.528H199.976ZM201.352 136.528C201.683 137.755 202.259 138.864 203.08 139.856C203.667 138.907 204.104 137.797 204.392 136.528H201.352ZM213.672 129.04C213.512 129.424 213.309 129.829 213.064 130.256H220.04V131.184C219.016 132.368 217.768 133.376 216.296 134.208C218.109 134.976 220.125 135.472 222.344 135.696L221.816 136.768C219.288 136.48 217.032 135.84 215.048 134.848C213.085 135.755 210.808 136.405 208.216 136.8L207.688 135.712C210.003 135.392 212.04 134.88 213.8 134.176C212.925 133.664 212.093 133.061 211.304 132.368C210.675 132.933 210.008 133.429 209.304 133.856L208.6 132.928C210.541 131.819 211.843 130.469 212.504 128.88L213.672 129.04ZM215.032 133.616C216.301 132.987 217.421 132.229 218.392 131.344H212.28L212.072 131.6C212.957 132.379 213.944 133.051 215.032 133.616ZM215.192 136C215.192 136.576 215.139 137.184 215.032 137.824H220.664C220.632 140.533 220.387 142.149 219.928 142.672C219.459 143.205 218.659 143.472 217.528 143.472C217.261 143.472 216.637 143.451 215.656 143.408L215.368 142.368L217.256 142.448C218.205 142.437 218.808 142.235 219.064 141.84C219.309 141.456 219.453 140.464 219.496 138.864H214.76C214.643 139.259 214.472 139.659 214.248 140.064C213.427 141.515 211.549 142.704 208.616 143.632L207.848 142.688C210.483 141.92 212.216 140.949 213.048 139.776C213.272 139.445 213.437 139.141 213.544 138.864H208.776V137.824H213.864C213.992 137.248 214.056 136.64 214.056 136H215.192Z" fill="white" fill-opacity="0.85"/>
<defs>
<linearGradient id="paint0_linear_409_7066" x1="54.2449" y1="57.6142" x2="54.2449" y2="99.5934" gradientUnits="userSpaceOnUse">
<stop stop-color="#97E6FF" stop-opacity="0.86"/>
<stop offset="1" stop-color="#F0FDFF" stop-opacity="0.08"/>
</linearGradient>
<linearGradient id="paint1_linear_409_7066" x1="26.5757" y1="40.8316" x2="26.5757" y2="101.218" gradientUnits="userSpaceOnUse">
<stop stop-color="#97E6FF" stop-opacity="0.86"/>
<stop offset="1" stop-color="#F0FDFF" stop-opacity="0.08"/>
</linearGradient>
<linearGradient id="paint2_linear_409_7066" x1="93.5035" y1="40.8353" x2="93.5035" y2="101.206" gradientUnits="userSpaceOnUse">
<stop stop-color="#97E6FF" stop-opacity="0.86"/>
<stop offset="1" stop-color="#F0FDFF" stop-opacity="0.08"/>
</linearGradient>
<clipPath id="clip0_409_7066">
<rect width="387.92" height="305.61" fill="white" transform="translate(0.166992 197.442) rotate(-79.4296)"/>
</clipPath>
</defs>
</svg>
