<svg width="88" height="88" viewBox="0 0 88 88" fill="none" xmlns="http://www.w3.org/2000/svg">
<g opacity="0.64">
<path d="M77.4735 25.615C80.4878 28.7133 82.1758 32.8609 82.1802 37.1798C82.1802 53.4346 72.8347 57.5966 62.943 58.7871L44.1648 58.8639C34.0273 57.7797 24.252 53.8043 24.252 37.1798C24.2564 32.8609 25.9444 28.7133 28.9586 25.615C27.5449 21.8635 27.6751 17.7062 29.3207 14.0501C29.3207 14.0501 33.3032 12.9659 41.9925 18.7483C49.3521 16.835 57.08 16.835 64.4397 18.7483C73.1289 12.9659 77.1115 14.0501 77.1115 14.0501C78.7571 17.7062 78.8872 21.8635 77.4735 25.615Z" fill="#C3D7FE"/>
<path d="M31.4093 71.3816C13.8264 76.8117 13.8264 61.6851 6.875 59.7458M55.9436 79.1389V65.5637C55.9436 61.6851 56.3525 60.1336 53.8991 57.8065C65.3485 56.6429 76.3889 52.3764 76.3889 34.5347C76.3839 29.8996 74.4775 25.4483 71.0731 22.1231C72.6698 18.097 72.5228 13.6353 70.6642 9.71155C70.6642 9.71155 66.1663 8.54796 56.3525 14.7538C48.0405 12.7004 39.3125 12.7004 31.0004 14.7538C21.1867 8.54796 16.6887 9.71155 16.6887 9.71155C14.8302 13.6353 14.6832 18.097 16.2798 22.1231C12.8755 25.4483 10.969 29.8996 10.9641 34.5347C10.9641 52.3764 22.0045 56.6429 33.4538 57.8065C31.0004 60.1336 31.0004 62.4608 31.4093 65.5637V79.1389" stroke="#61BEDC" stroke-width="2.89641" stroke-linecap="round" stroke-linejoin="round"/>
</g>
</svg>
