<svg width="88" height="88" viewBox="0 0 88 88" fill="none" xmlns="http://www.w3.org/2000/svg">
<g opacity="0.64">
<path d="M71.3021 23.8291C71.3282 21.3711 70.8544 18.9333 69.9093 16.6641C68.9643 14.3948 67.5678 12.3413 65.8047 10.6283C64.0416 8.91535 61.9487 7.5787 59.6531 6.69954C57.3575 5.82039 54.9071 5.41709 52.4508 5.51414C42.8258 5.98164 35.3458 14.4791 35.3458 24.3516V55.3991C35.3422 55.8614 35.4296 56.3198 35.6032 56.7483C35.7768 57.1767 36.033 57.5668 36.3573 57.8962C36.6816 58.2257 37.0676 58.488 37.4933 58.6682C37.919 58.8484 38.376 58.943 38.8383 58.9466H67.8096C68.742 58.9358 69.6323 58.5568 70.2865 57.8923C70.9407 57.2278 71.3057 56.3316 71.3021 55.3991V23.8291Z" fill="#C3D7FE"/>
<path d="M44.2828 67.3615H16.6591C15.2841 67.3615 14.6103 65.9865 15.5866 65.3127C18.5153 63.099 23.9466 58.6989 24.5103 58.1627C25.1296 57.456 25.5056 56.5691 25.5828 55.6327C25.5003 47.8777 25.3903 44.0277 25.5828 29.8377C25.7753 15.6477 35.0429 9.5702 44.1729 7.7002H44.3791C53.5228 9.5702 62.7903 15.6477 62.9691 29.8377C63.1478 44.0277 63.0516 47.8777 62.9691 55.6327C63.0529 56.5675 63.428 57.4524 64.0416 58.1627C64.6053 58.6989 70.0504 63.099 72.9654 65.3127C73.9554 66.0552 73.2816 67.3615 71.9066 67.3615H44.2828Z" stroke="#61BEDC" stroke-width="2.2" stroke-linecap="round" stroke-linejoin="round"/>
<path d="M44.2858 34.554C47.1942 34.554 49.552 32.1962 49.552 29.2877C49.552 26.3793 47.1942 24.0215 44.2858 24.0215C41.3773 24.0215 39.0195 26.3793 39.0195 29.2877C39.0195 32.1962 41.3773 34.554 44.2858 34.554Z" fill="#61BEDC"/>
<path d="M37.5039 75.4053C40.5839 81.5515 44.2826 83.174 44.2826 83.174C44.2826 83.174 47.9815 81.5515 51.0477 75.4053" stroke="#61BEDC" stroke-width="2.2" stroke-linecap="square" stroke-linejoin="round"/>
</g>
</svg>
