<svg width="88" height="88" viewBox="0 0 88 88" fill="none" xmlns="http://www.w3.org/2000/svg">
<g opacity="0.64">
<path d="M33.3095 15.826H37.8057C38.7539 15.826 39.6632 16.2026 40.3336 16.873C41.0041 17.5435 41.3807 18.4528 41.3807 19.401V75.5697C41.3807 77.1159 40.7665 78.5988 39.6731 79.6921C38.5798 80.7855 37.0969 81.3997 35.5507 81.3997C34.0045 81.3997 32.5216 80.7855 31.4283 79.6921C30.3349 78.5988 29.7207 77.1159 29.7207 75.5697V19.401C29.7207 18.9303 29.8136 18.4643 29.9941 18.0297C30.1747 17.595 30.4392 17.2003 30.7727 16.8682C31.1061 16.536 31.5018 16.273 31.9371 16.0941C32.3725 15.9153 32.8388 15.8241 33.3095 15.826Z" fill="#C3D7FE"/>
<path d="M60.4227 50.9434H64.9327C65.8808 50.9434 66.7901 51.32 67.4606 51.9905C68.131 52.6609 68.5077 53.5702 68.5077 54.5184V75.5696C68.5077 77.1158 67.8934 78.5987 66.8001 79.692C65.7067 80.7854 64.2239 81.3996 62.6777 81.3996C61.1314 81.3996 59.6486 80.7854 58.5552 79.692C57.4619 78.5987 56.8477 77.1158 56.8477 75.5696V54.5184C56.8477 53.5702 57.2243 52.6609 57.8947 51.9905C58.5652 51.32 59.4745 50.9434 60.4227 50.9434Z" fill="#C3D7FE"/>
<path d="M30.832 18.5485L30.887 6.91602" stroke="#61BEDC" stroke-width="2.8" stroke-linecap="round" stroke-linejoin="round"/>
<path d="M36.6919 77.0272V28.5997C38.904 27.3185 40.6318 25.3435 41.6076 22.9808C42.5835 20.6181 42.7529 17.9995 42.0895 15.5307C41.4262 13.0619 39.9672 10.8808 37.9386 9.32531C35.91 7.76981 33.4251 6.92676 30.8688 6.92676C28.3124 6.92676 25.8275 7.76981 23.7989 9.32531C21.7703 10.8808 20.3113 13.0619 19.648 15.5307C18.9847 17.9995 19.154 20.6181 20.1299 22.9808C21.1057 25.3435 22.8335 27.3185 25.0456 28.5997V77.0272C25.0456 77.0272 31.0269 84.9059 36.6919 77.0272Z" stroke="#61BEDC" stroke-width="2.8" stroke-linecap="round" stroke-linejoin="round"/>
<path d="M64.4803 48.1934V77.0684C58.8016 84.9471 52.8203 77.0684 52.8203 77.0684V48.1934H64.4803Z" stroke="#61BEDC" stroke-width="2.8" stroke-linecap="round" stroke-linejoin="round"/>
<path d="M48.998 48.1936H68.4955" stroke="#61BEDC" stroke-width="2.8" stroke-linecap="round" stroke-linejoin="round"/>
<path d="M58.7461 48.1933V21.6421" stroke="#61BEDC" stroke-width="2.8" stroke-linecap="round" stroke-linejoin="round"/>
<path d="M53.0273 17.4075C53.4897 18.5738 54.2718 19.586 55.2836 20.3279C56.2954 21.0697 57.496 21.5111 58.7473 21.6013C62.1298 21.6425 64.4811 17.4075 64.4811 17.4075V6.875H53.0273V17.4075Z" stroke="#61BEDC" stroke-width="2.8" stroke-linecap="round" stroke-linejoin="round"/>
</g>
</svg>
