<svg width="88" height="88" viewBox="0 0 88 88" fill="none" xmlns="http://www.w3.org/2000/svg">
<g opacity="0.64">
<path d="M44.3567 5.48724L16.9969 49.9295C16.6973 50.4157 16.5021 50.959 16.4237 51.5247C16.3454 52.0905 16.3855 52.6663 16.5416 53.2157C16.6977 53.7651 16.9664 54.276 17.3306 54.716C17.6948 55.156 18.1465 55.5154 18.657 55.7715L45.0917 68.4439C45.6652 68.7345 46.299 68.8859 46.9419 68.8859C47.5848 68.8859 48.2186 68.7345 48.7921 68.4439L76.57 55.4546C77.0705 55.1965 77.5122 54.8376 77.8672 54.4005C78.2222 53.9634 78.4829 53.4575 78.6329 52.9147C78.7829 52.3719 78.8189 51.804 78.7387 51.2466C78.6585 50.6892 78.4637 50.1545 78.1668 49.676L51.3139 5.49991C50.9478 4.90719 50.4365 4.41773 49.8284 4.07784C49.2203 3.73795 48.5355 3.55889 47.8388 3.55762C47.1422 3.55636 46.4567 3.73291 45.8474 4.07059C45.238 4.40826 44.7249 4.89586 44.3567 5.48724Z" fill="#C3D7FE"/>
<path d="M36.6748 4.87881L4.42346 58.2171C4.1847 58.6118 4.02792 59.0506 3.96247 59.5072C3.89702 59.9639 3.92425 60.429 4.04252 60.8749C4.1608 61.3208 4.3677 61.7383 4.65087 62.1025C4.93405 62.4667 5.28769 62.7701 5.6907 62.9946L37.9547 78.493C38.5189 78.8058 39.1534 78.97 39.7985 78.97C40.4437 78.97 41.0782 78.8058 41.6424 78.493L74.3499 63.0072C74.7577 62.7842 75.1158 62.4804 75.4023 62.1143C75.6888 61.7483 75.8977 61.3278 76.0163 60.8783C76.1349 60.4289 76.1607 59.96 76.092 59.5003C76.0234 59.0405 75.8618 58.5996 75.6172 58.2044L42.9476 4.86613C42.6116 4.33813 42.1475 3.90364 41.5986 3.60304C41.0496 3.30244 40.4336 3.14547 39.8077 3.14674C39.1819 3.148 38.5665 3.30745 38.0187 3.61027C37.471 3.91309 37.0087 4.34946 36.6748 4.87881Z" stroke="#61BEDC" stroke-width="2.58057" stroke-linecap="round" stroke-linejoin="round"/>
<path d="M39.8184 79V3.14282" stroke="#61BEDC" stroke-width="2.58057" stroke-linecap="round" stroke-linejoin="round"/>
<path d="M5.47852 60.587L40.0869 43.8594L74.6953 60.587" stroke="#61BEDC" stroke-width="2.58057" stroke-linecap="round" stroke-linejoin="round"/>
</g>
</svg>
