<svg width="496" height="83" viewBox="0 0 496 83" fill="none" xmlns="http://www.w3.org/2000/svg">
<path opacity="0.08" d="M39.36 0.959993H61.32V49.8C61.32 59.4 58.48 67.24 52.8 73.32C47.12 79.32 39.92 82.32 31.2 82.32C22.48 82.32 15.12 79.4 9.12 73.56C3.12 67.64 0.12 60.44 0.12 51.96C0.12 43.8 3.08 36.68 9 30.6C15 24.52 22.08 21.48 30.24 21.48C31.44 21.48 33.36 21.6 36 21.84V46.08C34.32 44.64 32.52 43.92 30.6 43.92C28.36 43.92 26.4 44.76 24.72 46.44C23.12 48.04 22.32 50.04 22.32 52.44C22.32 54.6 23.16 56.52 24.84 58.2C26.52 59.88 28.56 60.72 30.96 60.72C36.56 60.72 39.36 56.84 39.36 49.08V0.959993ZM105.372 59.28V81.84C103.772 82.16 102.132 82.32 100.452 82.32C91.6522 82.32 84.2922 79.4 78.3722 73.56C72.5322 67.64 69.6122 60.36 69.6122 51.72C69.6122 43.32 72.5722 36.16 78.4922 30.24C84.4922 24.24 91.6922 21.24 100.092 21.24C109.532 21.24 116.972 24 122.412 29.52C127.932 35.04 130.692 42.6 130.692 52.2V81H108.732V53.76C108.732 50.64 107.972 48.2 106.452 46.44C104.932 44.6 102.932 43.68 100.452 43.68C98.1322 43.68 96.1322 44.56 94.4522 46.32C92.7722 48 91.9322 50.04 91.9322 52.44C91.9322 54.84 92.6922 56.84 94.2122 58.44C95.7322 59.96 97.7322 60.72 100.212 60.72C102.052 60.72 103.772 60.24 105.372 59.28ZM162.959 0.959993V23.88H172.799V47.04H162.959C162.959 51.68 163.679 54.88 165.119 56.64C166.559 58.4 169.239 59.28 173.159 59.28V82.32C163.079 82.32 155.199 79.48 149.519 73.8C143.839 68.04 140.999 59.92 140.999 49.44V0.959993H162.959ZM215.997 59.28V81.84C214.397 82.16 212.757 82.32 211.077 82.32C202.277 82.32 194.917 79.4 188.997 73.56C183.157 67.64 180.237 60.36 180.237 51.72C180.237 43.32 183.197 36.16 189.117 30.24C195.117 24.24 202.317 21.24 210.717 21.24C220.157 21.24 227.597 24 233.037 29.52C238.557 35.04 241.317 42.6 241.317 52.2V81H219.357V53.76C219.357 50.64 218.597 48.2 217.077 46.44C215.557 44.6 213.557 43.68 211.077 43.68C208.757 43.68 206.757 44.56 205.077 46.32C203.397 48 202.557 50.04 202.557 52.44C202.557 54.84 203.317 56.84 204.837 58.44C206.357 59.96 208.357 60.72 210.837 60.72C212.677 60.72 214.397 60.24 215.997 59.28ZM274.664 0.959993V49.08C274.664 56.84 277.464 60.72 283.064 60.72C285.464 60.72 287.464 59.92 289.064 58.32C290.744 56.64 291.584 54.64 291.584 52.32C291.584 49.92 290.824 47.96 289.304 46.44C287.864 44.84 286.064 44.04 283.904 44.04C281.904 44.04 279.944 44.72 278.024 46.08V21.84C280.504 21.6 282.464 21.48 283.904 21.48C292.064 21.48 299.104 24.48 305.024 30.48C310.944 36.4 313.904 43.52 313.904 51.84C313.904 60.32 310.904 67.52 304.904 73.44C298.904 79.36 291.544 82.32 282.824 82.32C274.184 82.32 266.984 79.32 261.224 73.32C255.544 67.24 252.704 59.4 252.704 49.8V0.959993H274.664ZM356.036 59.28V81.84C354.436 82.16 352.796 82.32 351.116 82.32C342.316 82.32 334.956 79.4 329.036 73.56C323.196 67.64 320.276 60.36 320.276 51.72C320.276 43.32 323.236 36.16 329.156 30.24C335.156 24.24 342.356 21.24 350.756 21.24C360.196 21.24 367.636 24 373.076 29.52C378.596 35.04 381.356 42.6 381.356 52.2V81H359.396V53.76C359.396 50.64 358.636 48.2 357.116 46.44C355.596 44.6 353.596 43.68 351.116 43.68C348.796 43.68 346.796 44.56 345.116 46.32C343.436 48 342.596 50.04 342.596 52.44C342.596 54.84 343.356 56.84 344.876 58.44C346.396 59.96 348.396 60.72 350.876 60.72C352.716 60.72 354.436 60.24 356.036 59.28ZM430.783 22.56V45.6C427.343 45.6 425.103 46.2 424.063 47.4C423.023 48.6 422.383 50.64 422.143 53.52C420.463 71.84 410.263 81 391.543 81H388.543V57.84C392.703 57.84 395.543 57.12 397.063 55.68C398.583 54.16 399.463 51.56 399.703 47.88C400.023 42.36 400.463 38.56 401.023 36.48C401.663 34.32 403.023 32.12 405.103 29.88C407.263 27.56 409.863 25.76 412.903 24.48C416.023 23.2 419.743 22.56 424.063 22.56H430.783ZM495.371 55.2H462.131C461.571 53.6 461.291 52 461.291 50.4C461.291 48.64 461.651 46.8 462.371 44.88H473.531C472.811 40.48 470.371 38.28 466.211 38.28C463.571 38.28 461.371 39.44 459.611 41.76C457.851 44.08 456.971 47.08 456.971 50.76C456.971 54.52 457.811 57.64 459.491 60.12C461.171 62.52 463.331 63.72 465.971 63.72C468.211 63.72 470.331 62.6 472.331 60.36L484.811 75.48C479.051 80.04 472.571 82.32 465.371 82.32C456.811 82.32 449.531 79.4 443.531 73.56C437.611 67.64 434.651 60.36 434.651 51.72C434.651 43.16 437.611 35.96 443.531 30.12C449.451 24.2 456.811 21.24 465.611 21.24C474.011 21.24 481.091 24.12 486.851 29.88C492.691 35.56 495.611 42.64 495.611 51.12C495.611 51.44 495.531 52.8 495.371 55.2Z" fill="url(#paint0_linear_409_7078)"/>
<defs>
<linearGradient id="paint0_linear_409_7078" x1="247.5" y1="-15" x2="247.5" y2="134.5" gradientUnits="userSpaceOnUse">
<stop stop-color="#00B4DC"/>
<stop offset="1" stop-color="#57CDFF" stop-opacity="0"/>
</linearGradient>
</defs>
</svg>
