<svg width="160" height="57" viewBox="0 0 160 57" fill="none" xmlns="http://www.w3.org/2000/svg">
<rect x="12" y="8.5" width="4" height="40" rx="2" fill="#39AED3"/>
<path d="M54.8 19.34L54.36 20.94C55.2133 24.7533 56.32 28.18 57.68 31.22C58.8267 27.78 59.48 23.82 59.64 19.34H54.8ZM55.76 35.62C54.48 33.06 53.3467 30.1133 52.36 26.78C51.8 28.0333 51.1733 29.2733 50.48 30.5L47.88 27.26C50.0933 22.86 51.5733 16.98 52.32 9.62L56.4 10.34C56.1333 12.3667 55.88 14.02 55.64 15.3H65.64V19.34H63.48C63.24 25.7667 62.0933 31.2333 60.04 35.74C61.9333 38.8067 64.2133 41.2333 66.88 43.02L64.48 46.58C62.0267 44.7933 59.8667 42.4467 58 39.54C56.08 42.4467 53.7467 44.8867 51 46.86L48.76 43.26C51.64 41.3667 53.9733 38.82 55.76 35.62ZM40.8 28.66C40.6133 29.2467 40.4133 29.8067 40.2 30.34H48.2V33.86C47.5867 36.1267 46.4 38.1533 44.64 39.94C46.0533 40.5533 47.52 41.26 49.04 42.06L46.76 45.42C45.1333 44.46 43.32 43.5133 41.32 42.58C38.76 44.2067 35.4667 45.5533 31.44 46.62L29.44 43.02C32.2667 42.38 34.72 41.58 36.8 40.62C34.9067 39.8467 33.24 39.18 31.8 38.62C32.76 37.02 33.6 35.5 34.32 34.06H30.4V30.34H35.96C36.5467 28.7133 36.8133 27.9933 36.76 28.18L40.8 28.66ZM40.68 38.34C42.3333 37.0333 43.56 35.6067 44.36 34.06H38.56C38.2133 34.7267 37.6667 35.7 36.92 36.98C37.7733 37.2467 39.0267 37.7 40.68 38.34ZM34.28 10.42C35.16 11.86 35.9467 13.4333 36.64 15.14L33.44 16.58C32.6667 14.7133 31.8 13.0333 30.84 11.54L34.28 10.42ZM48.64 11.82C47.8133 13.5533 46.8 15.1933 45.6 16.74L42.56 15.14C43.68 13.5133 44.6133 11.8733 45.36 10.22L48.64 11.82ZM30.52 16.94H37.96V9.7H41.8V16.94H48.6V20.58H41.8V20.66C43.88 21.4867 46 22.4467 48.16 23.54L46 26.82C44.32 25.4867 42.92 24.4467 41.8 23.7V27.9H37.96V21.62C36.6 24.34 34.4933 26.7267 31.64 28.78L29.56 25.42C32.2 23.9267 34.1067 22.3133 35.28 20.58H30.52V16.94ZM71.2 46.3L70.32 42.38C71.4933 42.5667 72.4533 42.66 73.2 42.66C74.0533 42.66 74.48 42.1533 74.48 41.14V33.06C72.3733 33.8067 71.0267 34.2733 70.44 34.46L69.36 30.34C71.12 29.94 72.8267 29.46 74.48 28.9V20.9H70.16V16.86H74.48V9.78H78.56V16.86H81.96V20.9H78.56V27.26C79.8667 26.6467 80.9467 26.1133 81.8 25.66V29.74L78.56 31.34V42.18C78.56 44.9267 77.24 46.3 74.6 46.3H71.2ZM87.24 29.06C86.76 35.7 85.2533 41.5933 82.72 46.74L79.44 43.82C82.0267 38.7533 83.3467 32.2067 83.4 24.18V10.9H105.32V21.5H98.12V25.26H106.2V29.06H98.12V32.9H104.44V46.66H100.6V45.02H91.6V46.66H87.76V32.9H94.04V29.06H87.24ZM94.04 21.5H87.44V24.7L87.4 25.26H94.04V21.5ZM91.6 41.34H100.6V36.58H91.6V41.34ZM101.24 14.7H87.44V17.82H101.24V14.7ZM130.12 9.38C130.893 10.7933 131.467 11.94 131.84 12.82H145.96V16.9H116.8V25.3C116.693 34.1533 115.427 41.2733 113 46.66L109.44 43.5C111.44 39.1533 112.48 33.0867 112.56 25.3V12.82H127.16C126.6 11.8067 126.027 10.9267 125.44 10.18L130.12 9.38ZM126.16 17.26L130.12 18.18L129.36 20.58H144.2V24.22H127.96C127 26.46 126.027 28.38 125.04 29.98H130.68V25.78H134.84V29.98H143.36V33.74H134.84V36.94H146.32V40.74H134.84V46.74H130.68V40.74H116.88V36.94H130.68V33.74H120.84L119.96 30.06C121.16 28.5667 122.333 26.62 123.48 24.22H118.36V20.58H125C125.16 20.18 125.36 19.6333 125.6 18.94L126.16 17.26Z" fill="#39AED3"/>
</svg>
