<svg width="32" height="32" viewBox="0 0 32 32" fill="none" xmlns="http://www.w3.org/2000/svg">
<path fill-rule="evenodd" clip-rule="evenodd" d="M18.3202 9.45332C17.355 8.89858 16.1228 9.23136 15.568 10.1966L10.4503 19.1015C9.89552 20.0668 10.2283 21.299 11.1936 21.8537L17.8268 25.6659C18.7921 26.2207 20.0243 25.8879 20.579 24.9226L25.6968 16.0177C26.2515 15.0525 25.9187 13.8203 24.9535 13.2655L18.3202 9.45332ZM14.64 9.66327C15.4893 8.1855 17.3758 7.67602 18.8536 8.52532L25.4868 12.3375C26.9646 13.1868 27.4741 15.0733 26.6248 16.551L21.507 25.456C20.6577 26.9337 18.7713 27.4432 17.2935 26.5939L10.6602 22.7817C9.18245 21.9324 8.67297 20.046 9.52226 18.5682L14.64 9.66327Z" fill="#152132"/>
<path d="M15.5885 5.64441H7.9641C6.56007 5.64441 5.42188 6.7826 5.42188 8.18663V18.4222C5.42188 19.8262 6.56007 20.9644 7.9641 20.9644H15.5885C16.9926 20.9644 18.1308 19.8262 18.1308 18.4222V8.18663C18.1308 6.7826 16.9926 5.64441 15.5885 5.64441Z" fill="#F1F8FF"/>
<path fill-rule="evenodd" clip-rule="evenodd" d="M7.96423 6.17775C6.85475 6.17775 5.95534 7.07716 5.95534 8.18664V18.4222C5.95534 19.5317 6.85475 20.4311 7.96423 20.4311H15.5887C16.6982 20.4311 17.5976 19.5317 17.5976 18.4222V8.18664C17.5976 7.07716 16.6982 6.17775 15.5887 6.17775H7.96423ZM4.88867 8.18664C4.88867 6.48806 6.26565 5.11108 7.96423 5.11108H15.5887C17.2873 5.11108 18.6642 6.48806 18.6642 8.18664V18.4222C18.6642 20.1208 17.2873 21.4978 15.5887 21.4978H7.96423C6.26565 21.4978 4.88867 20.1208 4.88867 18.4222V8.18664Z" fill="#152132"/>
<path fill-rule="evenodd" clip-rule="evenodd" d="M5.20215 10.2045C5.20215 9.90992 5.44093 9.67114 5.73548 9.67114H10.9688C11.2634 9.67114 11.5022 9.90992 11.5022 10.2045C11.5022 10.499 11.2634 10.7378 10.9688 10.7378H5.73548C5.44093 10.7378 5.20215 10.499 5.20215 10.2045Z" fill="#152132"/>
<path fill-rule="evenodd" clip-rule="evenodd" d="M5.20215 13.3045C5.20215 13.0099 5.44093 12.7711 5.73548 12.7711H10.9688C11.2634 12.7711 11.5022 13.0099 11.5022 13.3045C11.5022 13.599 11.2634 13.8378 10.9688 13.8378H5.73548C5.44093 13.8378 5.20215 13.599 5.20215 13.3045Z" fill="#152132"/>
<path fill-rule="evenodd" clip-rule="evenodd" d="M5.20215 16.4022C5.20215 16.1077 5.44093 15.8689 5.73548 15.8689H9.72215C10.0167 15.8689 10.2555 16.1077 10.2555 16.4022C10.2555 16.6968 10.0167 16.9356 9.72215 16.9356H5.73548C5.44093 16.9356 5.20215 16.6968 5.20215 16.4022Z" fill="#152132"/>
</svg>
