<svg width="1440" height="374" viewBox="0 0 1440 374" fill="none" xmlns="http://www.w3.org/2000/svg">
<path d="M1440 384V86.5158C1440 86.5158 1341.5 128.654 1215.5 109.04C1090.93 89.6485 970 -32.0017 827.5 8.0311C685 48.0639 573 113.379 383 140.243C193 167.106 0 86.5158 0 86.5158V384H1440Z" fill="#E8F3FF" fill-opacity="0.34"/>
<path d="M1440 374V17C1440 17 1376.5 92.8166 1215.5 106.158C1089.99 116.559 1000 88.8349 830.5 40.4798C661 -7.8753 576 58.0488 386 84.2172C196 110.386 0 40.4798 0 40.4798V374H1440Z" fill="#EAF4FF" fill-opacity="0.4"/>
<path d="M1440 374V67.0605C1440 67.0605 1375 106.517 1214 119.841C1088.49 130.228 1006.5 23.5038 830.5 40.9272C654.5 58.3507 518.5 176.72 285 119.841C51.5 62.9624 0 106.518 0 106.518V374H1440Z" fill="url(#paint0_linear_693_5226)"/>
<defs>
<linearGradient id="paint0_linear_693_5226" x1="-33.5" y1="158.394" x2="1598.8" y2="256.476" gradientUnits="userSpaceOnUse">
<stop stop-color="#F3F7FF"/>
<stop offset="1" stop-color="#ECFAFF" stop-opacity="0.58"/>
</linearGradient>
</defs>
</svg>
