<svg width="433" height="87" viewBox="0 0 433 87" fill="none" xmlns="http://www.w3.org/2000/svg">
<path opacity="0.08" d="M32.16 38.56V61.48H22.32V85H0.36V34.36C0.36 25.08 3.28 17.56 9.12 11.8C15.04 5.96 22.72 3.04 32.16 3.04V25.96C28.4 25.96 25.8 26.92 24.36 28.84C23 30.68 22.32 33.92 22.32 38.56H32.16ZM41.61 26.56H63.57V59.8C63.57 63.08 64.93 64.72 67.65 64.72C70.45 64.72 71.85 63.08 71.85 59.8V26.56H93.69V59.44C93.69 67.2 91.21 73.64 86.25 78.76C81.37 83.8 75.17 86.32 67.65 86.32C59.73 86.32 53.41 83.8 48.69 78.76C43.97 73.72 41.61 66.68 41.61 57.64V26.56ZM158.612 85H136.772V51.88C136.772 48.52 135.372 46.84 132.572 46.84C129.852 46.84 128.492 48.52 128.492 51.88V85H106.532V52.36C106.532 44.76 109.052 38.36 114.092 33.16C119.132 27.88 125.292 25.24 132.572 25.24C140.572 25.24 146.892 27.8 151.532 32.92C156.252 37.96 158.612 45 158.612 54.04V85ZM229.174 57.52C228.534 66 225.254 72.92 219.334 78.28C213.494 83.64 206.654 86.32 198.814 86.32C190.494 86.32 183.334 83.32 177.334 77.32C171.414 71.32 168.454 64.12 168.454 55.72C168.454 47.32 171.414 40.16 177.334 34.24C183.334 28.24 190.494 25.24 198.814 25.24C205.934 25.24 212.294 27.48 217.894 31.96C223.494 36.44 227.054 42.4 228.574 49.84L206.014 50.56C204.254 48.08 201.854 46.84 198.814 46.84C196.414 46.84 194.334 47.72 192.574 49.48C190.894 51.24 190.054 53.32 190.054 55.72C190.054 58.12 190.894 60.24 192.574 62.08C194.334 63.84 196.414 64.72 198.814 64.72C200.734 64.72 202.454 64.16 203.974 63.04C205.574 61.92 206.654 60.36 207.214 58.36L229.174 57.52ZM258.162 4.95999V27.88H268.002V51.04H258.162C258.162 55.68 258.882 58.88 260.322 60.64C261.762 62.4 264.442 63.28 268.362 63.28V86.32C258.282 86.32 250.402 83.48 244.722 77.8C239.042 72.04 236.202 63.92 236.202 53.44V4.95999H258.162ZM279.28 11.08C279.28 8.11999 280.28 5.63999 282.28 3.64C284.36 1.55999 286.88 0.519993 289.84 0.519993C292.8 0.519993 295.28 1.55999 297.28 3.64C299.36 5.63999 300.4 8.11999 300.4 11.08C300.4 14.04 299.36 16.56 297.28 18.64C295.28 20.64 292.8 21.64 289.84 21.64C286.88 21.64 284.36 20.64 282.28 18.64C280.28 16.56 279.28 14.04 279.28 11.08ZM300.64 26.56V85H278.68V26.56H300.64ZM310.125 55.84C310.125 47.52 313.125 40.36 319.125 34.36C325.205 28.28 332.405 25.24 340.725 25.24C349.045 25.24 356.205 28.28 362.205 34.36C368.285 40.36 371.325 47.52 371.325 55.84C371.325 64.16 368.325 71.32 362.325 77.32C356.325 83.32 349.125 86.32 340.725 86.32C332.325 86.32 325.125 83.32 319.125 77.32C313.125 71.32 310.125 64.16 310.125 55.84ZM331.845 55.84C331.845 58.24 332.685 60.32 334.365 62.08C336.125 63.76 338.245 64.6 340.725 64.6C343.205 64.6 345.285 63.76 346.965 62.08C348.725 60.32 349.605 58.24 349.605 55.84C349.605 53.36 348.725 51.28 346.965 49.6C345.285 47.84 343.205 46.96 340.725 46.96C338.245 46.96 336.125 47.84 334.365 49.6C332.685 51.28 331.845 53.36 331.845 55.84ZM432.596 85H410.756V51.88C410.756 48.52 409.356 46.84 406.556 46.84C403.836 46.84 402.476 48.52 402.476 51.88V85H380.516V52.36C380.516 44.76 383.036 38.36 388.076 33.16C393.116 27.88 399.276 25.24 406.556 25.24C414.556 25.24 420.876 27.8 425.516 32.92C430.236 37.96 432.596 45 432.596 54.04V85Z" fill="url(#paint0_linear_409_7076)"/>
<defs>
<linearGradient id="paint0_linear_409_7076" x1="217" y1="-11" x2="217" y2="138.5" gradientUnits="userSpaceOnUse">
<stop stop-color="#00B4DC"/>
<stop offset="1" stop-color="#57CDFF" stop-opacity="0"/>
</linearGradient>
</defs>
</svg>
