<svg width="160" height="57" viewBox="0 0 160 57" fill="none" xmlns="http://www.w3.org/2000/svg">
<rect x="12" y="8.97527" width="4" height="40" rx="2" fill="#39AED3"/>
<path d="M33.8 12.0553H62.6V16.0953H33.8V12.0553ZM29.92 23.0553H66.2V27.2153H47.28C43.9467 33.8819 41.0133 38.6819 38.48 41.6153C44.6667 41.1886 50.96 40.5219 57.36 39.6153C56 37.2153 54.6667 34.9753 53.36 32.8953L56.72 30.8153C60.2933 36.1219 63.0933 40.7886 65.12 44.8153L61.36 47.4553C60.7733 46.0953 60.12 44.7486 59.4 43.4153C51.64 44.5086 42.96 45.4019 33.36 46.0953L32.28 41.8553C32.7867 41.6686 33.12 41.5219 33.28 41.4153C35.68 39.6553 38.8 34.9219 42.64 27.2153H29.92V23.0553ZM75.52 34.9353V41.5753H100.48V34.8953L98.24 38.2553C95.2533 35.2953 92.6933 32.9753 90.56 31.2953V36.4153C90.56 39.1353 89.28 40.4953 86.72 40.4953H83.08L82 36.6153C83.0133 36.6953 84.1067 36.7353 85.28 36.7353C86.2133 36.7353 86.68 36.1486 86.68 34.9753V30.7753C83.5067 33.6553 80.2 36.1753 76.76 38.3353L75.52 34.9353ZM100.48 45.4153H75.52V47.1753H71.56V18.8953H75.52V34.1753C79.4133 31.9619 83.1333 29.2819 86.68 26.1353V19.2953C90.04 17.6419 92.68 16.2819 94.6 15.2153H75.68V11.2953H100.92V15.2153C97.64 17.5353 94.1867 19.6686 90.56 21.6153V26.9753C93.7067 29.0819 97.0133 31.5619 100.48 34.4153V18.9353H104.44V47.2153H100.48V45.4153ZM79.44 20.0553C81.8933 22.3219 83.72 24.2553 84.92 25.8553L81.8 28.0153C80.4667 26.2286 78.6667 24.2153 76.4 21.9753L79.44 20.0553ZM100 21.4553C98.3733 24.0686 96.52 26.2953 94.44 28.1353L91.48 26.0553C93.5333 24.2419 95.2667 22.1619 96.68 19.8153L100 21.4553ZM134.8 19.8153L134.36 21.4153C135.213 25.2286 136.32 28.6553 137.68 31.6953C138.827 28.2553 139.48 24.2953 139.64 19.8153H134.8ZM135.76 36.0953C134.48 33.5353 133.347 30.5886 132.36 27.2553C131.8 28.5086 131.173 29.7486 130.48 30.9753L127.88 27.7353C130.093 23.3353 131.573 17.4553 132.32 10.0953L136.4 10.8153C136.133 12.8419 135.88 14.4953 135.64 15.7753H145.64V19.8153H143.48C143.24 26.2419 142.093 31.7086 140.04 36.2153C141.933 39.2819 144.213 41.7086 146.88 43.4953L144.48 47.0553C142.027 45.2686 139.867 42.9219 138 40.0153C136.08 42.9219 133.747 45.3619 131 47.3353L128.76 43.7353C131.64 41.8419 133.973 39.2953 135.76 36.0953ZM120.8 29.1353C120.613 29.7219 120.413 30.2819 120.2 30.8153H128.2V34.3353C127.587 36.6019 126.4 38.6286 124.64 40.4153C126.053 41.0286 127.52 41.7353 129.04 42.5353L126.76 45.8953C125.133 44.9353 123.32 43.9886 121.32 43.0553C118.76 44.6819 115.467 46.0286 111.44 47.0953L109.44 43.4953C112.267 42.8553 114.72 42.0553 116.8 41.0953C114.907 40.3219 113.24 39.6553 111.8 39.0953C112.76 37.4953 113.6 35.9753 114.32 34.5353H110.4V30.8153H115.96C116.547 29.1886 116.813 28.4686 116.76 28.6553L120.8 29.1353ZM120.68 38.8153C122.333 37.5086 123.56 36.0819 124.36 34.5353H118.56C118.213 35.2019 117.667 36.1753 116.92 37.4553C117.773 37.7219 119.027 38.1753 120.68 38.8153ZM114.28 10.8953C115.16 12.3353 115.947 13.9086 116.64 15.6153L113.44 17.0553C112.667 15.1886 111.8 13.5086 110.84 12.0153L114.28 10.8953ZM128.64 12.2953C127.813 14.0286 126.8 15.6686 125.6 17.2153L122.56 15.6153C123.68 13.9886 124.613 12.3486 125.36 10.6953L128.64 12.2953ZM110.52 17.4153H117.96V10.1753H121.8V17.4153H128.6V21.0553H121.8V21.1353C123.88 21.9619 126 22.9219 128.16 24.0153L126 27.2953C124.32 25.9619 122.92 24.9219 121.8 24.1753V28.3753H117.96V22.0953C116.6 24.8153 114.493 27.2019 111.64 29.2553L109.56 25.8953C112.2 24.4019 114.107 22.7886 115.28 21.0553H110.52V17.4153Z" fill="#39AED3"/>
</svg>
