<svg width="103" height="36" viewBox="0 0 103 36" fill="none" xmlns="http://www.w3.org/2000/svg">
<rect x="0.799805" y="2" width="102" height="32" rx="16" fill="#0CB5D6" fill-opacity="0.2"/>
<circle cx="17" cy="18" r="14" fill="white"/>
<path fill-rule="evenodd" clip-rule="evenodd" d="M31 18C31 25.732 24.732 32 17 32C9.26801 32 3 25.732 3 18C3 10.268 9.26801 4 17 4C24.732 4 31 10.268 31 18ZM20.447 26.345C20.3412 26.3437 20.2402 26.3005 20.1662 26.2249C20.0922 26.1493 20.0511 26.0475 20.052 25.9417L20.053 25.8045C20.0584 25.1201 20.082 22.0917 20.0687 21.55C20.0734 21.4552 20.053 21.3608 20.0093 21.2765C19.9657 21.1921 19.9005 21.1209 19.8203 21.07C19.734 21.0306 19.6648 20.9613 19.6253 20.875C19.5858 20.7887 19.5787 20.6911 19.6053 20.6C19.6327 20.5077 19.692 20.4282 19.7726 20.3757C19.8532 20.3232 19.9499 20.3011 20.0453 20.3133C21.577 20.5083 23.192 18.91 23.5137 18.2133C23.9274 17.1865 24.0875 16.0751 23.9803 14.9733C23.894 14.2532 23.616 13.5694 23.1753 12.9933C23.1334 12.9452 23.1036 12.8876 23.0885 12.8256C23.0734 12.7635 23.0735 12.6987 23.0887 12.6367C23.257 11.9361 23.282 11.2088 23.162 10.4983C21.9953 10.6967 20.9053 11.7583 20.8937 11.77C20.829 11.8348 20.7439 11.8752 20.6529 11.8847C20.5618 11.8941 20.4703 11.8718 20.3937 11.8217C20.3937 11.8217 19.807 11.5083 17.8937 11.4883C15.977 11.5133 15.3937 11.83 15.3937 11.8333C15.3181 11.8825 15.2277 11.9036 15.1381 11.893C15.0486 11.8823 14.9656 11.8406 14.9037 11.775C14.892 11.7633 13.812 10.7017 12.6353 10.5033C12.5154 11.2138 12.5403 11.9411 12.7087 12.6417C12.7239 12.7037 12.724 12.7685 12.7089 12.8306C12.6938 12.8926 12.664 12.9502 12.622 12.9983C12.1839 13.5759 11.9062 14.2589 11.817 14.9783C11.7099 16.0801 11.87 17.1915 12.2837 18.2183C12.6053 18.915 14.2203 20.5133 15.752 20.3183C15.8472 20.3066 15.9434 20.3292 16.0234 20.3821C16.1035 20.4349 16.162 20.5145 16.1887 20.6067C16.2144 20.6988 16.2064 20.7972 16.166 20.8839C16.1257 20.9707 16.0557 21.0402 15.9687 21.08C15.8894 21.1295 15.8245 21.1989 15.7806 21.2815C15.7367 21.364 15.7154 21.4566 15.7187 21.55C15.7038 22.0941 15.7275 25.1469 15.7327 25.8134V25.8136L15.7337 25.9417C15.7341 25.9942 15.7242 26.0463 15.7045 26.095C15.6848 26.1437 15.6557 26.188 15.6189 26.2255C15.582 26.2629 15.5382 26.2928 15.4898 26.3133C15.4415 26.3338 15.3895 26.3446 15.337 26.345C15.2327 26.3451 15.1326 26.3046 15.0576 26.2321C14.9826 26.1596 14.9388 26.0609 14.9353 25.9567C14.9353 25.9275 14.9342 25.7754 14.9325 25.5434L14.9325 25.5427C14.9296 25.149 14.925 24.5257 14.9214 23.883V23.552C14.9208 23.552 14.9202 23.5519 14.9196 23.5518C14.915 22.6656 14.913 21.8112 14.9203 21.5383C14.9229 21.3893 14.9482 21.2415 14.9953 21.1C13.3837 20.8517 11.9503 19.4333 11.547 18.5567C11.0719 17.3936 10.8888 16.1318 11.0137 14.8817C11.1164 14.0733 11.4157 13.3025 11.8853 12.6367C11.6937 11.7519 11.708 10.835 11.927 9.95666C11.9516 9.87257 12.0034 9.799 12.0743 9.74744C12.1451 9.69588 12.2311 9.66923 12.3187 9.67166C13.6037 9.69999 14.792 10.6167 15.2553 11.0217C15.6337 10.8867 16.412 10.7067 17.887 10.6883C19.367 10.7067 20.1487 10.8867 20.527 11.0217C20.9903 10.6167 22.1787 9.69999 23.4637 9.67166C23.551 9.67035 23.6364 9.69742 23.7071 9.74882C23.7777 9.80022 23.8297 9.87315 23.8553 9.95666C24.0783 10.836 24.0948 11.7549 23.9037 12.6417C24.3697 13.3057 24.6666 14.0735 24.7687 14.8783C24.8936 16.1285 24.7105 17.3903 24.2353 18.5533C23.8337 19.425 22.402 20.8483 20.7887 21.0967C20.8344 21.2384 20.8591 21.3861 20.862 21.535C20.8787 22.1567 20.8487 25.7983 20.847 25.9533C20.8448 26.058 20.8017 26.1576 20.7269 26.2308C20.6522 26.304 20.5517 26.345 20.447 26.345ZM14.9196 23.5518C14.0895 23.448 12.4947 23.002 11.9064 22.085C10.933 20.555 9.85969 20.3217 9.81303 20.3117C9.7092 20.291 9.6014 20.3121 9.51308 20.3705C9.42475 20.4289 9.36304 20.5197 9.34136 20.6234C9.32992 20.6754 9.32899 20.7292 9.33862 20.7816C9.34825 20.8339 9.36824 20.8839 9.39743 20.9284C9.42661 20.973 9.4644 21.0113 9.50858 21.041C9.55276 21.0708 9.60243 21.0914 9.65469 21.1017L9.6548 21.1017C9.66745 21.1049 10.4544 21.2998 11.2314 22.5217C12.1014 23.8866 14.304 24.3822 14.9214 24.4597V23.883C14.9207 23.7728 14.9201 23.6621 14.9196 23.5518Z" fill="#0CB5D6"/>
</svg>
