<svg width="40" height="30" viewBox="0 0 40 30" fill="none" xmlns="http://www.w3.org/2000/svg">
<path d="M22.3411 12.4724C22.3231 11.0306 21.1865 9.86586 19.7813 9.84739C19.7697 9.84607 19.7581 9.84607 19.7466 9.84607H12.5969C12.2087 10.1468 11.958 10.623 11.958 11.1599C11.958 11.6955 12.2074 12.1717 12.5956 12.4724H18.178C19.0639 12.4724 19.7813 13.2085 19.7813 14.1174V16.3177H14.879C14.2966 16.3177 13.7425 16.439 13.2385 16.6593C12.2369 17.0946 11.436 17.9164 11.0117 18.944C10.797 19.4611 10.6787 20.0296 10.6787 20.6272V22.1125C10.6787 22.7101 10.797 23.2786 11.0117 23.7957C11.436 24.822 12.2369 25.6451 13.2385 26.0804C13.7425 26.3007 14.2966 26.4221 14.879 26.4221H20.1554C21.3627 26.4221 22.3423 25.4182 22.3423 24.1783V12.5094C22.3423 12.4975 22.3423 12.4843 22.3411 12.4724ZM18.3233 23.7957H14.9677C14.8224 23.7957 14.6784 23.7588 14.5524 23.6849C13.7669 23.2272 13.2385 22.3618 13.2385 21.3699C13.2385 20.3779 13.7669 19.5126 14.5524 19.0548C14.6784 18.9809 14.8224 18.944 14.9677 18.944H19.7813V22.2998C19.7813 23.1256 19.1282 23.7957 18.3233 23.7957Z" fill="#39AED3"/>
<path d="M8.31512 24.8457C8.21998 24.4302 7.97185 24.0767 7.63629 23.8498C7.54501 23.7878 7.44215 23.7456 7.33416 23.7245C7.14902 23.6876 6.96902 23.6638 6.8096 23.5807C6.28762 23.309 5.9302 22.7536 5.9302 22.1125V3.5882C5.9302 3.31119 5.8042 3.04736 5.58435 2.88511C5.32079 2.69252 4.99809 2.57776 4.64967 2.57776C4.30125 2.57776 3.97855 2.69252 3.71499 2.88643C3.49514 3.04736 3.36914 3.31119 3.36914 3.5882V24.1479C3.36914 24.2033 3.373 24.2574 3.38328 24.3115C3.59028 25.3932 4.43496 26.2387 5.4995 26.4208H7.43958C7.76614 26.4208 8.06699 26.2308 8.20584 25.9274C8.30355 25.715 8.35884 25.4763 8.35884 25.2243C8.35884 25.0951 8.34341 24.9671 8.31512 24.8457Z" fill="#39AED3"/>
<path d="M35.6052 11.4924C35.6052 11.9171 35.4483 12.3036 35.1912 12.5951C35.033 12.7745 34.8055 12.8722 34.5702 12.8722H29.3697V25.4117C29.3697 25.6887 29.2437 25.9525 29.0238 26.1148C28.7602 26.3087 28.4375 26.4234 28.0891 26.4234C27.7407 26.4234 27.418 26.3087 27.1544 26.1148C26.9346 25.9525 26.8086 25.6887 26.8086 25.4117V4.85194C26.8086 4.79654 26.8125 4.74245 26.8227 4.68837C27.0246 3.63439 27.832 2.80467 28.858 2.59361C28.9107 2.58306 28.966 2.5791 29.02 2.5791H35.015C35.285 2.5791 35.5435 2.70969 35.7003 2.93526C35.888 3.20568 35.9999 3.53546 35.9999 3.89162C35.9999 4.2491 35.888 4.5802 35.7003 4.85062C35.5422 5.07619 35.285 5.20546 35.015 5.20546H30.9742C30.0883 5.20546 29.3697 5.94285 29.3697 6.85172V10.2458H34.6615C34.9585 10.2458 35.2387 10.4015 35.3879 10.664C35.5255 10.9067 35.6052 11.1903 35.6052 11.4924Z" fill="#39AED3"/>
</svg>
