<svg width="280" height="87" viewBox="0 0 280 87" fill="none" xmlns="http://www.w3.org/2000/svg">
<path d="M25.788 10.433V32.889H22.932V31.209H18.9V32.889H16.044V10.433H25.788ZM18.9 28.353H22.932V13.261H18.9V28.353ZM5.572 7.46497H8.54V12.141H14.084C14.084 21.7916 13.944 27.7556 13.664 30.033C13.384 32.0863 12.0027 33.113 9.52 33.113C9.05333 33.113 8.316 33.057 7.308 32.945L6.58 30.285C7.532 30.397 8.35333 30.453 9.044 30.453C10.108 30.453 10.7427 29.8556 10.948 28.661C11.0787 27.4476 11.172 22.893 11.228 14.997H8.54V15.837C8.46533 23.901 6.67333 29.809 3.164 33.561L0.784 31.461C3.92 28.213 5.516 23.005 5.572 15.837V14.997H1.456V12.141H5.572V7.46497ZM40.348 14.185C39.0973 11.9263 37.604 10.181 35.868 8.94897L38.304 7.38097C40.6 9.00497 42.672 12.1596 44.52 16.845C47.1893 23.341 50.6147 27.933 54.796 30.621L52.976 32.945C48.6453 30.369 44.9773 25.3196 41.972 17.797L41.888 17.545C39.984 24.209 36.2413 29.3516 30.66 32.973L28.868 30.453C34.6733 26.6263 38.5 21.2036 40.348 14.185Z" fill="#2D3A3A"/>
<path d="M73.96 9.90497H77.208V27.097H88.016V29.897H73.96V9.90497ZM96.2143 9.90497H99.9383L107.582 29.897H104.082L102.262 24.885H93.8903L92.0703 29.897H88.5703L96.2143 9.90497ZM94.8703 22.197H101.282L98.1463 13.433H98.0343L94.8703 22.197ZM109.534 9.90497H123.17V12.705H112.81V18.249H122.582V21.049H112.81V29.897H109.534V9.90497Z" fill="#39AED3"/>
<path d="M142.94 8.80897H165.116V11.637H160.72V18.077H166.516V20.905H160.72V32.917H157.78V20.905H150.528C150.248 23.6303 149.697 25.945 148.876 27.849C147.775 30.2196 145.983 32.0303 143.5 33.281L141.904 30.789C144.163 29.4823 145.684 27.8396 146.468 25.861C146.972 24.461 147.336 22.809 147.56 20.905H141.512V18.077H147.756L147.784 17.825V11.637H142.94V8.80897ZM150.752 11.637V17.825L150.724 18.077H157.78V11.637H150.752ZM170.716 16.537L172.956 8.22097L175.868 8.69697L174.468 13.765H178.332C178.855 11.6556 179.265 9.50897 179.564 7.32497L182.56 7.68897C182.205 9.9103 181.804 11.9356 181.356 13.765H194.096V16.537H180.628L179.844 18.945H190.932V21.409C190.26 23.5743 188.925 25.5903 186.928 27.457C188.981 28.577 191.473 29.6223 194.404 30.593L192.892 33.365C189.532 32.1143 186.732 30.789 184.492 29.389C182.308 30.901 179.648 32.273 176.512 33.505L174.972 30.761C177.716 29.7716 180.031 28.7076 181.916 27.569C180.217 26.169 178.92 24.7036 178.024 23.173C176.027 27.2236 173.535 30.4623 170.548 32.889L169.008 30.173C172.779 26.813 175.616 22.2676 177.52 16.537H170.716ZM180.152 21.577C181.067 23.1076 182.467 24.545 184.352 25.889C185.995 24.5636 187.199 23.1263 187.964 21.577H180.152ZM187.264 7.29697C189.243 8.7903 190.848 10.2276 192.08 11.609L190.008 13.709C188.888 12.2343 187.311 10.7316 185.276 9.20097L187.264 7.29697ZM199.724 10.013H207.312V7.35297H210.28V10.013H216.3V12.729H210.28V15.221H213.472C216.104 13.3356 218.307 11.301 220.08 9.11697L222.292 10.741C221.023 12.2903 219.585 13.7836 217.98 15.221H222.656V17.965H214.368L213.444 18.553C212.791 18.945 211.727 19.5236 210.252 20.289H219.296V33.393H216.356V32.385H205.436V33.393H202.468V23.649L198.268 25.189L197.036 22.473C201.255 21.5023 205.249 19.9996 209.02 17.965H197.484V15.221H207.312V12.729H199.724V10.013ZM205.436 27.513V29.809H216.356V27.513H205.436ZM216.356 24.993V22.809H205.436V24.993H216.356ZM241.164 7.60497H244.132V15.501H250.236V18.357H244.132V29.529H250.88V32.385H234.248V29.529H241.164V18.357H235.256V15.501H241.164V7.60497ZM229.068 22.613C228.097 23.5276 227.071 24.4423 225.988 25.357L225.064 22.277C228.648 19.365 231.084 16.5183 232.372 13.737H225.736V10.937H229.516C229.143 9.98497 228.723 9.02364 228.256 8.05297L231.028 7.29697C231.513 8.45431 231.943 9.66764 232.316 10.937H235.34V13.401C234.649 15.3236 233.567 17.265 232.092 19.225C233.623 20.065 235.069 21.0636 236.432 22.221L234.78 24.769C233.809 23.761 232.867 22.9116 231.952 22.221V33.281H229.068V22.613ZM261.716 12.869C264.143 14.717 266.401 16.5556 268.492 18.385C269.911 16.481 271.133 14.353 272.16 12.001L274.82 13.401C273.625 16.1076 272.272 18.4503 270.76 20.429C272.851 22.3703 274.661 24.1716 276.192 25.833L273.924 28.129C272.524 26.4116 270.825 24.6103 268.828 22.725C266.457 25.1703 263.769 27.037 260.764 28.325L259.056 25.693C261.912 24.517 264.413 22.8276 266.56 20.625C264.469 18.7396 262.145 16.8356 259.588 14.913L261.716 12.869ZM254.856 8.44497H277.424V11.245H257.684V29.417H278.292V32.217H254.856V8.44497Z" fill="#2D3A3A"/>
<path d="M25.928 56.005V79.133H23.072V77.117H17.332V79.469H14.504V56.005H25.928ZM17.332 74.373H23.072V58.721H17.332V74.373ZM1.876 61.801H6.468V58.693C5.25467 58.8796 4.01333 59.0196 2.744 59.113L1.792 56.509C6.17867 56.1356 9.66 55.4636 12.236 54.493L13.608 56.901C12.04 57.461 10.5933 57.8903 9.268 58.189V61.801H13.748V64.517H9.268V65.525C10.7427 66.757 12.32 68.2596 14 70.033L12.292 72.581C11.116 70.845 10.108 69.445 9.268 68.381V80.001H6.468V69.053C5.32933 71.3116 3.948 73.3836 2.324 75.269L1.064 72.049C3.49067 69.8836 5.292 67.4196 6.468 64.657V64.517H1.876V61.801ZM42.308 70.089C40.908 70.5556 39.3587 71.013 37.66 71.461V77.117C37.66 79.0023 36.68 79.945 34.72 79.945H31.556L30.912 77.173C31.9013 77.285 32.8347 77.341 33.712 77.341C34.3653 77.341 34.692 77.0236 34.692 76.389V72.161C32.9933 72.5156 31.3227 72.8236 29.68 73.085L29.26 70.145C31.052 69.8836 32.8627 69.557 34.692 69.165V64.349H29.232V61.549H34.692V58.945C33.4413 59.2063 32.0507 59.4396 30.52 59.645L29.904 56.873C33.824 56.4436 37.2773 55.6223 40.264 54.409L41.272 57.153C40.2267 57.545 39.0227 57.9183 37.66 58.273V61.549H43.4C43.2507 59.6263 43.176 57.2556 43.176 54.437H46.116C46.1533 57.237 46.2467 59.6076 46.396 61.549H54.768V64.349H46.62C46.788 66.1036 47.0307 67.597 47.348 68.829L47.684 70.061C48.8413 68.6236 49.84 67.037 50.68 65.301L53.2 66.645C51.968 69.1836 50.4933 71.377 48.776 73.225C49.056 73.9156 49.3547 74.485 49.672 74.933C50.456 76.165 51.0533 76.781 51.464 76.781C51.7627 76.781 52.08 75.3716 52.416 72.553L55.02 73.925C54.292 77.9383 53.2467 79.945 51.884 79.945C50.652 79.945 49.3733 79.1143 48.048 77.453C47.5067 76.7623 47.04 76.025 46.648 75.241C44.744 76.809 42.6253 78.041 40.292 78.937L38.668 76.445C41.2627 75.493 43.5213 74.149 45.444 72.413C45.1453 71.517 44.8653 70.593 44.604 69.641C44.1933 68.185 43.876 66.421 43.652 64.349H37.66V68.493C39.4707 68.0263 41.02 67.569 42.308 67.121V70.089ZM49.196 54.689C51.156 55.921 52.836 57.153 54.236 58.385L52.136 60.485C51.016 59.2903 49.3827 57.9836 47.236 56.565L49.196 54.689ZM76.272 80.085L75.488 77.341L78.148 77.425C78.82 77.425 79.156 76.977 79.156 76.081V58.721H72.8V55.893H82.068V76.893C82.068 79.021 80.9573 80.085 78.736 80.085H76.272ZM69.412 54.381C70.5693 55.893 71.512 57.293 72.24 58.581L69.944 60.177C69.2907 58.8703 68.3667 57.405 67.172 55.781L69.412 54.381ZM65.884 55.389C65.1373 57.5916 64.204 59.6636 63.084 61.605V80.365H60.172V65.777C59.5373 66.5423 58.7347 67.4476 57.764 68.493L56.812 65.497C59.6867 62.2863 61.824 58.497 63.224 54.129L65.884 55.389ZM65.66 59.141H68.544V80.309H65.66V59.141ZM85.26 65.665H110.712V68.577H85.26V65.665ZM138.488 69.809C138.264 72.0303 137.919 73.4956 137.452 74.205C137.041 74.877 136.099 75.213 134.624 75.213H129.64C127.96 75.213 127.12 74.3263 127.12 72.553V62.893H134.596V58.693H126.868V55.977H137.452V65.665H130.032V71.377C130.032 71.993 130.34 72.329 130.956 72.385H134.148C134.783 72.385 135.184 72.133 135.352 71.629C135.501 71.1623 135.623 70.2476 135.716 68.885L138.488 69.809ZM114.352 57.909H118.664V54.353H121.52V57.909H125.804V60.429H121.52V63.817H126.056V66.449H122.136V69.613H125.776V72.245H122.136V76.613C124.003 76.9863 127.325 77.173 132.104 77.173C135.277 77.1356 137.536 77.0703 138.88 76.977L138.376 79.833H132.748C125.879 79.833 121.576 79.469 119.84 78.741C118.552 78.1623 117.432 77.2756 116.48 76.081C116.107 77.649 115.649 79.077 115.108 80.365L112.868 78.377C114.081 75.2596 114.772 71.7503 114.94 67.849L117.544 68.157C117.488 69.8183 117.348 71.4236 117.124 72.973C117.796 73.9436 118.524 74.7276 119.308 75.325V66.449H113.848V63.817H118.664V60.429H114.352V57.909ZM161.252 54.157C162.447 55.0716 163.52 56.0423 164.472 57.069L163.184 58.385H166.516V61.157H158.284C158.508 64.4236 158.844 66.925 159.292 68.661C159.329 68.8476 159.432 69.2303 159.6 69.809C160.701 67.8676 161.625 65.6183 162.372 63.061L165.032 64.209C163.949 67.7556 162.549 70.7796 160.832 73.281C161.075 73.8223 161.345 74.317 161.644 74.765C162.428 75.9783 163.035 76.585 163.464 76.585C163.763 76.585 164.089 75.241 164.444 72.553L167.076 73.981C166.348 77.9383 165.293 79.917 163.912 79.917C162.699 79.917 161.401 79.0863 160.02 77.425C159.572 76.8463 159.199 76.2863 158.9 75.745C157.052 77.761 154.924 79.301 152.516 80.365L150.836 77.901C153.468 76.725 155.708 75.017 157.556 72.777C157.201 71.8623 156.856 70.7983 156.52 69.585C155.923 67.4383 155.512 64.629 155.288 61.157H146.552V65.049H153.412C153.337 70.257 153.057 73.505 152.572 74.793C152.124 75.9503 151.144 76.5476 149.632 76.585C149.053 76.585 148.297 76.5383 147.364 76.445L146.468 73.785C147.719 73.8783 148.661 73.925 149.296 73.925C149.763 73.8876 150.061 73.5983 150.192 73.057C150.341 72.497 150.444 70.7423 150.5 67.793H146.552C146.421 72.9823 145.273 77.1636 143.108 80.337L140.896 78.349C142.613 75.8103 143.519 72.2636 143.612 67.709V58.385H155.148C155.111 57.5263 155.092 56.173 155.092 54.325H158.06C158.06 55.7436 158.088 57.097 158.144 58.385H162.092C161.345 57.545 160.449 56.7236 159.404 55.921L161.252 54.157ZM169.596 64.937H174.972V54.521H177.912V64.937H194.488V67.793H185.696C186.872 71.7503 189.933 74.8583 194.88 77.117L193.144 79.889C187.469 76.8836 184.044 72.8516 182.868 67.793H177.912V76.669C179.816 76.1836 181.683 75.6236 183.512 74.989L184.268 77.733C181.543 78.6476 178.5 79.4783 175.14 80.225L174.216 77.537C174.72 77.2756 174.972 76.8463 174.972 76.249V67.793H169.596V64.937ZM191.716 56.649C189.476 59.169 186.135 61.4183 181.692 63.397L179.956 61.073C184.38 59.1503 187.647 57.013 189.756 54.661L191.716 56.649Z" fill="#2D3A3A"/>
</svg>
