<svg width="580" height="486" viewBox="0 0 580 486" fill="none" xmlns="http://www.w3.org/2000/svg">
<rect opacity="0.3" x="109.064" width="470.936" height="451.404" rx="34.7234" fill="#E9F1FF" fill-opacity="0.35"/>
<rect x="158.339" y="62.9868" width="353.334" height="325.844" rx="34.7234" fill="#E9F1FF" fill-opacity="0.3"/>
<rect x="208.928" y="109.75" width="252.287" height="231.905" rx="34.7234" fill="#E9F1FF" fill-opacity="0.35"/>
<path d="M315.821 411.476C308.458 411.476 304.771 402.357 309.977 397.023L342.916 363.276C346.144 359.97 351.376 359.97 354.604 363.276L387.543 397.023C392.749 402.357 389.062 411.476 381.699 411.476H315.821Z" fill="#E6F6FF"/>
<g opacity="0.5">
<circle cx="83.2012" cy="436.321" r="30.5577" fill="#C3D7FE"/>
<path d="M82.1447 432.808H84.2037C85.467 432.808 86.0987 433.25 86.0987 434.136C86.0987 434.743 85.8748 435.215 85.4272 435.553C84.9896 435.891 84.3728 436.061 83.5771 436.061H80.8316L74.1322 452.578C73.5752 453.941 72.7993 454.622 71.8046 454.622C71.3669 454.622 70.9989 454.488 70.7004 454.219C70.402 453.95 70.2528 453.617 70.2528 453.219C70.2528 452.931 70.3821 452.458 70.6408 451.802L77.0418 436.061H76.0272C74.7639 436.061 74.1322 435.628 74.1322 434.762C74.1322 434.146 74.3511 433.668 74.7887 433.33C75.2364 432.982 75.8581 432.808 76.6538 432.808H78.3548L80.2497 428.138C80.8863 426.586 81.6473 425.487 82.5326 424.84C83.4278 424.184 84.6215 423.855 86.1136 423.855H87.8145C89.0878 423.855 89.7244 424.293 89.7244 425.168C89.7244 425.795 89.5006 426.282 89.053 426.631C88.6053 426.979 87.9836 427.153 87.1879 427.153H86.7403C85.9047 427.153 85.2432 427.322 84.7558 427.66C84.2783 427.998 83.8755 428.57 83.5472 429.376L82.1447 432.808ZM89.62 435.777L91.306 433.867C92.052 433.022 92.7483 432.599 93.3949 432.599C93.8425 432.599 94.2155 432.748 94.514 433.047C94.8124 433.335 94.9616 433.698 94.9616 434.136C94.9616 434.743 94.5687 435.439 93.7828 436.225L91.2314 438.746L92.4698 441.641L92.6041 441.939C92.7135 442.188 92.7682 442.432 92.7682 442.67C92.7682 443.118 92.5693 443.526 92.1714 443.894C91.7835 444.252 91.3458 444.431 90.8584 444.431C90.2715 444.431 89.809 444.073 89.4707 443.357L88.5457 441.328L86.7999 443.178L86.4866 443.506C85.8997 444.123 85.3029 444.431 84.6961 444.431C84.2485 444.431 83.8755 444.287 83.5771 443.998C83.2886 443.7 83.1444 443.332 83.1444 442.894C83.1444 442.347 83.5223 441.686 84.2783 440.91L86.9342 438.179L85.7853 435.508C85.5963 435.061 85.5018 434.713 85.5018 434.464C85.5018 433.987 85.6958 433.559 86.0837 433.181C86.4816 432.793 86.9243 432.599 87.4117 432.599C88.0085 432.599 88.476 433.012 88.8142 433.837L89.62 435.777Z" fill="#5373E7"/>
<circle cx="162.651" cy="436.32" r="24.4462" fill="#A5DDF4"/>
<path d="M161.806 432.91H163.453C164.464 432.91 164.969 433.264 164.969 433.972C164.969 434.458 164.79 434.836 164.432 435.106C164.082 435.377 163.588 435.512 162.952 435.512H160.755L155.396 448.726C154.95 449.816 154.329 450.361 153.534 450.361C153.184 450.361 152.889 450.254 152.65 450.039C152.412 449.824 152.292 449.558 152.292 449.239C152.292 449.008 152.396 448.631 152.603 448.105L157.723 435.512H156.912C155.901 435.512 155.396 435.166 155.396 434.474C155.396 433.98 155.571 433.598 155.921 433.328C156.279 433.049 156.776 432.91 157.413 432.91H158.774L160.29 429.174C160.799 427.932 161.408 427.053 162.116 426.536C162.832 426.011 163.787 425.748 164.981 425.748H166.342C167.36 425.748 167.87 426.098 167.87 426.798C167.87 427.3 167.691 427.69 167.332 427.968C166.974 428.247 166.477 428.386 165.84 428.386H165.482C164.814 428.386 164.285 428.521 163.895 428.792C163.513 429.062 163.19 429.52 162.928 430.165L161.806 432.91ZM167.786 435.285L169.135 433.758C169.732 433.081 170.289 432.743 170.806 432.743C171.164 432.743 171.462 432.862 171.701 433.101C171.94 433.332 172.059 433.622 172.059 433.972C172.059 434.458 171.745 435.015 171.116 435.643L169.075 437.661L170.066 439.976L170.173 440.215C170.261 440.414 170.305 440.609 170.305 440.8C170.305 441.158 170.145 441.484 169.827 441.779C169.517 442.065 169.167 442.209 168.777 442.209C168.307 442.209 167.937 441.922 167.667 441.349L166.927 439.726L165.53 441.206L165.279 441.469C164.81 441.962 164.332 442.209 163.847 442.209C163.489 442.209 163.19 442.093 162.952 441.862C162.721 441.624 162.606 441.329 162.606 440.979C162.606 440.541 162.908 440.012 163.513 439.392L165.637 437.207L164.718 435.071C164.567 434.712 164.492 434.434 164.492 434.235C164.492 433.853 164.647 433.511 164.957 433.208C165.275 432.898 165.629 432.743 166.019 432.743C166.497 432.743 166.871 433.073 167.141 433.734L167.786 435.285Z" fill="#EAF5FD"/>
<circle cx="235.99" cy="436.321" r="24.4462" fill="#A5DDF4"/>
<path d="M235.145 432.91H236.792C237.803 432.91 238.308 433.264 238.308 433.973C238.308 434.458 238.129 434.836 237.771 435.107C237.421 435.377 236.927 435.512 236.291 435.512H234.094L228.735 448.726C228.289 449.816 227.668 450.362 226.873 450.362C226.522 450.362 226.228 450.254 225.989 450.039C225.751 449.824 225.631 449.558 225.631 449.24C225.631 449.009 225.735 448.631 225.942 448.106L231.062 435.512H230.251C229.24 435.512 228.735 435.166 228.735 434.474C228.735 433.981 228.91 433.599 229.26 433.328C229.618 433.05 230.115 432.91 230.752 432.91H232.113L233.629 429.174C234.138 427.933 234.747 427.053 235.455 426.536C236.171 426.011 237.126 425.748 238.32 425.748H239.681C240.699 425.748 241.208 426.098 241.208 426.799C241.208 427.3 241.029 427.69 240.671 427.968C240.313 428.247 239.816 428.386 239.179 428.386H238.821C238.153 428.386 237.623 428.522 237.234 428.792C236.852 429.063 236.529 429.52 236.267 430.165L235.145 432.91ZM241.125 435.286L242.474 433.758C243.071 433.081 243.628 432.743 244.145 432.743C244.503 432.743 244.801 432.863 245.04 433.101C245.279 433.332 245.398 433.622 245.398 433.973C245.398 434.458 245.084 435.015 244.455 435.644L242.414 437.661L243.405 439.977L243.512 440.215C243.6 440.414 243.643 440.609 243.643 440.8C243.643 441.158 243.484 441.485 243.166 441.779C242.856 442.066 242.506 442.209 242.116 442.209C241.646 442.209 241.276 441.922 241.006 441.349L240.265 439.726L238.869 441.206L238.618 441.469C238.149 441.962 237.671 442.209 237.186 442.209C236.828 442.209 236.529 442.093 236.291 441.863C236.06 441.624 235.944 441.33 235.944 440.979C235.944 440.542 236.247 440.013 236.852 439.392L238.976 437.207L238.057 435.071C237.906 434.713 237.83 434.434 237.83 434.235C237.83 433.853 237.986 433.511 238.296 433.209C238.614 432.898 238.968 432.743 239.358 432.743C239.836 432.743 240.21 433.073 240.48 433.734L241.125 435.286Z" fill="#EAF5FD"/>
<circle cx="309.328" cy="436.321" r="24.4462" fill="#A5DDF4"/>
<path d="M308.483 432.91H310.13C311.14 432.91 311.646 433.264 311.646 433.973C311.646 434.458 311.467 434.836 311.109 435.107C310.758 435.377 310.265 435.512 309.628 435.512H307.432L302.073 448.726C301.627 449.816 301.006 450.362 300.21 450.362C299.86 450.362 299.566 450.254 299.327 450.039C299.088 449.824 298.969 449.558 298.969 449.24C298.969 449.009 299.073 448.631 299.279 448.106L304.4 435.512H303.589C302.578 435.512 302.073 435.166 302.073 434.474C302.073 433.981 302.248 433.599 302.598 433.328C302.956 433.05 303.453 432.91 304.09 432.91H305.451L306.967 429.174C307.476 427.933 308.085 427.053 308.793 426.536C309.509 426.011 310.464 425.748 311.658 425.748H313.018C314.037 425.748 314.546 426.098 314.546 426.799C314.546 427.3 314.367 427.69 314.009 427.968C313.651 428.247 313.154 428.386 312.517 428.386H312.159C311.491 428.386 310.961 428.522 310.571 428.792C310.189 429.063 309.867 429.52 309.605 430.165L308.483 432.91ZM314.463 435.286L315.812 433.758C316.408 433.081 316.965 432.743 317.483 432.743C317.841 432.743 318.139 432.863 318.378 433.101C318.617 433.332 318.736 433.622 318.736 433.973C318.736 434.458 318.422 435.015 317.793 435.644L315.752 437.661L316.743 439.977L316.85 440.215C316.938 440.414 316.981 440.609 316.981 440.8C316.981 441.158 316.822 441.485 316.504 441.779C316.194 442.066 315.843 442.209 315.453 442.209C314.984 442.209 314.614 441.922 314.343 441.349L313.603 439.726L312.207 441.206L311.956 441.469C311.487 441.962 311.009 442.209 310.524 442.209C310.166 442.209 309.867 442.093 309.628 441.863C309.398 441.624 309.282 441.33 309.282 440.979C309.282 440.542 309.585 440.013 310.189 439.392L312.314 437.207L311.395 435.071C311.244 434.713 311.168 434.434 311.168 434.235C311.168 433.853 311.323 433.511 311.634 433.209C311.952 432.898 312.306 432.743 312.696 432.743C313.174 432.743 313.548 433.073 313.818 433.734L314.463 435.286Z" fill="#EAF5FD"/>
</g>
<path opacity="0.8" d="M302.693 387.818H338.815C342.19 387.818 344.927 390.554 344.927 393.93V478.675C344.927 482.05 342.19 484.786 338.815 484.786H47.9699C44.5946 484.786 41.8584 482.05 41.8584 478.675V406.401" stroke="#99C3F4" stroke-width="2.29183" stroke-linecap="round" stroke-linejoin="round"/>
<g filter="url(#filter0_dd_409_7101)">
<rect x="19" y="56.7144" width="212.857" height="197.991" rx="24.4462" fill="#F0FAFF"/>
</g>
<path d="M48.6363 121.393C57.9133 121.393 65.4338 113.873 65.4338 104.596C65.4338 95.3188 57.9133 87.7983 48.6363 87.7983C39.3593 87.7983 31.8389 95.3188 31.8389 104.596C31.8389 113.873 39.3593 121.393 48.6363 121.393Z" fill="#7DCCE4"/>
<mask id="mask0_409_7101" style="mask-type:luminance" maskUnits="userSpaceOnUse" x="31" y="87" width="35" height="35">
<path d="M48.6363 121.393C57.9133 121.393 65.4338 113.873 65.4338 104.596C65.4338 95.3188 57.9133 87.7983 48.6363 87.7983C39.3593 87.7983 31.8389 95.3188 31.8389 104.596C31.8389 113.873 39.3593 121.393 48.6363 121.393Z" fill="white"/>
</mask>
<g mask="url(#mask0_409_7101)">
<path fill-rule="evenodd" clip-rule="evenodd" d="M48.636 115.427C52.7211 115.427 56.0269 117.375 56.0269 119.767C56.0269 122.159 52.7211 122.549 48.636 122.549C44.5509 122.549 41.2451 122.159 41.2451 119.767C41.2451 117.375 44.5509 115.427 48.636 115.427ZM54.6389 105.065C55.6748 107.444 55.1669 110.213 53.3541 112.068C51.5413 113.924 48.785 114.497 46.3829 113.517C43.9808 112.537 42.4116 110.2 42.4141 107.606C42.3937 105.936 43.0379 104.326 44.2049 103.132C45.3719 101.937 46.9659 101.255 48.6359 101.236C51.2294 101.173 53.6029 102.687 54.6389 105.065Z" fill="#1F97B1"/>
</g>
<path fill-rule="evenodd" clip-rule="evenodd" d="M200.514 87.7983H83.0413C80.5002 87.8057 78.4421 89.8092 78.4345 92.2828V97.7975L73.7344 102.373L78.4345 106.948V125.916C78.4421 128.39 80.5002 130.393 83.0413 130.401H200.514C203.055 130.393 205.113 128.39 205.12 125.916V92.2828C205.113 89.8092 203.055 87.8057 200.514 87.7983Z" fill="#7DCCE4"/>
<rect x="85.3447" y="94.5251" width="92.1351" height="6.72666" rx="1.5192" fill="#EAF3F9"/>
<rect x="85.3447" y="105.736" width="112.866" height="6.72667" rx="1.5192" fill="#EAF3F9"/>
<rect x="85.3447" y="116.947" width="66.798" height="6.72666" rx="1.5192" fill="#EAF3F9"/>
<path d="M191.703 188.967C182.426 188.967 174.905 181.447 174.905 172.17C174.905 162.893 182.426 155.372 191.703 155.372C200.98 155.372 208.5 162.893 208.5 172.17C208.5 181.447 200.98 188.967 191.703 188.967Z" fill="#7DCCE4"/>
<mask id="mask1_409_7101" style="mask-type:luminance" maskUnits="userSpaceOnUse" x="174" y="155" width="35" height="34">
<path d="M191.703 188.967C182.426 188.967 174.905 181.447 174.905 172.17C174.905 162.893 182.426 155.372 191.703 155.372C200.98 155.372 208.5 162.893 208.5 172.17C208.5 181.447 200.98 188.967 191.703 188.967Z" fill="white"/>
</mask>
<g mask="url(#mask1_409_7101)">
<path fill-rule="evenodd" clip-rule="evenodd" d="M191.703 183.001C187.618 183.001 184.312 184.949 184.312 187.341C184.312 189.733 187.618 190.123 191.703 190.123C195.788 190.123 199.094 189.733 199.094 187.341C199.094 184.949 195.788 183.001 191.703 183.001ZM185.7 172.639C184.664 175.017 185.172 177.786 186.985 179.642C188.798 181.498 191.554 182.071 193.956 181.091C196.358 180.111 197.927 177.774 197.925 175.18C197.945 173.51 197.301 171.9 196.134 170.705C194.967 169.511 193.373 168.829 191.703 168.81C189.109 168.747 186.736 170.261 185.7 172.639Z" fill="#1F97B1"/>
</g>
<path fill-rule="evenodd" clip-rule="evenodd" d="M39.8243 155.372H157.297C159.838 155.379 161.896 157.383 161.903 159.857V165.371L166.604 169.947L161.903 174.522V193.49C161.896 195.963 159.838 197.967 157.297 197.974H39.8243C37.2832 197.967 35.2251 195.963 35.2175 193.49V159.857C35.2251 157.383 37.2832 155.379 39.8243 155.372Z" fill="#7DCCE4"/>
<rect width="92.1351" height="6.72666" rx="1.5192" transform="matrix(-1 0 0 1 133.876 162.099)" fill="#EAF3F9"/>
<rect width="112.866" height="6.72666" rx="1.5192" transform="matrix(-1 0 0 1 154.823 173.31)" fill="#EAF3F9"/>
<rect width="66.798" height="6.72667" rx="1.5192" transform="matrix(-1 0 0 1 108.874 184.521)" fill="#EAF3F9"/>
<path d="M163.795 316.366L163.834 313.011L163.869 311.982L163.876 311.693C163.88 311.581 163.89 311.393 163.905 311.247C163.936 310.934 163.987 310.622 164.075 310.323C164.164 309.999 164.245 309.607 164.538 309.41L164.534 309.412C164.754 309.125 165.032 308.866 165.373 308.72C166.017 308.447 166.773 308.468 167.514 308.65L167.835 308.721L168.11 308.785C168.29 308.832 168.469 308.884 168.638 308.945C168.666 308.955 168.713 308.92 168.753 308.932C168.947 308.978 169.629 309.184 170.072 309.272C171.102 309.482 172.126 309.717 173.077 310.244C173.225 310.325 175.407 311.109 175.191 312.019C174.967 312.968 172.744 312.768 172.474 312.669C171.819 312.428 171.192 312.052 170.486 312.062C169.449 312.079 168.5 311.722 167.509 311.544L166.927 311.43C166.867 311.418 166.81 311.404 166.747 311.404C166.625 311.392 166.504 311.487 166.492 311.609C166.484 311.667 166.493 311.728 166.515 311.779C166.525 311.813 166.54 311.812 166.55 311.867L166.579 312.15C166.618 312.576 166.651 313.001 166.625 313.424C166.583 314.153 166.309 314.875 166.188 315.601C166.161 315.772 166.325 315.985 166.3 316.174C166.281 316.328 166.263 316.59 166.173 316.739C166.134 316.805 166.086 316.872 166.121 316.939C166.266 317.245 165.912 319.665 164.779 319.594C163.665 319.535 163.79 317.337 163.795 316.366Z" fill="#C3D7FE"/>
<path d="M159.807 296.458C160.059 296.519 160.946 296.773 161.525 296.89C162.862 297.171 164.192 297.477 165.456 298.077C165.653 298.168 166.004 298.258 165.788 299.168C165.56 300.119 165.197 300.617 164.845 300.497C163.989 300.21 163.156 299.786 162.249 299.748C160.917 299.696 159.675 299.272 158.386 299.028C158.098 298.974 157.81 298.914 157.523 298.848L157.351 298.811C157.325 298.805 157.299 298.804 157.272 298.803C157.158 298.795 157.084 298.917 157.098 299.02C157.096 299.032 157.101 299.044 157.105 299.057C157.11 299.063 157.114 299.076 157.11 299.141L157.128 299.505L157.179 300.336C157.214 300.889 157.237 301.441 157.207 301.99C157.154 302.94 156.869 303.882 156.74 304.826C156.71 305.05 156.869 305.325 156.845 305.57C156.824 305.772 156.802 306.109 156.711 306.306C156.671 306.393 156.623 306.48 156.652 306.567C156.792 306.964 156.45 307.054 155.384 306.871C155.149 306.834 154.841 306.851 154.682 306.748C154.673 306.744 154.663 306.736 154.654 306.732C154.019 306.414 154.333 306.134 154.331 305.841C154.324 304.388 154.382 302.932 154.416 301.48L154.463 300.141C154.469 299.92 154.472 299.695 154.466 299.472C154.467 299.244 154.443 299.045 154.456 298.667C154.477 298.223 154.471 297.695 154.758 297.331L154.754 297.339C154.947 296.905 155.248 296.49 155.676 296.259C156.074 296.029 156.534 295.919 157.008 295.923C157.245 295.922 157.49 295.951 157.729 295.995L158.247 296.1C158.733 296.204 159.209 296.315 159.653 296.46C159.695 296.475 159.755 296.445 159.807 296.458Z" fill="#C3D7FE"/>
<path d="M150.305 283.648C150.502 283.698 151.198 283.903 151.65 283.996C152.703 284.209 153.747 284.45 154.724 284.984C154.878 285.065 155.152 285.135 154.936 286.046C154.712 286.994 154.397 287.508 154.124 287.406C153.455 287.16 152.817 286.782 152.093 286.789C151.036 286.801 150.067 286.437 149.053 286.257L148.713 286.19L148.673 286.184L148.667 286.183L148.649 286.18L148.62 286.176C148.58 286.17 148.54 286.158 148.499 286.158C148.411 286.151 148.349 286.249 148.366 286.335C148.372 286.377 148.392 286.418 148.418 286.446C148.423 286.452 148.424 286.447 148.428 286.459L148.437 286.54L148.451 286.705L148.481 287.03C148.521 287.465 148.55 287.899 148.525 288.331C148.482 289.077 148.206 289.811 148.086 290.552C148.057 290.728 148.22 290.948 148.196 291.137C148.175 291.297 148.155 291.56 148.067 291.713C148.028 291.779 147.982 291.849 148.011 291.916C148.158 292.23 147.813 292.296 146.748 292.143C146.513 292.112 146.203 292.12 146.046 292.041C146.038 292.037 146.024 292.032 146.019 292.025C145.38 291.772 145.693 291.554 145.686 291.321C145.666 290.178 145.711 289.038 145.729 287.897L145.764 286.847C145.769 286.673 145.77 286.501 145.764 286.319C145.763 285.999 145.76 285.676 145.795 285.355C145.827 285.01 145.834 284.602 146.082 284.36L146.079 284.362C146.241 284.045 146.459 283.727 146.782 283.543C147.38 283.18 148.094 283.124 148.862 283.302L149.37 283.414L149.648 283.481C149.833 283.529 150.012 283.582 150.187 283.643C150.216 283.668 150.265 283.637 150.305 283.648Z" fill="#C3D7FE"/>
<path d="M293.008 122.037C293.021 121.783 293.103 120.888 293.109 120.311C293.122 118.98 293.169 117.651 293.56 116.328C293.621 116.121 293.638 115.769 294.721 115.79C295.847 115.813 296.495 116.058 296.441 116.419C296.309 117.293 296.018 118.17 296.184 119.043C296.426 120.321 296.228 121.59 296.244 122.865C296.25 123.437 296.229 124.009 296.21 124.581L296.184 125.438L296.179 125.867L296.175 126.497C296.172 126.744 296.18 126.996 296.171 127.244C296.162 127.493 296.137 127.734 296.095 127.96C296.008 128.415 295.848 128.812 295.587 129.158C295.334 129.508 294.94 129.795 294.522 129.96C294.102 130.12 293.67 130.166 293.217 130.094C292.827 130.036 292.424 129.872 292.032 129.639C291.837 129.522 291.647 129.385 291.461 129.253L291.184 129.055L291.048 128.956C291.034 128.947 291.027 128.94 291.023 128.937L291.007 128.922L290.974 128.893C290.62 128.585 290.272 128.267 289.9 127.985C289.725 127.853 289.393 127.888 289.197 127.751C289.035 127.637 288.755 127.461 288.637 127.281C288.585 127.203 288.537 127.113 288.445 127.106C288.02 127.065 288.141 126.683 288.907 125.701C289.076 125.485 289.237 125.167 289.415 125.058C289.422 125.054 289.437 125.043 289.444 125.037C290.082 124.547 290.144 124.988 290.402 125.12C291.033 125.447 291.653 125.79 292.273 126.139L292.505 126.271C292.578 126.311 292.682 126.372 292.675 126.365L292.781 126.415C292.848 126.448 292.915 126.477 292.983 126.483C293.024 126.486 293.071 126.486 293.109 126.466C293.15 126.447 293.18 126.409 293.192 126.366C293.216 126.279 293.186 126.164 293.117 126.083C293.098 126.061 293.048 126.037 293.016 126.026L292.995 126.017C292.993 126.013 292.99 126.021 292.988 126.008C292.988 125.992 292.986 125.978 292.987 125.963C292.987 125.903 292.996 125.843 293.022 125.784L293.021 125.788C292.992 125.536 292.927 125.285 292.94 125.033C292.982 124.081 292.922 123.087 293.051 122.176C293.052 122.139 293.004 122.091 293.008 122.037Z" fill="#C3D7FE"/>
<path d="M283.53 103.355C283.543 103.101 283.625 102.207 283.631 101.63C283.645 100.299 283.691 98.9698 284.083 97.6466C284.144 97.4403 284.161 97.0877 285.243 97.1088C286.37 97.1319 287.018 97.3771 286.963 97.738C286.831 98.612 286.541 99.4892 286.706 100.361C286.949 101.64 286.751 102.909 286.766 104.184C286.773 104.756 286.752 105.328 286.732 105.9L286.707 106.756L286.701 107.185L286.697 107.816C286.695 108.062 286.702 108.315 286.694 108.563C286.685 108.812 286.659 109.052 286.618 109.279C286.53 109.734 286.37 110.131 286.109 110.477C285.857 110.827 285.463 111.114 285.045 111.279C284.624 111.439 284.193 111.485 283.739 111.413C283.35 111.354 282.946 111.191 282.555 110.958C282.359 110.841 282.169 110.704 281.983 110.572L281.707 110.374L281.57 110.275C281.556 110.266 281.549 110.259 281.546 110.255L281.529 110.241L281.497 110.212C281.143 109.904 280.794 109.586 280.423 109.304C280.248 109.172 279.915 109.207 279.72 109.07C279.557 108.955 279.278 108.78 279.159 108.599C279.107 108.522 279.06 108.432 278.968 108.424C278.543 108.384 278.664 108.002 279.43 107.02C279.599 106.804 279.759 106.486 279.938 106.376C279.945 106.373 279.959 106.362 279.967 106.356C280.605 105.866 280.666 106.307 280.924 106.439C281.556 106.766 282.176 107.109 282.795 107.458L283.027 107.59C283.1 107.63 283.205 107.691 283.198 107.684L283.304 107.734C283.371 107.766 283.438 107.796 283.505 107.802C283.547 107.805 283.593 107.804 283.632 107.785C283.673 107.766 283.702 107.728 283.714 107.685C283.738 107.597 283.709 107.483 283.639 107.402C283.621 107.38 283.571 107.356 283.538 107.345L283.517 107.336C283.515 107.332 283.512 107.34 283.511 107.327C283.51 107.311 283.508 107.297 283.51 107.282C283.51 107.222 283.519 107.161 283.545 107.103L283.543 107.107C283.514 106.855 283.45 106.603 283.462 106.351C283.505 105.4 283.444 104.406 283.574 103.495C283.575 103.457 283.527 103.41 283.53 103.355Z" fill="#C3D7FE"/>
<path d="M273.747 84.0718C273.76 83.8177 273.842 82.9233 273.848 82.3466C273.861 81.0152 273.908 79.6861 274.3 78.3629C274.36 78.1566 274.378 77.804 275.46 77.8251C276.587 77.8482 277.234 78.0934 277.18 78.4543C277.048 79.3283 276.758 80.2055 276.923 81.0778C277.166 82.3566 276.968 83.6255 276.983 84.9002C276.989 85.4725 276.969 86.0445 276.949 86.6158L276.923 87.4728L276.918 87.9018L276.914 88.5319C276.912 88.7788 276.919 89.0311 276.91 89.2795C276.901 89.5279 276.876 89.7688 276.835 89.9952C276.747 90.4501 276.587 90.8471 276.326 91.1936C276.073 91.5429 275.68 91.8303 275.262 91.9951C274.841 92.1556 274.409 92.2011 273.956 92.1294C273.566 92.0708 273.163 91.9069 272.772 91.6739C272.576 91.5575 272.386 91.4205 272.2 91.2884L271.923 91.0902L271.787 90.9911C271.773 90.9821 271.766 90.9752 271.763 90.9717L271.746 90.9572L271.714 90.9282C271.359 90.6201 271.011 90.3021 270.64 90.0203C270.465 89.888 270.132 89.9234 269.936 89.7859C269.774 89.6717 269.494 89.496 269.376 89.3157C269.324 89.2385 269.277 89.1485 269.185 89.1408C268.76 89.1003 268.88 88.718 269.646 87.7363C269.816 87.5206 269.976 87.2023 270.154 87.0927C270.161 87.089 270.176 87.0783 270.184 87.0725C270.821 86.5822 270.883 87.0229 271.141 87.1553C271.773 87.4823 272.393 87.8256 273.012 88.1745L273.244 88.3059C273.317 88.3463 273.422 88.4072 273.414 88.4003L273.521 88.45C273.587 88.4827 273.654 88.5119 273.722 88.5178C273.764 88.5214 273.81 88.5207 273.849 88.5011C273.889 88.4822 273.919 88.4445 273.931 88.4014C273.955 88.3138 273.925 88.1989 273.856 88.1184C273.837 88.0962 273.788 88.0724 273.755 88.061L273.734 88.0521C273.732 88.0479 273.729 88.0564 273.728 88.0431C273.727 88.0276 273.725 88.0129 273.726 87.9981C273.727 87.9383 273.736 87.8777 273.761 87.8189L273.76 87.8232C273.731 87.5712 273.666 87.3197 273.679 87.0678C273.721 86.1164 273.661 85.1223 273.79 84.211C273.791 84.1737 273.744 84.126 273.747 84.0718Z" fill="#C3D7FE"/>
<g filter="url(#filter1_dd_409_7101)">
<rect x="210.232" y="148.615" width="190.558" height="202.721" rx="24.4462" fill="white"/>
</g>
<path d="M364.976 332.415C352.287 332.415 342.001 322.129 342.001 309.44C342.001 296.752 352.287 286.465 364.976 286.465C377.665 286.465 387.951 296.752 387.951 309.44C387.951 322.129 377.665 332.415 364.976 332.415Z" fill="#F0F8FF"/>
<mask id="mask2_409_7101" style="mask-type:luminance" maskUnits="userSpaceOnUse" x="342" y="286" width="46" height="47">
<path d="M364.976 332.415C352.287 332.415 342.001 322.129 342.001 309.44C342.001 296.752 352.287 286.465 364.976 286.465C377.665 286.465 387.951 296.752 387.951 309.44C387.951 322.129 377.665 332.415 364.976 332.415Z" fill="white"/>
</mask>
<g mask="url(#mask2_409_7101)">
<path fill-rule="evenodd" clip-rule="evenodd" d="M364.977 324.255C359.389 324.255 354.868 326.92 354.868 330.192C354.868 333.463 359.389 333.996 364.977 333.996C370.564 333.996 375.086 333.463 375.086 330.192C375.086 326.92 370.564 324.255 364.977 324.255ZM356.766 310.083C355.349 313.336 356.043 317.123 358.523 319.661C361.002 322.2 364.772 322.983 368.058 321.643C371.343 320.303 373.49 317.106 373.486 313.558C373.514 311.273 372.633 309.072 371.037 307.438C369.441 305.804 367.26 304.871 364.976 304.845C361.429 304.759 358.183 306.829 356.766 310.083Z" fill="#C3D7FE"/>
</g>
<path fill-rule="evenodd" clip-rule="evenodd" d="M228.953 220.227C227.388 217.897 223.751 219.004 223.751 221.811L223.751 232.589H223.746V256.776C223.746 258.346 225.019 259.618 226.588 259.618H242.528C244.097 259.618 245.37 258.346 245.37 256.776V235.431C245.37 233.861 244.097 232.589 242.528 232.589H237.254L228.953 220.227Z" fill="#EAF5FD"/>
<path fill-rule="evenodd" clip-rule="evenodd" d="M253.279 220.227C251.714 217.897 248.078 219.004 248.078 221.811L248.078 232.589H248.072V256.776C248.072 258.346 249.345 259.618 250.914 259.618H266.854C268.423 259.618 269.696 258.346 269.696 256.776V235.431C269.696 233.861 268.423 232.589 266.854 232.589H261.58L253.279 220.227Z" fill="#EAF5FD"/>
<path d="M233.186 183.751L233.575 177.372L233.683 173.666C233.701 172.905 233.71 172.139 233.71 171.369C233.71 171.235 233.701 170.81 233.683 170.094C234.515 170.112 235.129 170.121 235.522 170.121C235.979 170.121 236.583 170.112 237.335 170.094L237.268 171.987C237.608 171.504 237.899 171.146 238.141 170.913C238.383 170.671 238.651 170.465 238.947 170.295C239.251 170.125 239.587 169.995 239.954 169.906C240.321 169.816 240.697 169.771 241.082 169.771C241.44 169.771 241.807 169.816 242.183 169.906C242.183 170.738 242.223 171.795 242.304 173.075C241.776 172.932 241.297 172.86 240.867 172.86C240.348 172.86 239.887 172.941 239.484 173.102C239.09 173.254 238.732 173.491 238.41 173.814C238.096 174.127 237.837 174.516 237.631 174.982C237.461 175.358 237.335 175.846 237.255 176.446C237.183 176.911 237.12 177.708 237.067 178.836C237.022 179.964 237 181.074 237 182.166C237 182.587 237.013 183.115 237.04 183.751C236.36 183.733 235.737 183.724 235.173 183.724C234.618 183.724 233.956 183.733 233.186 183.751ZM256.082 180.702C255.965 181.231 255.8 182.18 255.585 183.549C254.618 183.755 253.803 183.894 253.141 183.966C252.478 184.037 251.811 184.073 251.14 184.073C249.967 184.073 248.915 183.957 247.984 183.724C247.062 183.491 246.252 183.066 245.554 182.448C244.855 181.821 244.341 181.056 244.009 180.152C243.678 179.248 243.513 178.299 243.513 177.305C243.513 176.204 243.705 175.138 244.09 174.109C244.475 173.07 245.012 172.224 245.701 171.571C246.4 170.908 247.192 170.443 248.078 170.174C248.965 169.897 249.891 169.758 250.858 169.758C251.771 169.758 252.64 169.874 253.463 170.107C254.287 170.331 254.976 170.703 255.531 171.222C256.095 171.741 256.525 172.368 256.82 173.102C257.125 173.827 257.277 174.637 257.277 175.532C257.277 175.953 257.232 176.387 257.143 176.835L247.299 176.848C247.282 177.18 247.273 177.444 247.273 177.641C247.273 178.241 247.376 178.791 247.581 179.292C247.787 179.794 248.087 180.219 248.481 180.568C248.875 180.917 249.345 181.177 249.891 181.347C250.437 181.508 250.974 181.589 251.503 181.589C252.12 181.589 252.787 181.522 253.503 181.387C254.229 181.253 255.088 181.025 256.082 180.702ZM247.407 175.277L253.691 175.291C253.691 174.861 253.678 174.543 253.651 174.337C253.624 174.131 253.562 173.899 253.463 173.639C253.374 173.37 253.248 173.138 253.087 172.941C252.926 172.735 252.738 172.565 252.523 172.43C252.308 172.296 252.058 172.193 251.771 172.122C251.494 172.05 251.194 172.014 250.871 172.014C250.495 172.014 250.128 172.072 249.77 172.189C249.421 172.305 249.099 172.475 248.803 172.699C248.508 172.923 248.266 173.173 248.078 173.451C247.899 173.728 247.765 173.997 247.675 174.257C247.586 174.507 247.496 174.848 247.407 175.277ZM258.942 183.496L258.647 180.541C259.524 180.899 260.267 181.15 260.876 181.293C261.485 181.428 262.044 181.495 262.554 181.495C263.065 181.495 263.494 181.437 263.844 181.32C264.193 181.195 264.452 181.016 264.622 180.783C264.792 180.541 264.878 180.291 264.878 180.031C264.878 179.915 264.864 179.807 264.837 179.709C264.819 179.61 264.779 179.507 264.716 179.4C264.663 179.292 264.596 179.194 264.515 179.104C264.443 179.006 264.34 178.899 264.206 178.782C264.072 178.657 263.879 178.5 263.629 178.312L262.904 177.735C262.205 177.189 261.673 176.759 261.306 176.446C260.938 176.132 260.63 175.814 260.379 175.492C260.128 175.161 259.936 174.816 259.802 174.458C259.676 174.091 259.614 173.72 259.614 173.344C259.614 172.69 259.81 172.068 260.204 171.477C260.607 170.886 261.189 170.456 261.95 170.188C262.711 169.91 263.606 169.771 264.636 169.771C265.809 169.771 267.16 169.91 268.691 170.188L268.866 172.994C267.827 172.574 266.829 172.363 265.871 172.363C265.352 172.363 264.895 172.417 264.502 172.524C264.117 172.623 263.839 172.78 263.669 172.994C263.499 173.2 263.414 173.433 263.414 173.693C263.414 173.845 263.441 173.997 263.494 174.149C263.548 174.292 263.642 174.445 263.776 174.606C263.911 174.767 264.063 174.919 264.233 175.062C264.412 175.206 264.779 175.488 265.334 175.908C265.889 176.329 266.373 176.71 266.784 177.05C267.205 177.39 267.55 177.735 267.818 178.084C268.087 178.424 268.293 178.791 268.436 179.185C268.579 179.579 268.651 179.977 268.651 180.38C268.651 181.052 268.445 181.674 268.033 182.247C267.621 182.82 266.999 183.267 266.167 183.59C265.334 183.912 264.403 184.073 263.374 184.073C262.836 184.073 262.183 184.028 261.413 183.939C260.643 183.858 259.819 183.71 258.942 183.496ZM285.222 183.751C284.434 183.733 283.83 183.724 283.409 183.724C282.881 183.724 282.281 183.733 281.61 183.751L281.637 181.522C281.386 181.898 281.167 182.202 280.979 182.435C280.791 182.659 280.544 182.882 280.24 183.106C279.936 183.321 279.604 183.496 279.246 183.63C278.888 183.755 278.476 183.858 278.011 183.939C277.554 184.028 277.066 184.073 276.547 184.073C275.544 184.073 274.672 183.93 273.928 183.643C273.185 183.348 272.595 182.905 272.156 182.314C271.726 181.723 271.511 180.877 271.511 179.776V179.494L271.726 176.029L271.928 171.463C271.937 171.096 271.941 170.64 271.941 170.094C272.792 170.112 273.458 170.121 273.942 170.121C274.452 170.121 275.07 170.112 275.795 170.094L275.352 176.217C275.325 176.692 275.303 177.095 275.285 177.426C275.276 177.748 275.271 177.981 275.271 178.124C275.271 178.769 275.365 179.306 275.553 179.736C275.75 180.156 276.086 180.479 276.56 180.702C277.044 180.926 277.559 181.038 278.105 181.038C278.624 181.038 279.116 180.94 279.582 180.743C280.003 180.564 280.361 180.313 280.656 179.991C280.961 179.668 281.216 179.234 281.422 178.688C281.574 178.294 281.69 177.748 281.771 177.05C281.833 176.557 281.892 175.711 281.945 174.512C282.017 173.062 282.066 171.589 282.093 170.094C282.979 170.112 283.655 170.121 284.121 170.121C284.649 170.121 285.244 170.112 285.907 170.094C285.799 171.374 285.688 172.976 285.571 174.901C285.455 176.817 285.374 178.402 285.329 179.655C285.285 180.899 285.249 182.265 285.222 183.751ZM288.566 183.751C288.7 182.238 288.861 179.521 289.049 175.6C289.246 171.669 289.367 168.276 289.412 165.421C290.343 165.439 291.005 165.447 291.399 165.447C291.927 165.447 292.572 165.439 293.333 165.421L293.011 170.322L292.541 181.253L292.487 183.751C291.753 183.733 291.131 183.724 290.62 183.724C290.45 183.724 289.765 183.733 288.566 183.751ZM304.237 180.944C304.13 181.437 303.959 182.35 303.727 183.684C302.975 183.854 302.384 183.961 301.954 184.006C301.524 184.051 301.122 184.073 300.746 184.073C300.083 184.073 299.488 184.01 298.96 183.885C298.44 183.76 298.011 183.54 297.67 183.227C297.33 182.905 297.097 182.533 296.972 182.112C296.856 181.683 296.797 181.24 296.797 180.783C296.797 180.667 296.802 180.51 296.811 180.313C296.82 180.116 296.856 179.48 296.918 178.406L297.227 172.82H295.293C295.338 172.283 295.379 171.419 295.414 170.228H297.442C297.496 169.709 297.55 168.827 297.603 167.583L299.188 167.274C299.519 167.211 300.159 167.063 301.108 166.831C301.045 168.039 301.01 169.172 301.001 170.228H304.412C304.349 171.437 304.318 172.301 304.318 172.82H300.893C300.705 176.463 300.611 178.572 300.611 179.145C300.611 179.7 300.669 180.129 300.786 180.434C300.911 180.738 301.108 180.958 301.377 181.092C301.645 181.226 301.932 181.293 302.236 181.293C302.46 181.293 302.693 181.275 302.934 181.24C303.185 181.204 303.619 181.105 304.237 180.944Z" fill="#6FC7E2"/>
<path d="M223.747 199.633H387.951" stroke="#EEF4F4" stroke-width="1.3751" stroke-linecap="round" stroke-linejoin="round"/>
<path d="M249.11 278.434L249.683 270.675L250.256 259.574L250.59 245.847C251.991 245.879 253.153 245.894 254.076 245.894C255.285 245.894 256.439 245.879 257.537 245.847L257.107 251.529C257.012 252.929 256.885 255.181 256.726 258.285C257.235 257.521 257.657 256.948 257.991 256.566C258.341 256.184 258.723 255.834 259.137 255.515C259.566 255.181 260.004 254.903 260.45 254.68C260.895 254.457 261.413 254.258 262.002 254.083C262.606 253.908 263.275 253.773 264.007 253.677C264.739 253.582 265.487 253.534 266.251 253.534C267.572 253.534 268.837 253.685 270.047 253.987C271.272 254.29 272.323 254.799 273.198 255.515C274.089 256.232 274.694 257.075 275.012 258.046C275.347 259.001 275.514 260.003 275.514 261.054C275.514 261.738 275.474 262.805 275.394 264.253L274.821 274.686C274.774 275.768 274.75 277.017 274.75 278.434C273.461 278.402 272.323 278.386 271.336 278.386C270.27 278.386 269.052 278.402 267.683 278.434C267.906 276.556 268.121 273.993 268.328 270.746C268.551 267.5 268.662 265.192 268.662 263.823C268.662 262.566 268.455 261.587 268.041 260.887C267.644 260.171 267.047 259.645 266.251 259.311C265.471 258.961 264.612 258.786 263.673 258.786C262.463 258.786 261.397 259.001 260.474 259.431C259.582 259.844 258.834 260.465 258.23 261.293C257.736 261.977 257.322 262.956 256.988 264.229C256.638 265.566 256.383 267.635 256.224 270.436C256.145 271.789 256.057 274.455 255.962 278.434C254.704 278.402 253.622 278.386 252.715 278.386C251.855 278.386 250.654 278.402 249.11 278.434ZM281.864 250.001C281.928 248.361 281.959 247.104 281.959 246.229V245.465C283.408 245.497 284.586 245.512 285.493 245.512C286.734 245.512 287.888 245.497 288.954 245.465C288.907 245.863 288.875 246.316 288.859 246.825L288.739 250.001C287.53 249.969 286.416 249.953 285.397 249.953C284.379 249.953 283.201 249.969 281.864 250.001ZM280.575 278.434C280.814 276.046 280.981 274.049 281.076 272.441C281.235 269.895 281.371 266.959 281.482 263.632C281.609 260.306 281.697 257.147 281.745 254.155C283.304 254.186 284.474 254.202 285.254 254.202C285.97 254.202 287.132 254.186 288.739 254.155C288.517 256.924 288.334 259.566 288.19 262.08C288.063 264.595 287.968 267.476 287.904 270.723C287.84 273.969 287.808 276.54 287.808 278.434C286.36 278.402 285.198 278.386 284.323 278.386C283.495 278.386 282.246 278.402 280.575 278.434ZM291.055 284.092C292.137 281.115 293.331 277.662 294.636 273.731C296.371 273.762 297.596 273.778 298.313 273.778C298.886 273.778 300.063 273.762 301.846 273.731C301.209 274.813 300.533 275.927 299.817 277.073C299.116 278.203 298.392 279.412 297.644 280.702C296.912 281.991 296.252 283.113 295.663 284.068C294.66 284.036 293.904 284.02 293.395 284.02C292.774 284.02 291.994 284.044 291.055 284.092ZM318.509 278.434C318.748 275.744 319.035 270.914 319.369 263.943C319.719 256.956 319.934 250.924 320.013 245.847C321.669 245.879 322.846 245.894 323.547 245.894C324.486 245.894 325.632 245.879 326.984 245.847L326.411 254.56L325.576 273.993L325.48 278.434C324.175 278.402 323.069 278.386 322.162 278.386C321.86 278.386 320.642 278.402 318.509 278.434ZM333.311 259.478C333.534 258.332 333.669 257.529 333.717 257.067C333.78 256.606 333.884 255.905 334.027 254.966C336.191 254.457 338.101 254.099 339.756 253.892C341.412 253.685 343.011 253.582 344.555 253.582C346.306 253.582 347.913 253.788 349.377 254.202C350.842 254.6 351.988 255.245 352.815 256.136C353.643 257.027 354.057 258.308 354.057 259.98C354.057 260.887 353.929 263.202 353.675 266.927C353.42 270.635 353.269 274.471 353.221 278.434C352.011 278.402 350.897 278.386 349.879 278.386C348.908 278.386 347.77 278.402 346.465 278.434C346.672 276.508 346.839 274.28 346.966 271.749L347.277 265.805C346.672 266.203 346.21 266.481 345.892 266.64C345.574 266.799 345.215 266.951 344.818 267.094C344.42 267.221 343.719 267.428 342.717 267.715C341.714 267.985 340.91 268.224 340.306 268.431C339.701 268.638 339.152 268.876 338.658 269.147C338.181 269.402 337.775 269.696 337.441 270.03C337.107 270.349 336.86 270.691 336.701 271.057C336.557 271.407 336.486 271.789 336.486 272.203C336.486 272.871 336.677 273.452 337.059 273.945C337.457 274.423 337.95 274.757 338.539 274.948C339.128 275.139 339.82 275.235 340.616 275.235C341.125 275.235 341.658 275.195 342.215 275.115C342.788 275.036 343.552 274.837 344.507 274.518C344.173 275.426 343.783 276.778 343.337 278.577C342.207 278.768 341.308 278.887 340.64 278.935C339.971 278.983 339.351 279.007 338.778 279.007C336.772 279.007 335.125 278.736 333.836 278.195C332.547 277.654 331.592 276.794 330.971 275.617C330.366 274.439 330.064 273.253 330.064 272.059C330.064 271.375 330.183 270.699 330.422 270.03C330.661 269.362 331.011 268.749 331.472 268.192C331.934 267.635 332.531 267.102 333.263 266.592C333.995 266.067 335.053 265.566 336.438 265.088C337.823 264.595 339.653 264.102 341.929 263.608C342.534 263.481 343.162 263.33 343.815 263.155C344.467 262.964 344.985 262.781 345.367 262.606C345.765 262.431 346.107 262.208 346.393 261.937C346.68 261.651 346.887 261.356 347.014 261.054C347.157 260.752 347.229 260.441 347.229 260.123C347.229 259.502 347.022 258.977 346.608 258.547C346.21 258.118 345.685 257.823 345.032 257.664C344.396 257.489 343.688 257.401 342.908 257.401C340.011 257.401 336.812 258.094 333.311 259.478ZM360.096 278.434L360.383 274.495L361.099 258.977H358.139C358.187 258.499 358.234 257.728 358.282 256.661C358.346 255.579 358.386 254.791 358.401 254.298H361.648V253.343C361.648 251.64 361.72 250.343 361.863 249.452C362.006 248.544 362.269 247.804 362.651 247.231C363.049 246.658 363.598 246.165 364.298 245.751C365.014 245.321 365.794 245.035 366.638 244.892C367.481 244.733 368.349 244.653 369.24 244.653C371.054 244.653 372.972 244.908 374.993 245.417C375.041 247.199 375.129 248.727 375.256 250.001C373.728 249.459 372.335 249.189 371.078 249.189C370.585 249.189 370.131 249.253 369.717 249.38C369.304 249.491 368.961 249.65 368.691 249.857C368.436 250.064 368.221 250.335 368.046 250.669C367.871 251.003 367.752 251.401 367.688 251.863C367.624 252.308 367.593 252.826 367.593 253.414V254.298H373.68C373.585 255.396 373.489 256.956 373.394 258.977H367.664C367.362 265.311 367.131 271.797 366.972 278.434C365.524 278.402 364.37 278.386 363.51 278.386C362.635 278.386 361.497 278.402 360.096 278.434Z" fill="#21A5C2"/>
<defs>
<filter id="filter0_dd_409_7101" x="0.665386" y="41.4355" width="261.75" height="246.884" filterUnits="userSpaceOnUse" color-interpolation-filters="sRGB">
<feFlood flood-opacity="0" result="BackgroundImageFix"/>
<feColorMatrix in="SourceAlpha" type="matrix" values="0 0 0 0 0 0 0 0 0 0 0 0 0 0 0 0 0 0 127 0" result="hardAlpha"/>
<feOffset dx="6.11154" dy="9.16731"/>
<feGaussianBlur stdDeviation="12.2231"/>
<feComposite in2="hardAlpha" operator="out"/>
<feColorMatrix type="matrix" values="0 0 0 0 0.28257 0 0 0 0 0.561817 0 0 0 0 0.65 0 0 0 0.04 0"/>
<feBlend mode="normal" in2="BackgroundImageFix" result="effect1_dropShadow_409_7101"/>
<feColorMatrix in="SourceAlpha" type="matrix" values="0 0 0 0 0 0 0 0 0 0 0 0 0 0 0 0 0 0 127 0" result="hardAlpha"/>
<feOffset dx="1.59459" dy="3.18918"/>
<feGaussianBlur stdDeviation="4.78376"/>
<feComposite in2="hardAlpha" operator="out"/>
<feColorMatrix type="matrix" values="0 0 0 0 0.0844619 0 0 0 0 0.4375 0 0 0 0 0.416318 0 0 0 0.06 0"/>
<feBlend mode="normal" in2="effect1_dropShadow_409_7101" result="effect2_dropShadow_409_7101"/>
<feBlend mode="normal" in="SourceGraphic" in2="effect2_dropShadow_409_7101" result="shape"/>
</filter>
<filter id="filter1_dd_409_7101" x="191.898" y="133.336" width="239.45" height="251.613" filterUnits="userSpaceOnUse" color-interpolation-filters="sRGB">
<feFlood flood-opacity="0" result="BackgroundImageFix"/>
<feColorMatrix in="SourceAlpha" type="matrix" values="0 0 0 0 0 0 0 0 0 0 0 0 0 0 0 0 0 0 127 0" result="hardAlpha"/>
<feOffset dx="6.11154" dy="9.16731"/>
<feGaussianBlur stdDeviation="12.2231"/>
<feComposite in2="hardAlpha" operator="out"/>
<feColorMatrix type="matrix" values="0 0 0 0 0.28257 0 0 0 0 0.561817 0 0 0 0 0.65 0 0 0 0.04 0"/>
<feBlend mode="normal" in2="BackgroundImageFix" result="effect1_dropShadow_409_7101"/>
<feColorMatrix in="SourceAlpha" type="matrix" values="0 0 0 0 0 0 0 0 0 0 0 0 0 0 0 0 0 0 127 0" result="hardAlpha"/>
<feOffset dx="1.52788" dy="3.05577"/>
<feGaussianBlur stdDeviation="4.58365"/>
<feComposite in2="hardAlpha" operator="out"/>
<feColorMatrix type="matrix" values="0 0 0 0 0.109294 0 0 0 0 0.554167 0 0 0 0 0.527474 0 0 0 0.06 0"/>
<feBlend mode="normal" in2="effect1_dropShadow_409_7101" result="effect2_dropShadow_409_7101"/>
<feBlend mode="normal" in="SourceGraphic" in2="effect2_dropShadow_409_7101" result="shape"/>
</filter>
</defs>
</svg>
