<svg width="32" height="32" viewBox="0 0 32 32" fill="none" xmlns="http://www.w3.org/2000/svg">
<path d="M24.1291 6.17775C24.5715 6.17834 24.9957 6.35436 25.3085 6.66721C25.6214 6.98006 25.7974 7.4042 25.798 7.84664V24.1289C25.7974 24.5711 25.6213 24.995 25.3084 25.3075C24.9955 25.62 24.5713 25.7955 24.1291 25.7955H7.84689C7.40465 25.7955 6.9805 25.62 6.66759 25.3075C6.35468 24.995 6.17858 24.5711 6.178 24.1289V7.84664C6.17858 7.4042 6.3546 6.98006 6.66745 6.66721C6.9803 6.35436 7.40445 6.17834 7.84689 6.17775H24.1291ZM24.1291 5.11108H7.84689C7.12137 5.11108 6.42557 5.39929 5.91255 5.91231C5.39954 6.42533 5.11133 7.12112 5.11133 7.84664V24.1289C5.11192 24.854 5.40039 25.5492 5.91334 26.0618C6.42629 26.5743 7.12176 26.8622 7.84689 26.8622H24.1291C24.8527 26.8598 25.5459 26.5709 26.0569 26.0586C26.5679 25.5463 26.8552 24.8525 26.8558 24.1289V7.84664C26.8558 7.12112 26.5676 6.42533 26.0545 5.91231C25.5415 5.39929 24.8457 5.11108 24.1202 5.11108H24.1291Z" fill="#152132"/>
<path fill-rule="evenodd" clip-rule="evenodd" d="M10.3027 11.5911C10.3027 11.2965 10.5415 11.0577 10.8361 11.0577H14.7894C15.084 11.0577 15.3227 11.2965 15.3227 11.5911C15.3227 11.8856 15.084 12.1244 14.7894 12.1244H11.3694V19.8488H14.7872C15.0817 19.8488 15.3205 20.0876 15.3205 20.3822C15.3205 20.6767 15.0817 20.9155 14.7872 20.9155H10.8361C10.5415 20.9155 10.3027 20.6767 10.3027 20.3822V11.5911Z" fill="#152132"/>
<path fill-rule="evenodd" clip-rule="evenodd" d="M10.3027 15.9778C10.3027 15.6832 10.5415 15.4445 10.8361 15.4445H14.7894C15.084 15.4445 15.3227 15.6832 15.3227 15.9778C15.3227 16.2723 15.084 16.5111 14.7894 16.5111H10.8361C10.5415 16.5111 10.3027 16.2723 10.3027 15.9778Z" fill="#152132"/>
<path d="M16.7266 14.9845V15.7045V20.3823" stroke="#152132" stroke-width="1.06667" stroke-linecap="round" stroke-linejoin="round"/>
<path fill-rule="evenodd" clip-rule="evenodd" d="M18.9329 15.5209C18.7048 15.5209 18.4791 15.5674 18.2696 15.6576C18.0601 15.7477 17.8712 15.8797 17.7144 16.0453C17.5576 16.211 17.4363 16.4068 17.3577 16.621C17.2792 16.8351 17.2452 17.063 17.2577 17.2908C17.2738 17.5849 17.0485 17.8364 16.7544 17.8526C16.4603 17.8687 16.2088 17.6434 16.1926 17.3493C16.1721 16.9768 16.2278 16.604 16.3563 16.2537C16.4848 15.9034 16.6833 15.583 16.9398 15.3121C17.1962 15.0411 17.5053 14.8253 17.848 14.6778C18.1907 14.5303 18.5598 14.4542 18.9329 14.4542C19.306 14.4542 19.6752 14.5303 20.0179 14.6778C20.3606 14.8253 20.6696 15.0411 20.9261 15.3121C21.1826 15.583 21.3811 15.9034 21.5096 16.2537C21.6362 16.5992 21.6922 16.9665 21.674 17.3339V20.38C21.674 20.6746 21.4352 20.9134 21.1407 20.9134C20.8461 20.9134 20.6074 20.6746 20.6074 20.38V17.32C20.6074 17.3103 20.6076 17.3005 20.6082 17.2908C20.6207 17.063 20.5866 16.8351 20.5081 16.621C20.4296 16.4068 20.3082 16.211 20.1514 16.0453C19.9946 15.8797 19.8057 15.7477 19.5962 15.6576C19.3867 15.5674 19.161 15.5209 18.9329 15.5209Z" fill="#152132"/>
</svg>
