<svg width="48" height="48" viewBox="0 0 48 48" fill="none" xmlns="http://www.w3.org/2000/svg">
<rect width="48" height="48" rx="12" fill="url(#paint0_angular_190_8)"/>
<g clip-path="url(#clip0_190_8)">
<path d="M30.364 24.6777L34.6067 20.4351L36.728 22.5564C36.9155 22.7439 37.0209 22.9983 37.0209 23.2635C37.0209 23.5287 36.9155 23.7831 36.728 23.9706L33.8996 26.799C33.712 26.9866 33.4577 27.0919 33.1925 27.0919C32.9273 27.0919 32.6729 26.9866 32.4854 26.799L30.364 24.6777ZM19.0503 33.163C18.8628 33.3505 18.6084 33.4559 18.3432 33.4559C18.078 33.4559 17.8237 33.3505 17.6361 33.163L14.8077 30.3345C14.6202 30.147 14.5148 29.8927 14.5148 29.6274C14.5148 29.3622 14.6202 29.1079 14.8077 28.9203L24.7072 19.0208L20.111 14.4246L21.4729 13.0628C21.5965 12.9394 21.7502 12.8505 21.9188 12.8049C22.0874 12.7594 22.265 12.7588 22.4338 12.8033L28.5963 14.4246L33.1925 19.0208L19.0503 33.163Z" fill="white"/>
</g>
<defs>
<radialGradient id="paint0_angular_190_8" cx="0" cy="0" r="1" gradientUnits="userSpaceOnUse" gradientTransform="translate(23.25 25) rotate(45.3603) scale(28.1081)">
<stop stop-color="#00A99D"/>
<stop offset="0.229167" stop-color="#12DF7D"/>
<stop offset="0.494792" stop-color="#1BBEC9"/>
<stop offset="0.75" stop-color="#13B1D3"/>
<stop offset="1" stop-color="#00A99D"/>
</radialGradient>
<clipPath id="clip0_190_8">
<rect width="24" height="24" fill="white" transform="translate(24.0001 7) rotate(45)"/>
</clipPath>
</defs>
</svg>
