<svg width="358" height="638" viewBox="0 0 358 638" fill="none" xmlns="http://www.w3.org/2000/svg">
<mask id="mask0_381_6" style="mask-type:alpha" maskUnits="userSpaceOnUse" x="0" y="0" width="358" height="638">
<rect width="358" height="638" rx="16" fill="#06091D"/>
</mask>
<g mask="url(#mask0_381_6)">
<rect width="358" height="638" rx="16" fill="#06091D"/>
<g filter="url(#filter0_f_381_6)">
<path d="M432.552 -58.1612C432.552 88.8356 388.893 208 335.037 208C281.18 208 103 88.8356 103 -58.1612C103 -205.158 249.175 -58.1611 303.032 -58.1611C356.888 -58.1611 528.067 -395.299 432.552 -58.1612Z" fill="#00A1FC" fill-opacity="0.16"/>
</g>
<g filter="url(#filter1_f_381_6)">
<path d="M781 652.7C781 713.175 401.625 733 341.213 733C280.8 733 169 713.175 169 652.7C169 592.225 280.8 514 341.213 514C401.625 514 563.35 623.5 781 652.7Z" fill="#00B9D2" fill-opacity="0.16"/>
</g>
<g filter="url(#filter2_f_381_6)">
<path d="M140.872 530.965C140.872 637.421 -92.8948 672.319 -130.12 672.319C-167.345 672.319 -173.994 590.06 -173.994 483.605C-173.994 377.149 -324.879 224.533 -85.9935 338.21C163.214 356.991 269.329 258.142 140.872 530.965Z" fill="#F85900" fill-opacity="0.16"/>
</g>
</g>
<defs>
<filter id="filter0_f_381_6" x="3" y="-308" width="558" height="616" filterUnits="userSpaceOnUse" color-interpolation-filters="sRGB">
<feFlood flood-opacity="0" result="BackgroundImageFix"/>
<feBlend mode="normal" in="SourceGraphic" in2="BackgroundImageFix" result="shape"/>
<feGaussianBlur stdDeviation="50" result="effect1_foregroundBlur_381_6"/>
</filter>
<filter id="filter1_f_381_6" x="69" y="414" width="812" height="419" filterUnits="userSpaceOnUse" color-interpolation-filters="sRGB">
<feFlood flood-opacity="0" result="BackgroundImageFix"/>
<feBlend mode="normal" in="SourceGraphic" in2="BackgroundImageFix" result="shape"/>
<feGaussianBlur stdDeviation="50" result="effect1_foregroundBlur_381_6"/>
</filter>
<filter id="filter2_f_381_6" x="-321" y="198" width="616.678" height="574.319" filterUnits="userSpaceOnUse" color-interpolation-filters="sRGB">
<feFlood flood-opacity="0" result="BackgroundImageFix"/>
<feBlend mode="normal" in="SourceGraphic" in2="BackgroundImageFix" result="shape"/>
<feGaussianBlur stdDeviation="50" result="effect1_foregroundBlur_381_6"/>
</filter>
</defs>
</svg>
