<svg width="394" height="108" viewBox="0 0 394 108" fill="none" xmlns="http://www.w3.org/2000/svg">
<path opacity="0.08" d="M43.08 22.56V45.6C39.64 45.6 37.4 46.2 36.36 47.4C35.32 48.6 34.68 50.64 34.44 53.52C32.76 71.84 22.56 81 3.84 81H0.84V57.84C5 57.84 7.84 57.12 9.36 55.68C10.88 54.16 11.76 51.56 12 47.88C12.32 42.36 12.76 38.56 13.32 36.48C13.96 34.32 15.32 32.12 17.4 29.88C19.56 27.56 22.16 25.76 25.2 24.48C28.32 23.2 32.04 22.56 36.36 22.56H43.08ZM69.7481 0.959993V23.88H79.5881V47.04H69.7481C69.7481 51.68 70.4681 54.88 71.9081 56.64C73.3481 58.4 76.0281 59.28 79.9481 59.28V82.32C69.8681 82.32 61.9881 79.48 56.3081 73.8C50.6281 68.04 47.7881 59.92 47.7881 49.44V0.959993H69.7481ZM86.9063 51.84C86.9063 43.52 89.9063 36.36 95.9063 30.36C101.986 24.28 109.186 21.24 117.506 21.24C125.826 21.24 132.986 24.28 138.986 30.36C145.066 36.36 148.106 43.52 148.106 51.84C148.106 60.16 145.106 67.32 139.106 73.32C133.106 79.32 125.906 82.32 117.506 82.32C109.106 82.32 101.906 79.32 95.9063 73.32C89.9063 67.32 86.9063 60.16 86.9063 51.84ZM108.626 51.84C108.626 54.24 109.466 56.32 111.146 58.08C112.906 59.76 115.026 60.6 117.506 60.6C119.986 60.6 122.066 59.76 123.746 58.08C125.506 56.32 126.386 54.24 126.386 51.84C126.386 49.36 125.506 47.28 123.746 45.6C122.066 43.84 119.986 42.96 117.506 42.96C115.026 42.96 112.906 43.84 111.146 45.6C109.466 47.28 108.626 49.36 108.626 51.84ZM189.338 21.96V45.48C187.738 44.52 186.258 44.04 184.898 44.04C183.138 44.04 181.738 44.84 180.698 46.44C179.738 48.04 179.258 50.32 179.258 53.28V81H157.298V49.08C157.298 40.52 159.538 33.76 164.018 28.8C168.578 23.76 174.698 21.24 182.378 21.24C184.618 21.24 186.938 21.48 189.338 21.96ZM228.372 59.28V81.84C226.772 82.16 225.132 82.32 223.452 82.32C214.652 82.32 207.292 79.4 201.372 73.56C195.532 67.64 192.612 60.36 192.612 51.72C192.612 43.32 195.572 36.16 201.492 30.24C207.492 24.24 214.692 21.24 223.092 21.24C232.532 21.24 239.972 24 245.412 29.52C250.932 35.04 253.692 42.6 253.692 52.2V81H231.732V53.76C231.732 50.64 230.972 48.2 229.452 46.44C227.932 44.6 225.932 43.68 223.452 43.68C221.132 43.68 219.132 44.56 217.452 46.32C215.772 48 214.932 50.04 214.932 52.44C214.932 54.84 215.692 56.84 217.212 58.44C218.732 59.96 220.732 60.72 223.212 60.72C225.052 60.72 226.772 60.24 228.372 59.28ZM297.599 56.76V76.92C294.559 77.96 291.519 78.48 288.479 78.48C281.359 78.48 275.359 75.88 270.479 70.68C265.599 65.4 263.159 58.84 263.159 51C263.159 42.76 266.119 35.76 272.039 30C277.959 24.16 285.199 21.24 293.759 21.24C302.959 21.24 310.079 24.04 315.119 29.64C320.159 35.16 322.679 43.16 322.679 53.64V72.84C322.679 83 319.799 91.36 314.039 97.92C308.359 104.56 301.039 107.88 292.079 107.88C288.079 107.88 283.959 107.2 279.719 105.84V85.92C282.919 87.52 285.959 88.32 288.839 88.32C292.519 88.32 295.439 87 297.599 84.36C299.759 81.72 300.839 78 300.839 73.2V51.24C300.839 45.08 298.359 42 293.399 42C291.319 42 289.479 42.8 287.879 44.4C286.279 45.92 285.479 47.8 285.479 50.04C285.479 52.28 286.239 54.16 287.759 55.68C289.279 57.12 291.119 57.84 293.279 57.84C294.719 57.84 296.159 57.48 297.599 56.76ZM393.137 55.2H359.897C359.337 53.6 359.057 52 359.057 50.4C359.057 48.64 359.417 46.8 360.137 44.88H371.297C370.577 40.48 368.137 38.28 363.977 38.28C361.337 38.28 359.137 39.44 357.377 41.76C355.617 44.08 354.737 47.08 354.737 50.76C354.737 54.52 355.577 57.64 357.257 60.12C358.937 62.52 361.097 63.72 363.737 63.72C365.977 63.72 368.097 62.6 370.097 60.36L382.577 75.48C376.817 80.04 370.337 82.32 363.137 82.32C354.577 82.32 347.297 79.4 341.297 73.56C335.377 67.64 332.417 60.36 332.417 51.72C332.417 43.16 335.377 35.96 341.297 30.12C347.217 24.2 354.577 21.24 363.377 21.24C371.777 21.24 378.857 24.12 384.617 29.88C390.457 35.56 393.377 42.64 393.377 51.12C393.377 51.44 393.297 52.8 393.137 55.2Z" fill="url(#paint0_linear_409_7077)"/>
<defs>
<linearGradient id="paint0_linear_409_7077" x1="198" y1="-15" x2="198" y2="134.5" gradientUnits="userSpaceOnUse">
<stop stop-color="#00B4DC"/>
<stop offset="1" stop-color="#57CDFF" stop-opacity="0"/>
</linearGradient>
</defs>
</svg>
