<svg width="160" height="57" viewBox="0 0 160 57" fill="none" xmlns="http://www.w3.org/2000/svg">
<rect x="12" y="8.53638" width="4" height="40" rx="2" fill="#39AED3"/>
<path d="M33.8 11.6164H62.6V15.6564H33.8V11.6164ZM29.92 22.6164H66.2V26.7764H47.28C43.9467 33.443 41.0133 38.243 38.48 41.1764C44.6667 40.7497 50.96 40.083 57.36 39.1764C56 36.7764 54.6667 34.5364 53.36 32.4564L56.72 30.3764C60.2933 35.683 63.0933 40.3497 65.12 44.3764L61.36 47.0164C60.7733 45.6564 60.12 44.3097 59.4 42.9764C51.64 44.0697 42.96 44.963 33.36 45.6564L32.28 41.4164C32.7867 41.2297 33.12 41.083 33.28 40.9764C35.68 39.2164 38.8 34.483 42.64 26.7764H29.92V22.6164ZM72.76 26.2564C71.8 27.643 71.0533 28.683 70.52 29.3764L69.12 24.8964C72.0533 20.603 74.2267 15.523 75.64 9.65638L79.4 11.4164C78.68 14.0297 77.8 16.563 76.76 19.0164V46.8164H72.76V26.2564ZM82.16 10.9364C84.4267 12.963 86.36 14.9764 87.96 16.9764L84.84 20.0964C83.6133 18.203 81.76 16.0697 79.28 13.6964L82.16 10.9364ZM77.76 21.7764H85.72V37.2964C86.6 36.3364 87.4133 35.3897 88.16 34.4564L89.2 38.5364C87.0667 41.1764 84.7867 43.5897 82.36 45.7764L80.76 41.9364C81.3733 41.4564 81.68 40.8564 81.68 40.1364V25.6564H77.76V21.7764ZM89.32 14.0164H93.68V9.77637H97.48V14.0164H101.56V15.8564C102.307 14.363 102.933 12.963 103.44 11.6564L106.88 13.4564C105.6 16.523 104.187 19.2564 102.64 21.6564H106.12V25.4164H99.92C99.2 26.2697 98.32 27.2164 97.28 28.2564H104.52V46.6164H100.6V45.1764H94.52V46.6164H90.6V33.1764L89.68 33.6564C89.28 33.8697 88.9867 34.0164 88.8 34.0964L86.68 30.8564C89.6933 29.4697 92.36 27.6564 94.68 25.4164H88.84V21.6564H93.68V17.5764H89.32V14.0164ZM97.96 21.6564C99.0267 20.243 99.92 18.883 100.64 17.5764H97.48V21.6564H97.96ZM94.52 38.3764V41.5764H100.6V38.3764H94.52ZM100.6 34.9364V31.8564H94.52V34.9364H100.6ZM111.12 13.1364H121.52C121.973 11.8564 122.373 10.603 122.72 9.37637L126.96 9.89638C126.587 11.2297 126.253 12.3097 125.96 13.1364H145.76V17.2164H124.4C122.8 20.7364 120.973 23.8697 118.92 26.6164V46.7364H114.8V31.4564C114 32.3097 113.067 33.2164 112 34.1764L109.4 30.8164C113.8 26.9497 117.267 22.4164 119.8 17.2164H111.12V13.1364ZM121.4 32.0564H132.56V28.9764C134.48 27.9097 136.467 26.563 138.52 24.9364H124.44V21.0964H143.72V24.9364C141.613 27.0164 139.28 28.923 136.72 30.6564V32.0564H146.28V36.0964H136.72V42.1764C136.72 45.1097 135.28 46.5764 132.4 46.5764H127.48L126.4 42.6564C127.76 42.7364 129.213 42.7764 130.76 42.7764C131.96 42.7764 132.56 42.1497 132.56 40.8964V36.0964H121.4V32.0564Z" fill="#39AED3"/>
</svg>
