<svg width="371" height="234" viewBox="0 0 371 234" fill="none" xmlns="http://www.w3.org/2000/svg">
<g filter="url(#filter0_d_409_6996)">
<rect x="24" y="24" width="323" height="185.148" rx="6.92143" fill="#FDFEFF"/>
<path d="M104.899 133.999H107.563C107.849 133.602 108.094 133.171 108.297 132.705L108.775 132.878C108.548 133.33 108.325 133.704 108.103 133.999H109.259V136.255H104.899V133.999ZM108.761 135.785V134.47H105.397V135.785H108.761ZM105.75 132.732C106.008 133.037 106.257 133.381 106.497 133.764L106.075 133.971C105.849 133.598 105.6 133.254 105.328 132.94L105.75 132.732ZM105.085 136.934C104.905 137.663 104.656 138.29 104.338 138.816L103.916 138.546C104.229 138.034 104.46 137.462 104.608 136.83L105.085 136.934ZM107.217 136.532C107.48 136.901 107.702 137.287 107.882 137.688L107.425 137.889C107.236 137.437 107.021 137.033 106.781 136.678L107.217 136.532ZM109.397 136.698C109.711 137.224 109.981 137.792 110.207 138.401L109.75 138.602C109.501 137.942 109.224 137.358 108.92 136.851L109.397 136.698ZM106.304 139.038C105.87 139.038 105.653 138.807 105.653 138.346V136.892H106.158V138.242C106.158 138.459 106.257 138.567 106.456 138.567H107.979C108.131 138.567 108.237 138.526 108.297 138.443C108.375 138.346 108.428 138.053 108.456 137.564L108.934 137.716C108.888 138.339 108.793 138.724 108.65 138.872C108.525 138.982 108.332 139.038 108.069 139.038H106.304ZM114.083 132.746C114.157 132.903 114.236 133.108 114.319 133.362H116.831V134.594H116.347V133.826H111.654V134.629H111.169V133.362H113.8C113.721 133.182 113.638 133.007 113.55 132.836L114.083 132.746ZM114.201 134.961C114.759 135.658 115.726 136.269 117.101 136.795L116.831 137.204C116.554 137.093 116.298 136.982 116.063 136.871V139.135H115.585V138.844H112.491V139.135H112.007V136.844C111.758 136.964 111.472 137.086 111.149 137.211L110.886 136.802C112.155 136.332 113.133 135.718 113.82 134.961H114.201ZM112.491 138.387H115.585V137.28H112.491V138.387ZM115.987 136.837C115.142 136.422 114.482 135.942 114.007 135.397C113.458 135.974 112.796 136.454 112.021 136.837H115.987ZM114.81 134.117C115.654 134.555 116.356 134.984 116.914 135.404L116.568 135.743C116.07 135.333 115.378 134.894 114.492 134.428L114.81 134.117ZM113.502 134.407C112.911 134.92 112.189 135.369 111.335 135.757L111.038 135.369C111.882 135.01 112.593 134.59 113.17 134.11L113.502 134.407ZM118.52 135.681H123.337V137.446H121.164V137.834H123.51V138.166H121.164V138.574H124.016V138.962H117.828V138.574H120.666V138.166H118.347V137.834H120.666V137.446H118.52V135.681ZM122.86 137.134V136.712H121.164V137.134H122.86ZM120.666 137.134V136.712H118.998V137.134H120.666ZM118.998 136.422H120.666V135.992H118.998V136.422ZM121.164 135.992V136.422H122.86V135.992H121.164ZM118.672 132.892H123.192V134.601H118.672V132.892ZM122.707 134.304V133.895H119.157V134.304H122.707ZM119.157 133.598H122.707V133.196H119.157V133.598ZM117.821 134.961H124.022V135.335H117.821V134.961ZM126.95 134.006V133.431H128.252V138.436H127.615V134.006H126.95ZM129.333 135.882C129.333 135.088 129.463 134.47 129.721 134.027C129.979 133.579 130.432 133.355 131.078 133.355C131.719 133.355 132.169 133.579 132.427 134.027C132.686 134.47 132.815 135.088 132.815 135.882C132.815 136.689 132.686 137.317 132.427 137.764C132.169 138.212 131.719 138.436 131.078 138.436C130.432 138.436 129.979 138.212 129.721 137.764C129.463 137.317 129.333 136.689 129.333 135.882ZM132.192 135.882C132.192 135.48 132.164 135.141 132.109 134.864C132.058 134.583 131.95 134.357 131.784 134.186C131.622 134.015 131.387 133.93 131.078 133.93C130.764 133.93 130.524 134.015 130.358 134.186C130.196 134.357 130.088 134.583 130.032 134.864C129.982 135.141 129.956 135.48 129.956 135.882C129.956 136.297 129.982 136.645 130.032 136.927C130.088 137.208 130.196 137.434 130.358 137.605C130.524 137.776 130.764 137.861 131.078 137.861C131.387 137.861 131.622 137.776 131.784 137.605C131.95 137.434 132.058 137.208 132.109 136.927C132.164 136.645 132.192 136.297 132.192 135.882ZM139.283 135.01C139.149 134.728 138.956 134.511 138.702 134.359C138.448 134.202 138.153 134.124 137.816 134.124C137.479 134.124 137.174 134.202 136.902 134.359C136.635 134.511 136.422 134.733 136.265 135.023C136.113 135.309 136.037 135.642 136.037 136.02C136.037 136.398 136.113 136.731 136.265 137.017C136.422 137.303 136.635 137.524 136.902 137.681C137.174 137.834 137.479 137.91 137.816 137.91C138.287 137.91 138.674 137.769 138.979 137.487C139.283 137.206 139.461 136.825 139.512 136.345H137.587V135.833H140.183V136.318C140.146 136.715 140.021 137.079 139.809 137.411C139.597 137.739 139.318 138 138.972 138.193C138.626 138.383 138.24 138.477 137.816 138.477C137.368 138.477 136.96 138.373 136.591 138.166C136.222 137.953 135.929 137.66 135.712 137.287C135.499 136.913 135.393 136.491 135.393 136.02C135.393 135.549 135.499 135.127 135.712 134.753C135.929 134.375 136.222 134.082 136.591 133.874C136.96 133.662 137.368 133.556 137.816 133.556C138.328 133.556 138.78 133.683 139.172 133.937C139.569 134.191 139.858 134.548 140.038 135.01H139.283ZM143.431 135.951C143.607 135.979 143.766 136.05 143.909 136.165C144.057 136.281 144.172 136.424 144.255 136.595C144.343 136.765 144.387 136.948 144.387 137.141C144.387 137.386 144.324 137.607 144.2 137.806C144.075 138 143.893 138.154 143.653 138.27C143.418 138.38 143.138 138.436 142.815 138.436H141.016V133.611H142.746C143.074 133.611 143.353 133.667 143.584 133.778C143.814 133.884 143.987 134.029 144.103 134.214C144.218 134.398 144.276 134.606 144.276 134.837C144.276 135.123 144.197 135.36 144.04 135.549C143.888 135.734 143.685 135.868 143.431 135.951ZM141.646 135.695H142.705C143 135.695 143.228 135.626 143.39 135.487C143.551 135.349 143.632 135.157 143.632 134.913C143.632 134.668 143.551 134.477 143.39 134.338C143.228 134.2 142.995 134.131 142.691 134.131H141.646V135.695ZM142.76 137.917C143.074 137.917 143.318 137.843 143.494 137.695C143.669 137.547 143.757 137.342 143.757 137.079C143.757 136.811 143.664 136.601 143.48 136.449C143.295 136.292 143.048 136.214 142.739 136.214H141.646V137.917H142.76Z" fill="#636E78"/>
<path d="M106.613 105.763C106.429 104.988 106.106 104.406 105.644 104.019C105.202 103.631 104.556 103.437 103.706 103.437C102.433 103.437 101.492 103.954 100.883 104.988C100.292 106.003 99.9874 107.664 99.9689 109.971C100.412 109.233 101.058 108.661 101.907 108.255C102.756 107.83 103.679 107.618 104.675 107.618C105.875 107.618 106.936 107.876 107.859 108.393C108.782 108.91 109.502 109.667 110.019 110.663C110.536 111.642 110.794 112.823 110.794 114.207C110.794 115.518 110.526 116.69 109.991 117.723C109.474 118.738 108.708 119.532 107.693 120.104C106.678 120.676 105.469 120.962 104.066 120.962C102.147 120.962 100.633 120.538 99.5259 119.689C98.437 118.84 97.671 117.659 97.228 116.145C96.8035 114.613 96.5912 112.731 96.5912 110.497C96.5912 107.12 97.1726 104.573 98.3354 102.856C99.4982 101.121 101.335 100.254 103.845 100.254C105.783 100.254 107.287 100.78 108.358 101.832C109.428 102.884 110.047 104.194 110.213 105.763H106.613ZM103.79 110.802C102.811 110.802 101.99 111.088 101.326 111.66C100.661 112.232 100.329 113.063 100.329 114.152C100.329 115.241 100.633 116.099 101.242 116.727C101.87 117.354 102.747 117.668 103.873 117.668C104.869 117.668 105.654 117.363 106.226 116.754C106.817 116.145 107.112 115.324 107.112 114.29C107.112 113.22 106.826 112.371 106.254 111.743C105.7 111.116 104.879 110.802 103.79 110.802ZM124.323 105.763C124.138 104.988 123.815 104.406 123.354 104.019C122.911 103.631 122.265 103.437 121.416 103.437C120.142 103.437 119.201 103.954 118.592 104.988C118.001 106.003 117.696 107.664 117.678 109.971C118.121 109.233 118.767 108.661 119.616 108.255C120.465 107.83 121.388 107.618 122.385 107.618C123.584 107.618 124.646 107.876 125.568 108.393C126.491 108.91 127.211 109.667 127.728 110.663C128.245 111.642 128.503 112.823 128.503 114.207C128.503 115.518 128.236 116.69 127.7 117.723C127.183 118.738 126.417 119.532 125.402 120.104C124.387 120.676 123.178 120.962 121.776 120.962C119.856 120.962 118.342 120.538 117.235 119.689C116.146 118.84 115.38 117.659 114.937 116.145C114.513 114.613 114.3 112.731 114.3 110.497C114.3 107.12 114.882 104.573 116.045 102.856C117.207 101.121 119.044 100.254 121.554 100.254C123.492 100.254 124.996 100.78 126.067 101.832C127.137 102.884 127.756 104.194 127.922 105.763H124.323ZM121.499 110.802C120.52 110.802 119.699 111.088 119.035 111.66C118.37 112.232 118.038 113.063 118.038 114.152C118.038 115.241 118.342 116.099 118.952 116.727C119.579 117.354 120.456 117.668 121.582 117.668C122.578 117.668 123.363 117.363 123.935 116.754C124.526 116.145 124.821 115.324 124.821 114.29C124.821 113.22 124.535 112.371 123.963 111.743C123.409 111.116 122.588 110.802 121.499 110.802ZM131.124 105.68C131.124 104.277 131.53 103.179 132.342 102.385C133.172 101.592 134.234 101.195 135.526 101.195C136.818 101.195 137.87 101.592 138.682 102.385C139.512 103.179 139.928 104.277 139.928 105.68C139.928 107.101 139.512 108.209 138.682 109.002C137.87 109.796 136.818 110.193 135.526 110.193C134.234 110.193 133.172 109.796 132.342 109.002C131.53 108.209 131.124 107.101 131.124 105.68ZM148.898 101.527L138.017 120.907H134.252L145.105 101.527H148.898ZM135.498 103.52C134.483 103.52 133.975 104.24 133.975 105.68C133.975 107.138 134.483 107.867 135.498 107.867C135.996 107.867 136.384 107.692 136.661 107.341C136.938 106.972 137.076 106.418 137.076 105.68C137.076 104.24 136.55 103.52 135.498 103.52ZM143.278 116.727C143.278 115.305 143.684 114.207 144.496 113.432C145.326 112.638 146.388 112.241 147.68 112.241C148.972 112.241 150.014 112.638 150.808 113.432C151.62 114.207 152.026 115.305 152.026 116.727C152.026 118.148 151.62 119.255 150.808 120.049C150.014 120.843 148.972 121.239 147.68 121.239C146.369 121.239 145.308 120.843 144.496 120.049C143.684 119.255 143.278 118.148 143.278 116.727ZM147.652 114.567C146.6 114.567 146.074 115.287 146.074 116.727C146.074 118.185 146.6 118.914 147.652 118.914C148.686 118.914 149.202 118.185 149.202 116.727C149.202 115.287 148.686 114.567 147.652 114.567Z" fill="#24282C"/>
<path d="M119.861 88.0431H115.57V90.1195C115.57 90.4056 115.71 90.5487 115.992 90.5487H119.536C119.693 90.5487 119.819 90.5071 119.916 90.4241C120.046 90.2949 120.126 89.8519 120.159 89.0952L120.643 89.2474C120.574 90.1011 120.463 90.6179 120.311 90.7978C120.159 90.9409 119.946 91.0193 119.674 91.0332H115.853C115.332 91.0332 115.071 90.7609 115.071 90.2164V86.5688H115.57V87.5655H119.356V85.759H114.698V85.2745H119.861V88.0431ZM123.384 85.6137H125.197V84.9077H125.703V85.6137H127.606V86.0913H125.703V86.7488H127.322V88.7076H125.675C125.62 89.3305 125.5 89.8127 125.315 90.1541C126.007 90.5325 126.808 90.7471 127.717 90.7978L127.592 91.2754C126.619 91.2108 125.767 90.9663 125.038 90.5417C124.664 90.9201 124.076 91.1693 123.273 91.2893L123.059 90.8324C123.769 90.754 124.284 90.5625 124.602 90.258C124.191 89.9673 123.827 89.6166 123.509 89.2059L123.889 88.9429C124.18 89.3074 124.512 89.6235 124.886 89.8911C125.034 89.582 125.128 89.1874 125.17 88.7076H123.619V86.7488H125.197V86.0913H123.384V85.6137ZM126.852 88.2577V87.1918H125.703V88.1746L125.696 88.2577H126.852ZM125.19 88.2577L125.197 88.1746V87.1918H124.09V88.2577H125.19ZM122.117 87.4063C121.882 87.7386 121.642 88.0362 121.398 88.2992L121.231 87.7732C121.951 86.9287 122.47 85.9597 122.789 84.8662L123.259 85.0807C123.084 85.6252 122.869 86.1351 122.616 86.6104V91.2685H122.117V87.4063ZM129.413 87.3233V88.5345H131.171V87.3233H129.413ZM129.385 88.9913C129.306 89.8819 129.048 90.6156 128.61 91.1924L128.229 90.8532C128.672 90.2349 128.9 89.4528 128.914 88.5068V85.1845H134.071V90.3687C134.071 90.8532 133.828 91.0955 133.344 91.0955H132.548L132.416 90.604C132.786 90.6225 133.042 90.6317 133.185 90.6317C133.438 90.6317 133.565 90.4864 133.565 90.1957V88.9913H131.683V91.0193H131.171V88.9913H129.385ZM133.565 88.5345V87.3233H131.683V88.5345H133.565ZM133.565 86.8595V85.669H131.683V86.8595H133.565ZM131.171 85.669H129.413V86.8595H131.171V85.669Z" fill="#24282C"/>
<path d="M123.496 54.6176C123.496 51.087 126.364 48.194 129.879 48.5237C140.916 49.5589 151.57 53.2674 160.901 59.3691C172.022 66.6407 180.782 76.9957 186.109 89.1676C191.437 101.339 193.102 114.8 190.899 127.903C188.697 141.006 182.723 153.183 173.709 162.944C164.695 172.706 153.031 179.628 140.145 182.864C127.258 186.101 113.708 185.511 101.151 181.168C88.5942 176.824 77.5759 168.914 69.4437 158.407C62.6198 149.59 58.0765 139.264 56.1676 128.345C55.5596 124.867 58.2156 121.778 61.735 121.497C65.2544 121.217 68.2977 123.855 68.9804 127.318C70.6442 135.761 74.2526 143.731 79.5545 150.582C86.1655 159.124 95.1228 165.554 105.331 169.085C115.539 172.616 126.554 173.095 137.03 170.464C147.506 167.833 156.988 162.206 164.316 154.27C171.644 146.335 176.501 136.436 178.291 125.784C180.081 115.132 178.728 104.189 174.397 94.2942C170.066 84.3992 162.945 75.9811 153.904 70.0698C146.654 65.3289 138.422 62.3653 129.874 61.3775C126.367 60.9722 123.496 58.1481 123.496 54.6176Z" fill="#1FA7B1"/>
<path d="M61.3302 118.886C58.5771 118.987 56.2448 116.834 56.3452 114.081C56.9269 98.1277 63.0824 82.8195 73.827 70.8714C84.5716 58.9233 99.1428 51.1831 114.945 48.9172C117.672 48.5262 120.059 50.6178 120.251 53.3661C120.442 56.1143 118.363 58.4755 115.641 58.9005C102.423 60.9645 90.2579 67.52 81.2451 77.5423C72.2324 87.5646 67.0004 100.355 66.3461 113.717C66.2113 116.469 64.0833 118.786 61.3302 118.886Z" fill="#D2EDEF"/>
<rect x="239.142" y="67.4143" width="27.1089" height="11.5357" rx="5.76786" fill="#1FA7B1"/>
<path d="M278.71 73.3229H272.988V76.0915C272.988 76.4729 273.176 76.6637 273.551 76.6637H278.276C278.485 76.6637 278.654 76.6083 278.784 76.4976C278.956 76.3253 279.064 75.7347 279.107 74.7257L279.753 74.9287C279.66 76.0669 279.513 76.756 279.31 76.9959C279.107 77.1866 278.824 77.2912 278.461 77.3097H273.366C272.671 77.3097 272.324 76.9467 272.324 76.2207V71.3572H272.988V72.6862H278.036V70.2775H271.825V69.6315H278.71V73.3229ZM283.407 70.0837H285.825V69.1424H286.499V70.0837H289.037V70.7205H286.499V71.5972H288.658V74.2089H286.462C286.388 75.0394 286.228 75.6824 285.982 76.1376C286.905 76.6421 287.972 76.9282 289.184 76.9959L289.018 77.6327C287.72 77.5465 286.585 77.2205 285.613 76.6544C285.114 77.1589 284.33 77.4912 283.259 77.6511L282.973 77.042C283.921 76.9375 284.607 76.6821 285.031 76.2761C284.484 75.8885 283.998 75.4209 283.573 74.8733L284.081 74.5226C284.468 75.0087 284.911 75.4301 285.41 75.787C285.607 75.3747 285.733 74.8487 285.788 74.2089H283.721V71.5972H285.825V70.7205H283.407V70.0837ZM288.031 73.609V72.1878H286.499V73.4983L286.489 73.609H288.031ZM285.816 73.609L285.825 73.4983V72.1878H284.348V73.609H285.816ZM281.718 72.4739C281.405 72.9169 281.085 73.3137 280.759 73.6644L280.537 72.963C281.497 71.8371 282.189 70.5451 282.613 69.087L283.241 69.3731C283.007 70.0991 282.721 70.7789 282.383 71.4126V77.6234H281.718V72.4739ZM291.445 72.3632V73.9782H293.789V72.3632H291.445ZM291.408 74.5872C291.304 75.7747 290.959 76.7529 290.375 77.5219L289.867 77.0697C290.458 76.2453 290.762 75.2025 290.781 73.9412V69.5115H297.656V76.4237C297.656 77.0697 297.333 77.3927 296.687 77.3927H295.626L295.45 76.7375C295.943 76.7621 296.284 76.7744 296.475 76.7744C296.813 76.7744 296.982 76.5806 296.982 76.193V74.5872H294.472V77.2912H293.789V74.5872H291.408ZM296.982 73.9782V72.3632H294.472V73.9782H296.982ZM296.982 71.7448V70.1575H294.472V71.7448H296.982ZM293.789 70.1575H291.445V71.7448H293.789V70.1575Z" fill="black"/>
<path opacity="0.9" d="M278.163 89.0802C278.062 88.6556 277.877 88.3373 277.61 88.125C277.342 87.9127 276.968 87.8066 276.488 87.8066C275.759 87.8066 275.215 88.0881 274.855 88.651C274.495 89.2047 274.306 90.1276 274.287 91.4196C274.527 91.0135 274.878 90.6998 275.339 90.4783C275.801 90.2568 276.299 90.1461 276.834 90.1461C277.444 90.1461 277.979 90.2799 278.44 90.5475C278.911 90.8059 279.275 91.1843 279.534 91.6826C279.801 92.181 279.935 92.7762 279.935 93.4683C279.935 94.1143 279.806 94.6911 279.548 95.1987C279.298 95.7063 278.925 96.1077 278.426 96.403C277.928 96.6891 277.328 96.8322 276.627 96.8322C275.676 96.8322 274.929 96.6245 274.384 96.2092C273.849 95.7847 273.471 95.1895 273.249 94.4235C273.037 93.6575 272.931 92.7024 272.931 91.558C272.931 88.1804 274.121 86.4915 276.502 86.4915C277.425 86.4915 278.15 86.7407 278.676 87.2391C279.211 87.7374 279.525 88.3511 279.617 89.0802H278.163ZM276.488 91.475C275.925 91.475 275.446 91.6457 275.049 91.9872C274.661 92.3194 274.467 92.8039 274.467 93.4407C274.467 94.0774 274.647 94.585 275.007 94.9634C275.376 95.3325 275.889 95.5171 276.544 95.5171C277.125 95.5171 277.582 95.3371 277.914 94.9772C278.256 94.6173 278.426 94.1374 278.426 93.5376C278.426 92.91 278.26 92.4117 277.928 92.0425C277.605 91.6642 277.125 91.475 276.488 91.475ZM282.463 96.9291C282.177 96.9291 281.937 96.8322 281.743 96.6384C281.549 96.4446 281.452 96.2046 281.452 95.9185C281.452 95.6324 281.549 95.3925 281.743 95.1987C281.937 95.0049 282.177 94.908 282.463 94.908C282.74 94.908 282.975 95.0049 283.169 95.1987C283.363 95.3925 283.46 95.6324 283.46 95.9185C283.46 96.2046 283.363 96.4446 283.169 96.6384C282.975 96.8322 282.74 96.9291 282.463 96.9291ZM286.66 91.558C285.701 91.0781 285.221 90.3214 285.221 89.2878C285.221 88.7895 285.345 88.3326 285.594 87.9174C285.844 87.5021 286.217 87.1745 286.716 86.9345C287.214 86.6853 287.823 86.5608 288.543 86.5608C289.254 86.5608 289.858 86.6853 290.356 86.9345C290.864 87.1745 291.242 87.5021 291.491 87.9174C291.741 88.3326 291.865 88.7895 291.865 89.2878C291.865 89.8046 291.731 90.2614 291.464 90.6582C291.205 91.0458 290.859 91.3458 290.426 91.558C290.952 91.7518 291.367 92.0702 291.671 92.5132C291.976 92.9469 292.128 93.4591 292.128 94.0497C292.128 94.6496 291.976 95.1802 291.671 95.6417C291.367 96.1031 290.942 96.4584 290.398 96.7076C289.853 96.9567 289.235 97.0813 288.543 97.0813C287.851 97.0813 287.232 96.9567 286.688 96.7076C286.153 96.4584 285.733 96.1031 285.428 95.6417C285.124 95.1802 284.971 94.6496 284.971 94.0497C284.971 93.4499 285.124 92.9331 285.428 92.4993C285.733 92.0656 286.143 91.7518 286.66 91.558ZM290.356 89.4816C290.356 88.9648 290.195 88.568 289.872 88.2911C289.549 88.0143 289.106 87.8758 288.543 87.8758C287.989 87.8758 287.551 88.0143 287.228 88.2911C286.905 88.568 286.743 88.9694 286.743 89.4954C286.743 89.9569 286.909 90.3352 287.242 90.6306C287.583 90.9166 288.017 91.0597 288.543 91.0597C289.069 91.0597 289.503 90.912 289.844 90.6167C290.186 90.3214 290.356 89.943 290.356 89.4816ZM288.543 92.2502C287.934 92.2502 287.435 92.4024 287.048 92.707C286.67 93.0023 286.48 93.4314 286.48 93.9944C286.48 94.5204 286.665 94.9495 287.034 95.2818C287.403 95.6048 287.906 95.7663 288.543 95.7663C289.17 95.7663 289.664 95.6001 290.024 95.2679C290.393 94.9357 290.578 94.5112 290.578 93.9944C290.578 93.4407 290.389 93.0115 290.01 92.707C289.641 92.4024 289.152 92.2502 288.543 92.2502ZM304.552 89.9799C304.302 89.5001 303.956 89.1401 303.513 88.9002C303.07 88.651 302.558 88.5264 301.977 88.5264C301.34 88.5264 300.773 88.6695 300.274 88.9556C299.776 89.2417 299.384 89.6477 299.098 90.1737C298.821 90.6998 298.682 91.3089 298.682 92.001C298.682 92.6931 298.821 93.3068 299.098 93.8421C299.384 94.3681 299.776 94.7742 300.274 95.0603C300.773 95.3464 301.34 95.4894 301.977 95.4894C302.835 95.4894 303.532 95.2495 304.067 94.7696C304.602 94.2897 304.93 93.6391 305.05 92.8177H301.437V91.558H306.739V92.79C306.637 93.5376 306.37 94.2251 305.936 94.8526C305.511 95.4802 304.953 95.9831 304.261 96.3615C303.578 96.7306 302.817 96.9152 301.977 96.9152C301.072 96.9152 300.247 96.7076 299.499 96.2923C298.751 95.8678 298.156 95.2818 297.713 94.5342C297.28 93.7867 297.063 92.9423 297.063 92.001C297.063 91.0597 297.28 90.2153 297.713 89.4678C298.156 88.7202 298.751 88.1388 299.499 87.7236C300.256 87.299 301.082 87.0868 301.977 87.0868C303.001 87.0868 303.91 87.3406 304.704 87.8481C305.507 88.3465 306.088 89.0571 306.448 89.9799H304.552ZM313.445 91.8903C313.962 91.9825 314.4 92.2548 314.76 92.707C315.12 93.1592 315.3 93.6714 315.3 94.2435C315.3 94.7327 315.171 95.1756 314.912 95.5725C314.663 95.9601 314.298 96.2692 313.819 96.4999C313.339 96.7214 312.78 96.8322 312.144 96.8322H308.295V87.2114H311.964C312.619 87.2114 313.182 87.3221 313.652 87.5436C314.123 87.7651 314.478 88.065 314.718 88.4434C314.958 88.8125 315.078 89.2278 315.078 89.6892C315.078 90.243 314.931 90.7044 314.635 91.0735C314.34 91.4427 313.943 91.7149 313.445 91.8903ZM309.873 91.2535H311.825C312.342 91.2535 312.743 91.1381 313.03 90.9074C313.325 90.6675 313.472 90.326 313.472 89.883C313.472 89.4493 313.325 89.1125 313.03 88.8725C312.743 88.6233 312.342 88.4988 311.825 88.4988H309.873V91.2535ZM312.005 95.5448C312.54 95.5448 312.96 95.4156 313.265 95.1572C313.569 94.8988 313.722 94.5389 313.722 94.0774C313.722 93.6068 313.56 93.233 313.237 92.9562C312.914 92.6793 312.485 92.5409 311.95 92.5409H309.873V95.5448H312.005Z" fill="#062123"/>
<rect x="239.142" y="132.014" width="27.1089" height="11.5357" rx="5.76786" fill="#D2EDEF"/>
<path d="M272.918 136.437H273.499V139.077H272.918V138.652C272.555 138.886 272.201 139.086 271.856 139.252L271.69 138.68C272.133 138.52 272.542 138.335 272.918 138.126V137.508H271.755V136.972H272.918V136.437ZM275.825 138.449C275.825 138.578 275.905 138.643 276.065 138.643H276.222C276.32 138.643 276.397 138.624 276.452 138.587C276.538 138.532 276.591 138.298 276.609 137.886L277.08 138.034C277.031 138.581 276.954 138.904 276.849 139.003C276.745 139.101 276.572 139.154 276.332 139.16H275.889C275.68 139.16 275.523 139.104 275.419 138.994C275.308 138.883 275.253 138.744 275.253 138.578V136.437H275.825V137.129C276.188 137.031 276.523 136.893 276.831 136.714L277.024 137.249C276.68 137.415 276.28 137.545 275.825 137.637V138.449ZM276.665 134.305C276.117 134.465 275.468 134.588 274.717 134.675V135.431H276.794V136.022H274.717V139.132C275.425 139.618 276.114 140.147 276.785 140.719L276.397 141.31C275.726 140.639 275.166 140.129 274.717 139.778V142.224H274.099V139.63C273.49 140.436 272.779 141.104 271.967 141.633L271.57 141.061C272.647 140.427 273.49 139.658 274.099 138.754V136.022H271.838V135.431H274.099V134.73C273.41 134.773 272.773 134.795 272.189 134.795L272.013 134.25C273.736 134.25 275.185 134.09 276.36 133.77L276.665 134.305ZM277.523 134.822H278.123V140.387H277.523V134.822ZM277.92 142.131L277.79 141.504C278.098 141.534 278.366 141.55 278.593 141.55C278.87 141.55 279.009 141.421 279.009 141.162V133.816H279.655V141.319C279.655 141.861 279.375 142.131 278.815 142.131H277.92ZM285.219 133.779C286.376 134.862 287.723 135.724 289.262 136.363L288.911 136.972C287.373 136.308 286.062 135.437 284.98 134.361C283.989 135.382 282.666 136.268 281.011 137.019L280.679 136.41C282.303 135.696 283.66 134.819 284.749 133.779H285.219ZM282.543 136.253H287.444V136.889H285.395V138.08H288.745V138.726H285.395V141.162C285.395 141.784 285.075 142.094 284.435 142.094H283.328L283.18 141.467C283.66 141.491 284.004 141.504 284.214 141.504C284.564 141.504 284.74 141.335 284.74 140.996V138.726H281.223V138.08H284.74V136.889H282.543V136.253ZM283.595 139.566C283.072 140.519 282.38 141.251 281.519 141.762L281.011 141.338C281.891 140.845 282.559 140.175 283.014 139.326L283.595 139.566ZM286.927 139.206C287.831 140.036 288.529 140.762 289.022 141.384L288.468 141.771C287.97 141.095 287.287 140.347 286.419 139.529L286.927 139.206Z" fill="black"/>
<path opacity="0.9" d="M273.842 153.833C273.897 152.974 274.225 152.305 274.825 151.825C275.434 151.345 276.209 151.105 277.151 151.105C277.797 151.105 278.355 151.221 278.825 151.452C279.296 151.682 279.651 151.996 279.891 152.393C280.131 152.79 280.251 153.237 280.251 153.736C280.251 154.308 280.099 154.797 279.794 155.203C279.49 155.609 279.125 155.881 278.701 156.02V156.075C279.245 156.241 279.67 156.546 279.974 156.989C280.279 157.422 280.431 157.981 280.431 158.664C280.431 159.208 280.307 159.693 280.058 160.117C279.808 160.542 279.439 160.879 278.95 161.128C278.461 161.368 277.875 161.488 277.192 161.488C276.195 161.488 275.374 161.234 274.728 160.726C274.091 160.209 273.75 159.471 273.704 158.511H275.226C275.263 159.001 275.452 159.402 275.794 159.716C276.135 160.02 276.597 160.173 277.178 160.173C277.741 160.173 278.175 160.02 278.479 159.716C278.784 159.402 278.936 159.001 278.936 158.511C278.936 157.865 278.729 157.409 278.313 157.141C277.907 156.864 277.28 156.726 276.431 156.726H276.071V155.424H276.445C277.192 155.415 277.76 155.291 278.147 155.051C278.544 154.811 278.742 154.432 278.742 153.916C278.742 153.473 278.599 153.122 278.313 152.864C278.027 152.596 277.621 152.462 277.095 152.462C276.578 152.462 276.177 152.596 275.891 152.864C275.605 153.122 275.434 153.445 275.379 153.833H273.842ZM282.933 161.529C282.647 161.529 282.407 161.432 282.214 161.238C282.02 161.045 281.923 160.805 281.923 160.519C281.923 160.233 282.02 159.993 282.214 159.799C282.407 159.605 282.647 159.508 282.933 159.508C283.21 159.508 283.446 159.605 283.639 159.799C283.833 159.993 283.93 160.233 283.93 160.519C283.93 160.805 283.833 161.045 283.639 161.238C283.446 161.432 283.21 161.529 282.933 161.529ZM285.22 152.78V151.341H288.1V161.432H286.508V152.78H285.22ZM301.034 154.58C300.785 154.1 300.439 153.74 299.996 153.5C299.553 153.251 299.041 153.127 298.459 153.127C297.823 153.127 297.255 153.27 296.757 153.556C296.258 153.842 295.866 154.248 295.58 154.774C295.303 155.3 295.165 155.909 295.165 156.601C295.165 157.293 295.303 157.907 295.58 158.442C295.866 158.968 296.258 159.374 296.757 159.66C297.255 159.946 297.823 160.089 298.459 160.089C299.318 160.089 300.014 159.85 300.55 159.37C301.085 158.89 301.412 158.239 301.532 157.418H297.919V156.158H303.221V157.39C303.12 158.138 302.852 158.825 302.418 159.453C301.994 160.08 301.436 160.583 300.743 160.962C300.06 161.331 299.299 161.515 298.459 161.515C297.555 161.515 296.729 161.308 295.981 160.892C295.234 160.468 294.639 159.882 294.196 159.134C293.762 158.387 293.545 157.542 293.545 156.601C293.545 155.66 293.762 154.815 294.196 154.068C294.639 153.32 295.234 152.739 295.981 152.324C296.738 151.899 297.564 151.687 298.459 151.687C299.484 151.687 300.393 151.941 301.186 152.448C301.989 152.947 302.571 153.657 302.931 154.58H301.034ZM309.927 156.49C310.444 156.583 310.882 156.855 311.242 157.307C311.602 157.759 311.782 158.271 311.782 158.844C311.782 159.333 311.653 159.776 311.395 160.173C311.145 160.56 310.781 160.869 310.301 161.1C309.821 161.322 309.263 161.432 308.626 161.432H304.778V151.811H308.446C309.101 151.811 309.664 151.922 310.135 152.144C310.606 152.365 310.961 152.665 311.201 153.043C311.441 153.413 311.561 153.828 311.561 154.289C311.561 154.843 311.413 155.304 311.118 155.674C310.822 156.043 310.426 156.315 309.927 156.49ZM306.356 155.854H308.308C308.824 155.854 309.226 155.738 309.512 155.508C309.807 155.268 309.955 154.926 309.955 154.483C309.955 154.049 309.807 153.713 309.512 153.473C309.226 153.223 308.824 153.099 308.308 153.099H306.356V155.854ZM308.488 160.145C309.023 160.145 309.443 160.016 309.747 159.757C310.052 159.499 310.204 159.139 310.204 158.678C310.204 158.207 310.043 157.833 309.72 157.556C309.397 157.279 308.967 157.141 308.432 157.141H306.356V160.145H308.488Z" fill="#062123"/>
</g>
<defs>
<filter id="filter0_d_409_6996" x="0" y="0" width="371" height="233.148" filterUnits="userSpaceOnUse" color-interpolation-filters="sRGB">
<feFlood flood-opacity="0" result="BackgroundImageFix"/>
<feColorMatrix in="SourceAlpha" type="matrix" values="0 0 0 0 0 0 0 0 0 0 0 0 0 0 0 0 0 0 127 0" result="hardAlpha"/>
<feOffset/>
<feGaussianBlur stdDeviation="12"/>
<feComposite in2="hardAlpha" operator="out"/>
<feColorMatrix type="matrix" values="0 0 0 0 0.633009 0 0 0 0 0.812031 0 0 0 0 0.941667 0 0 0 0.21 0"/>
<feBlend mode="normal" in2="BackgroundImageFix" result="effect1_dropShadow_409_6996"/>
<feBlend mode="normal" in="SourceGraphic" in2="effect1_dropShadow_409_6996" result="shape"/>
</filter>
</defs>
</svg>
