<svg width="80" height="81" viewBox="0 0 80 81" fill="none" xmlns="http://www.w3.org/2000/svg">
<g filter="url(#filter0_d_412_7639)">
<circle cx="38" cy="36.397" r="24" fill="#8EEB85"/>
<path d="M36 25.397C30.578 25.397 26 29.107 26 33.897C26 35.514 26.594 36.999 27.5 38.272L27.125 41.178L26.906 42.928L28.5 42.241L31 41.209C32.3011 41.8451 33.7117 42.2269 35.156 42.334C35.886 45.289 38.976 47.397 42.5 47.397C43.953 47.397 45.281 46.987 46.438 46.366L47.625 47.053L49.344 47.991L49.094 46.053L48.875 44.241C49.539 43.287 50 42.197 50 40.991C50 38.432 48.293 36.288 45.875 35.241C45.961 34.803 46 34.366 46 33.897C46 29.107 41.422 25.397 36 25.397ZM36 27.397C40.52 27.397 44 30.405 44 33.897C44 34.163 43.98 34.424 43.937 34.678C43.4625 34.5947 42.9817 34.5529 42.5 34.553C38.7 34.553 35.41 37.014 35.031 40.334C33.711 40.202 32.5 39.823 31.469 39.241L31.031 39.022L30.594 39.21L29.313 39.74L29.531 38.21L29.563 37.772L29.313 37.459C28.473 36.42 28 35.203 28 33.897C28 30.405 31.48 27.397 36 27.397ZM32.562 29.553C31.785 29.553 31.156 30.183 31.156 30.959C31.156 31.737 31.786 32.397 32.562 32.397C33.34 32.397 33.969 31.737 33.969 30.959C33.969 30.182 33.338 29.553 32.562 29.553ZM39.25 29.553C38.473 29.553 37.812 30.183 37.812 30.959C37.812 31.737 38.472 32.397 39.25 32.397C40.027 32.397 40.656 31.737 40.656 30.959C40.656 30.182 40.027 29.553 39.25 29.553ZM42.5 36.553C45.64 36.553 48 38.647 48 40.991C48 41.877 47.68 42.682 47.094 43.397L46.812 43.741L46.875 44.147L46.906 44.335L46.438 44.085L45.938 44.428C45.004 45.034 43.813 45.397 42.5 45.397C39.36 45.397 37 43.334 37 40.991C37 38.647 39.36 36.553 42.5 36.553ZM40 37.835C39.41 37.835 38.906 38.307 38.906 38.897C38.906 39.487 39.41 39.96 40 39.96C40.586 39.96 41.063 39.487 41.063 38.897C41.063 38.307 40.59 37.835 40 37.835ZM45.031 37.835C44.8915 37.8347 44.7532 37.862 44.6243 37.9153C44.4953 37.9686 44.3781 38.0468 44.2795 38.1454C44.1808 38.2441 44.1026 38.3613 44.0493 38.4903C43.996 38.6192 43.9687 38.7574 43.969 38.897C43.969 39.487 44.441 39.96 45.031 39.96C45.621 39.96 46.094 39.487 46.094 38.897C46.094 38.307 45.621 37.835 45.031 37.835Z" fill="white"/>
</g>
<defs>
<filter id="filter0_d_412_7639" x="0" y="0.396973" width="80" height="80" filterUnits="userSpaceOnUse" color-interpolation-filters="sRGB">
<feFlood flood-opacity="0" result="BackgroundImageFix"/>
<feColorMatrix in="SourceAlpha" type="matrix" values="0 0 0 0 0 0 0 0 0 0 0 0 0 0 0 0 0 0 127 0" result="hardAlpha"/>
<feOffset dx="2" dy="4"/>
<feGaussianBlur stdDeviation="8"/>
<feComposite in2="hardAlpha" operator="out"/>
<feColorMatrix type="matrix" values="0 0 0 0 0.631373 0 0 0 0 0.811765 0 0 0 0 0.941176 0 0 0 0.34 0"/>
<feBlend mode="normal" in2="BackgroundImageFix" result="effect1_dropShadow_412_7639"/>
<feBlend mode="normal" in="SourceGraphic" in2="effect1_dropShadow_412_7639" result="shape"/>
</filter>
</defs>
</svg>
