<svg width="80" height="81" viewBox="0 0 80 81" fill="none" xmlns="http://www.w3.org/2000/svg">
<g filter="url(#filter0_d_412_7643)">
<circle cx="38" cy="36.397" r="24" fill="#8CCEFE"/>
<path fill-rule="evenodd" clip-rule="evenodd" d="M38.001 49.2107C37.115 49.3026 35.3768 49.392 33.7937 49.3957C33.0342 49.4036 32.2749 49.3754 31.5181 49.311C31.2232 49.285 30.9306 49.2365 30.643 49.1659C30.502 49.1307 30.365 49.0809 30.2343 49.0172C30.0309 48.9184 29.8599 48.7632 29.7414 48.5698C29.5924 48.3215 29.5282 48.031 29.5587 47.7426C29.59 47.4585 29.7066 47.2275 29.8304 47.0546C30.0612 46.7305 30.4026 46.4959 30.6803 46.3327C30.8029 46.2613 30.9327 46.1948 31.0637 46.1307C30.5269 45.4716 30.1002 44.7292 29.8003 43.9323C29.6571 44.1135 29.5051 44.2874 29.3448 44.4535C29.2088 44.5964 29.0585 44.7249 28.8964 44.8368C28.7666 44.9227 28.4528 45.1137 28.0525 45.0642C27.9035 45.0434 27.7608 44.9906 27.634 44.9092C27.5072 44.8278 27.3995 44.7198 27.318 44.5926C27.225 44.4474 27.1556 44.2882 27.1125 44.121C27.0253 43.7619 26.9885 43.3923 27.0031 43.023C27.0187 42.1523 27.2123 40.8947 27.74 39.186C28.1487 37.8656 28.6043 36.7289 29.2173 35.2004L29.2258 35.1798L29.5816 34.2922C29.5347 31.4892 30.0864 28.8192 31.4196 26.807C32.8092 24.7102 35.0018 23.403 37.9901 23.397H38.0118C41.0001 23.403 43.1927 24.7102 44.5824 26.807C45.9143 28.8192 46.4672 31.4892 46.4215 34.2922C46.5454 34.6054 46.6632 34.8993 46.7762 35.1798L46.7846 35.2016C47.3976 36.7289 47.8544 37.8656 48.2619 39.186C48.7896 40.8935 48.9832 42.1511 48.9988 43.023C49.0072 43.4535 48.9712 43.8247 48.8906 44.121C48.8497 44.2661 48.7884 44.4354 48.6839 44.5926C48.6025 44.7198 48.4947 44.8278 48.3679 44.9092C48.2411 44.9906 48.0984 45.0434 47.9494 45.0642C47.5491 45.1125 47.2353 44.9227 47.1055 44.8368C46.9433 44.7249 46.7931 44.5965 46.6572 44.4535C46.4968 44.2874 46.3448 44.1135 46.2016 43.9323C45.9021 44.7291 45.4758 45.4716 44.9394 46.1307C45.0692 46.1936 45.1978 46.2613 45.3204 46.3327C45.5993 46.4959 45.9395 46.7317 46.1715 47.0558C46.2953 47.2275 46.4119 47.4585 46.4432 47.7414C46.4756 48.0389 46.4047 48.3231 46.2605 48.5698C46.1421 48.7632 45.971 48.9185 45.7676 49.0172C45.6369 49.0813 45.4999 49.1316 45.3589 49.1671C45.0712 49.2373 44.7787 49.2854 44.4838 49.311C43.8455 49.3739 43.0341 49.3969 42.2082 49.3957C40.6251 49.3933 38.8869 49.3026 38.001 49.2107ZM31.3871 34.4337C31.3186 31.7855 31.8343 29.4541 32.9198 27.8131C33.974 26.2218 35.6064 25.2133 38.001 25.2108C40.3955 25.2145 42.0279 26.2218 43.0822 27.8131C44.1676 29.4541 44.6833 31.7855 44.6148 34.4349C44.6115 34.5582 44.6332 34.6808 44.6785 34.7953L45.1041 35.8594C45.7267 37.4085 46.1559 38.4811 46.5393 39.7242C46.8471 40.7182 47.0214 41.5138 47.1127 42.1269C46.7834 41.6565 46.5237 41.2405 46.4997 41.2018C46.4078 41.0533 46.2752 40.9346 46.1178 40.8602C45.9603 40.7857 45.7849 40.7586 45.6125 40.7822H45.6101C45.3947 40.8123 45.1974 40.9196 45.0544 41.0845C44.9115 41.2494 44.8326 41.4607 44.8324 41.6795C44.83 42.8839 44.1941 44.5623 42.7564 45.7885C42.6636 45.8674 42.5877 45.9644 42.5331 46.0736C42.4785 46.1828 42.4465 46.302 42.4388 46.424C42.4312 46.5459 42.4482 46.6682 42.4887 46.7834C42.5292 46.8987 42.5925 47.0045 42.6747 47.0945C42.7833 47.2129 42.9209 47.3016 43.0737 47.3496C43.2432 47.4016 43.4476 47.4706 43.658 47.5516C43.2252 47.5733 42.7324 47.583 42.2106 47.5818C40.6179 47.5794 38.7727 47.4766 38.001 47.392C37.228 47.4766 35.384 47.5794 33.7913 47.5818C33.3083 47.5835 32.8253 47.5735 32.3428 47.5516C32.5356 47.4778 32.7309 47.4104 32.9282 47.3496C33.0808 47.302 33.2182 47.2143 33.3261 47.0957C33.4194 46.9933 33.4893 46.8707 33.5281 46.7373C33.5668 46.604 33.5746 46.4635 33.5508 46.3266C33.5148 46.1172 33.4067 45.9259 33.2455 45.7885C31.8078 44.5623 31.1719 42.8839 31.1695 41.6795C31.1693 41.4607 31.0904 41.2494 30.9475 41.0845C30.8045 40.9196 30.6072 40.8123 30.3918 40.7822H30.3894C30.2168 40.7584 30.0411 40.7853 29.8835 40.8598C29.7258 40.9343 29.593 41.0531 29.501 41.2018C29.477 41.2405 29.2185 41.6565 28.8892 42.1269C29.0196 41.3126 29.2113 40.5093 29.4626 39.7242C29.846 38.4811 30.2752 37.4097 30.8978 35.8594L31.3234 34.7953C31.3687 34.6808 31.3904 34.5582 31.3871 34.4349V34.4337Z" fill="white"/>
</g>
<defs>
<filter id="filter0_d_412_7643" x="0" y="0.396973" width="80" height="80" filterUnits="userSpaceOnUse" color-interpolation-filters="sRGB">
<feFlood flood-opacity="0" result="BackgroundImageFix"/>
<feColorMatrix in="SourceAlpha" type="matrix" values="0 0 0 0 0 0 0 0 0 0 0 0 0 0 0 0 0 0 127 0" result="hardAlpha"/>
<feOffset dx="2" dy="4"/>
<feGaussianBlur stdDeviation="8"/>
<feComposite in2="hardAlpha" operator="out"/>
<feColorMatrix type="matrix" values="0 0 0 0 0.631373 0 0 0 0 0.811765 0 0 0 0 0.941176 0 0 0 0.34 0"/>
<feBlend mode="normal" in2="BackgroundImageFix" result="effect1_dropShadow_412_7643"/>
<feBlend mode="normal" in="SourceGraphic" in2="effect1_dropShadow_412_7643" result="shape"/>
</filter>
</defs>
</svg>
